<svg width="132" height="40" viewBox="0 0 132 40" fill="none" xmlns="http://www.w3.org/2000/svg">
<g clip-path="url(#clip0)">
<path d="M9.9326 21.7686L14.3202 28.9233C14.5894 29.3605 14.2798 29.917 13.7549 29.917L5.22197 30.076C4.97971 30.076 4.76436 29.9567 4.64323 29.758L0.269075 22.6033C-0.000103704 22.1528 0.322911 21.5831 0.84781 21.5699L9.35387 21.4506C9.59613 21.4374 9.81147 21.5699 9.9326 21.7686Z" stroke="white" stroke-miterlimit="10"/>
<path d="M13.9569 11.7918L9.86542 19.1452C9.74429 19.3572 9.51549 19.4897 9.27323 19.503L0.780632 19.6222C0.242274 19.6354 -0.107658 19.0657 0.161521 18.602L4.25304 11.3016C4.37417 11.0896 4.58952 10.9571 4.84524 10.9571L13.3378 10.7981C13.8627 10.7848 14.1992 11.3413 13.9569 11.7918Z" stroke="white" stroke-miterlimit="10"/>
<path d="M16.9582 12.4809L21.3458 19.6621C21.4669 19.8609 21.4804 20.1126 21.3592 20.3246L17.2408 27.6648C16.9851 28.1153 16.3391 28.1285 16.0699 27.6913L11.7092 20.5366C11.5881 20.3378 11.5746 20.0861 11.6957 19.8741L15.8007 12.5074C16.043 12.057 16.689 12.0437 16.9582 12.4809Z" fill="#F2F2F2"/>
<path d="M30.1615 30.2218L34.2665 22.9082C34.5088 22.4709 35.1548 22.4577 35.424 22.8817L39.8251 30.0761C39.9462 30.2748 39.9597 30.5266 39.8385 30.7386L35.7336 38.0522C35.4778 38.516 34.8049 38.5292 34.5357 38.0655L30.175 30.8711C30.0539 30.6723 30.0539 30.4206 30.1615 30.2218Z" stroke="white" stroke-miterlimit="10"/>
<path d="M18.9771 31.4145L27.4966 31.229C27.7389 31.229 27.9811 31.3482 28.1022 31.5602L32.4495 38.7414C32.7321 39.1919 32.3957 39.7749 31.8573 39.7881L23.3916 39.9471C23.1494 39.9471 22.9206 39.8279 22.786 39.6159L18.3983 32.448C18.1292 31.9975 18.4522 31.4277 18.9771 31.4145Z" stroke="white" stroke-miterlimit="10"/>
<path d="M18.6676 28.7511L22.7861 21.4109C22.9072 21.1989 23.1225 21.0665 23.3648 21.0665L31.8843 20.9075C32.4092 20.8942 32.7322 21.4507 32.49 21.8879L28.385 29.1883C28.2639 29.4003 28.0485 29.5196 27.8063 29.5328L19.2733 29.7183C18.7484 29.7448 18.4119 29.2016 18.6676 28.7511Z" fill="#F2F2F2"/>
<path d="M27.3486 8.73133L18.856 8.89033C18.3446 8.90357 18.0081 8.36035 18.2639 7.90987L22.3957 0.556439C22.5169 0.344449 22.7322 0.225204 22.9745 0.211954L31.4671 0.0529613C32.0054 0.0397118 32.3419 0.609437 32.0862 1.05992L27.9408 8.3736C27.8062 8.59884 27.5909 8.73133 27.3486 8.73133Z" stroke="white" stroke-miterlimit="10"/>
<path d="M34.1184 17.1315L29.825 9.8841C29.7038 9.67211 29.7038 9.42037 29.825 9.20838L34.1049 1.98745C34.3741 1.52372 35.047 1.52372 35.3162 1.98745L39.5558 9.20838C39.6769 9.42037 39.6769 9.67211 39.5558 9.8841L35.3028 17.1315C35.0336 17.582 34.3741 17.582 34.1184 17.1315Z" stroke="white" stroke-miterlimit="10"/>
<path d="M32.0862 19.0926L23.5801 19.2516C23.3379 19.2516 23.1091 19.1323 22.9879 18.9336L18.5869 11.7524C18.3177 11.3151 18.6272 10.7587 19.1521 10.7454L27.6313 10.5864C27.8735 10.5864 28.1023 10.7057 28.2235 10.9044L32.6649 18.0856C32.9206 18.5228 32.6111 19.0926 32.0862 19.0926Z" fill="#F2F2F2"/>
</g>
<path d="M55.928 25.264L58.136 16.048C58.488 15.968 58.968 15.928 59.576 15.928C60.2 15.928 60.768 16.016 61.28 16.192L61.4 16.36C59.832 21.928 58.704 25.808 58.016 28C57.216 28.096 56.392 28.144 55.544 28.144C54.696 28.144 54.088 28.032 53.72 27.808C53.352 27.568 53.064 27.104 52.856 26.416L49.928 16.312C50.712 15.992 51.376 15.832 51.92 15.832C52.48 15.832 52.92 15.96 53.24 16.216C53.576 16.472 53.816 16.896 53.96 17.488L55.112 22.072C55.224 22.472 55.344 23.04 55.472 23.776C55.6 24.496 55.68 24.928 55.712 25.072C55.728 25.2 55.8 25.264 55.928 25.264ZM63.8141 23.992V18.976C63.8141 17.968 63.6221 17.184 63.2381 16.624C63.8301 16.112 64.5181 15.856 65.3021 15.856C66.1021 15.856 66.6461 16.04 66.9341 16.408C67.2381 16.776 67.3901 17.328 67.3901 18.064V23.32C67.3901 23.912 67.4701 24.344 67.6301 24.616C67.7901 24.872 68.0701 25 68.4701 25C69.1581 25 69.8061 24.704 70.4141 24.112V16.048C70.9101 15.952 71.5021 15.904 72.1901 15.904C72.8781 15.904 73.4861 15.952 74.0141 16.048V24.592C74.0141 25.472 74.2381 26.072 74.6861 26.392C74.6221 26.712 74.4781 27.048 74.2541 27.4C74.0301 27.736 73.7981 28 73.5581 28.192C72.2781 28.144 71.3661 27.584 70.8221 26.512C69.6061 27.648 68.4221 28.216 67.2701 28.216C66.1181 28.216 65.2541 27.832 64.6781 27.064C64.1021 26.28 63.8141 25.256 63.8141 23.992ZM87.2579 23.176H80.8979C80.9459 23.944 81.1379 24.544 81.4739 24.976C81.8099 25.392 82.4019 25.6 83.2499 25.6C84.0979 25.6 85.1059 25.352 86.2739 24.856C86.7699 25.336 87.0979 26.048 87.2579 26.992C85.9619 27.904 84.3939 28.36 82.5539 28.36C81.5619 28.36 80.7059 28.192 79.9859 27.856C79.2659 27.504 78.7139 27.024 78.3299 26.416C77.6259 25.248 77.2739 23.752 77.2739 21.928C77.2739 20.104 77.7139 18.608 78.5939 17.44C79.4739 16.272 80.7459 15.688 82.4099 15.688C84.0739 15.688 85.3459 16.168 86.2259 17.128C87.1219 18.072 87.5699 19.288 87.5699 20.776C87.5699 21.608 87.4659 22.408 87.2579 23.176ZM84.2579 20.416C84.2579 19.776 84.1219 19.256 83.8499 18.856C83.5779 18.44 83.1539 18.232 82.5779 18.232C82.0179 18.232 81.6019 18.432 81.3299 18.832C81.0739 19.232 80.9219 19.856 80.8739 20.704H84.2579V20.416ZM94.9876 18.712V28C94.5076 28.096 93.9236 28.144 93.2356 28.144C92.5476 28.144 91.9396 28.096 91.4116 28V19.936C91.4116 19.024 91.0356 18.568 90.2836 18.568H89.9476C89.8516 18.168 89.8036 17.752 89.8036 17.32C89.8036 16.888 89.8516 16.472 89.9476 16.072C90.7476 15.992 91.4276 15.952 91.9876 15.952H92.4676C93.2516 15.952 93.8676 16.2 94.3156 16.696C94.7636 17.192 94.9876 17.864 94.9876 18.712ZM90.9556 13.96C90.7796 13.528 90.6916 13.08 90.6916 12.616C90.6916 12.152 90.7796 11.704 90.9556 11.272C91.4036 11.032 91.9876 10.912 92.7076 10.912C93.4436 10.912 94.0116 11.032 94.4116 11.272C94.5876 11.704 94.6756 12.152 94.6756 12.616C94.6756 13.08 94.5876 13.528 94.4116 13.96C94.0116 14.2 93.4276 14.32 92.6596 14.32C91.8916 14.32 91.3236 14.2 90.9556 13.96ZM105.21 15.808C106.586 15.808 107.634 16.36 108.354 17.464C109.09 18.568 109.458 20.072 109.458 21.976C109.458 23.864 108.922 25.376 107.85 26.512C106.794 27.648 105.386 28.216 103.626 28.216C101.866 28.216 100.29 27.944 98.8983 27.4V10.504L99.0663 10.336H100.41C101.13 10.336 101.642 10.504 101.946 10.84C102.25 11.16 102.402 11.712 102.402 12.496V16.672C103.282 16.096 104.218 15.808 105.21 15.808ZM104.178 18.688C103.506 18.688 102.914 18.968 102.402 19.528V25.528C102.834 25.608 103.242 25.648 103.626 25.648C105.082 25.648 105.81 24.4 105.81 21.904C105.81 19.792 105.266 18.72 104.178 18.688ZM117.167 25.384H117.863C118.055 25.896 118.151 26.392 118.151 26.872C118.151 27.336 118.127 27.672 118.079 27.88C117.119 28.04 116.199 28.12 115.319 28.12C114.439 28.12 113.775 27.864 113.327 27.352C112.879 26.84 112.655 26.024 112.655 24.904V10.504L112.823 10.336H114.215C114.919 10.336 115.415 10.504 115.703 10.84C116.007 11.16 116.159 11.712 116.159 12.496V24.256C116.159 25.008 116.495 25.384 117.167 25.384ZM130.356 23.176H123.996C124.044 23.944 124.236 24.544 124.572 24.976C124.908 25.392 125.5 25.6 126.348 25.6C127.196 25.6 128.204 25.352 129.372 24.856C129.868 25.336 130.196 26.048 130.356 26.992C129.06 27.904 127.492 28.36 125.652 28.36C124.66 28.36 123.804 28.192 123.084 27.856C122.364 27.504 121.812 27.024 121.428 26.416C120.724 25.248 120.372 23.752 120.372 21.928C120.372 20.104 120.812 18.608 121.692 17.44C122.572 16.272 123.844 15.688 125.508 15.688C127.172 15.688 128.444 16.168 129.324 17.128C130.22 18.072 130.668 19.288 130.668 20.776C130.668 21.608 130.564 22.408 130.356 23.176ZM127.356 20.416C127.356 19.776 127.22 19.256 126.948 18.856C126.676 18.44 126.252 18.232 125.676 18.232C125.116 18.232 124.7 18.432 124.428 18.832C124.172 19.232 124.02 19.856 123.972 20.704H127.356V20.416Z" fill="white"/>
<defs>
<clipPath id="clip0">
<rect width="40" height="40" fill="white"/>
</clipPath>
</defs>
</svg>
