<svg width="567" height="220" viewBox="0 0 567 220" fill="none" xmlns="http://www.w3.org/2000/svg">
<g opacity="0.85" filter="url(#filter0_d)">
<path d="M380.989 -84.6555C391.666 -75.5334 402.564 -57.3194 396.4 -29.4948C390.236 -1.67033 387.106 14.5499 393.574 28.8393C406.224 56.786 522.676 104.748 521.997 180.898C521.226 267.3 428.377 270.962 404.49 298.786C386.895 319.283 385.227 374.937 330.519 407.887C282.848 436.599 188.046 441.215 128.254 392.145C85.8742 357.364 87.9292 314.895 89.9834 297.078C92.0377 279.261 109.717 225.162 81.0953 185.412C47.0901 138.184 51.039 101.875 62.772 63.1901C73.9309 26.3987 104.268 -31.127 180.136 -71.4754C264.124 -116.141 352.993 -108.574 380.989 -84.6555Z" fill="url(#paint0_linear)"/>
<path d="M112.458 40.6771H71.1933C67.6049 48.7388 64.8548 56.3254 62.7729 63.19C56.9484 82.3941 53.0449 101.013 54.7477 120.673H112.458V40.6771Z" fill="url(#paint1_linear)"/>
<path d="M374.568 29.6938V-9.48021C374.568 -9.8844 374.224 -10.2124 373.798 -10.2124H368.661C368.234 -10.2124 367.89 -9.8844 367.89 -9.48021V29.6938H374.568Z" fill="#05C5DA"/>
<path d="M367.89 29.6938V-13.1413C367.89 -15.5672 365.82 -17.5347 363.267 -17.5347H358.644C356.091 -17.5347 354.02 -15.5672 354.02 -13.1413V29.6938H367.89Z" fill="#FDE1A7"/>
<path d="M335.626 29.2054H349.699L335.707 -21.5129C335.383 -22.6866 334.12 -23.3888 332.885 -23.0813L324.19 -20.9154C322.954 -20.6078 322.216 -19.407 322.539 -18.2332L335.626 29.2054Z" fill="#1AA9E8"/>
<path d="M339.009 -9.53678L325.842 -6.25635L331.346 13.6931L344.513 10.4126L339.009 -9.53678Z" fill="#0090B2"/>
<path d="M335.626 29.2054L321.106 -23.4269C320.998 -23.8179 320.577 -24.0522 320.165 -23.949L311.966 -21.9061C311.554 -21.8035 311.308 -21.403 311.416 -21.012L325.269 29.2061H335.626V29.2054Z" fill="#FF9BBB"/>
<path d="M311.127 29.8769V-103.767C309.517 -103.804 307.889 -103.821 306.247 -103.822V29.8769H311.127Z" fill="url(#paint2_linear)"/>
<path d="M300.79 32.1957V32.4396H395.695C394.823 31.205 394.101 30.0035 393.574 28.8392C393.419 28.4951 393.273 28.1487 393.128 27.8016H305.413C302.86 27.8024 300.79 29.7699 300.79 32.1957Z" fill="url(#paint3_linear)"/>
<path d="M93.9649 68.1356C86.2588 70.7342 74.8941 71.7967 69.693 81.6817C64.1352 92.2448 70.8488 97.1499 71.2341 103.282C71.5716 108.652 67.5479 112.914 62.7428 115.364H106.486V60.5204C103.945 63.1213 100.312 65.9953 93.9649 68.1356Z" fill="url(#paint4_linear)"/>
<path d="M87.7042 61.637C93.2906 58.7997 83.081 49.6468 92.6164 45.9857H68.9224C67.5178 49.4015 66.2625 52.7185 65.1476 55.9125C65.9019 55.6035 66.7025 55.3853 67.574 55.3216C76.3388 54.6809 77.7505 66.6931 87.7042 61.637Z" fill="#1AA9E8"/>
<path d="M71.2339 103.282C70.8487 97.1499 64.135 92.2448 69.6929 81.6817C74.894 71.7967 86.2586 70.7342 93.9647 68.1356C100.312 65.9953 103.945 63.1213 106.486 60.5204V45.9858H92.6163C83.0809 49.6469 93.2905 58.7997 87.7041 61.6371C77.7504 66.6931 76.3387 54.6809 67.5739 55.3216C66.7017 55.3853 65.9011 55.6035 65.1475 55.9125C64.2737 58.4153 63.4839 60.8455 62.7727 63.1894C57.4753 80.6566 53.7659 97.6405 54.4193 115.363H62.7427C67.5477 112.914 71.5714 108.652 71.2339 103.282Z" fill="url(#paint5_linear)"/>
<path d="M87.4153 99.3774C91.9547 99.3774 95.6346 95.8804 95.6346 91.5667C95.6346 87.253 91.9547 83.7561 87.4153 83.7561C82.8759 83.7561 79.196 87.253 79.196 91.5667C79.196 95.8804 82.8759 99.3774 87.4153 99.3774Z" fill="url(#paint6_linear)"/>
<path d="M100.417 217.387C99.5155 219.313 100.858 221.205 103.391 222.238C106.268 223.411 108.456 223.213 109.433 225.797C110.411 228.382 109.709 231.353 111.43 231.334C113.152 231.316 116.019 224.243 112.841 219.061C109.637 213.834 102.475 212.987 100.417 217.387Z" fill="url(#paint7_linear)"/>
<path d="M112.926 349.053C112.926 344.72 114.84 330.68 110.838 323.227C106.836 315.773 104.574 308.147 106.488 299.827C108.402 291.507 117.798 275.473 117.102 269.927C116.406 264.38 113.535 255.02 118.668 236.907C122.555 223.19 131.376 213.879 137.46 217.667C141.636 220.267 139.722 229.973 137.634 233.613C135.546 237.253 131.918 243.605 132.614 247.245C133.31 250.885 135.6 251.281 135.406 256.222C135.025 265.94 121.366 280.847 118.147 294.107C115.475 305.109 114.493 318.373 117.277 318.893C120.061 319.413 117.088 345.516 115.79 348.195C114.492 350.874 112.926 349.053 112.926 349.053Z" fill="url(#paint8_linear)"/>
<path d="M421.763 77.9718L418.528 77.9829V159.195H424.096C426.402 159.195 428.272 157.333 428.272 155.035V83.5933C428.272 80.7333 426.474 77.9718 421.763 77.9718Z" fill="#9180E6"/>
<path d="M367.836 178.667C377.406 170.174 372.36 159.196 370.968 157.693H348.956C350.348 159.196 355.394 170.174 345.824 178.667H367.836Z" fill="url(#paint9_linear)"/>
<path d="M368.692 179.911L366.91 177.632C370.181 174.729 371.938 171.246 372.132 167.281C372.352 162.804 370.47 159.201 369.944 158.634L371.99 156.753C373.131 157.985 375.16 162.377 374.912 167.417C374.685 172.086 372.489 176.542 368.692 179.911Z" fill="#9180E6"/>
<path d="M368.677 179.89C368.677 179.89 368.14 177.713 367.639 176.928H329.761C327.455 176.928 325.585 178.791 325.585 181.088V181.319H368.677V179.89Z" fill="#9180E6"/>
<path d="M289.768 155.036C289.768 157.334 291.638 159.196 293.944 159.196H421.312C423.618 159.196 425.488 157.334 425.488 155.036V82.0042C425.488 79.7072 423.618 77.8442 421.312 77.8442L293.944 83.0442C291.638 83.0442 289.768 84.9072 289.768 87.2042V155.036V155.036Z" fill="url(#paint10_linear)"/>
<path d="M295.104 149.027L418.064 146.947V84.7776L295.104 89.9776V149.027Z" fill="url(#paint11_linear)"/>
<path d="M410.96 95.0084C411.01 96.3687 409.805 97.5176 408.269 97.5737L339.42 100.185C337.884 100.242 336.597 99.1836 336.547 97.8233L336.49 96.2834C336.439 94.9231 337.644 93.7743 339.181 93.7174L408.03 91.1063C409.567 91.0502 410.853 92.1075 410.903 93.4678L410.96 95.0084Z" fill="url(#paint12_linear)"/>
<path d="M389.586 135.333C389.586 136.099 388.962 136.72 388.194 136.72L327.12 137.76C326.352 137.76 325.728 137.139 325.728 136.373V108.987C325.728 108.221 326.352 107.6 327.12 107.6L388.194 106.56C388.962 106.56 389.586 107.181 389.586 107.947V135.333Z" fill="#FF9BBB"/>
<path d="M306.014 101.005C307.808 101.005 309.262 99.5563 309.262 97.7693C309.262 95.9822 307.808 94.5335 306.014 94.5335C304.22 94.5335 302.766 95.9822 302.766 97.7693C302.766 99.5563 304.22 101.005 306.014 101.005Z" fill="#FBBB6C"/>
<path d="M316.938 100.762C318.732 100.762 320.186 99.3137 320.186 97.5266C320.186 95.7396 318.732 94.2908 316.938 94.2908C315.144 94.2908 313.69 95.7396 313.69 97.5266C313.69 99.3137 315.144 100.762 316.938 100.762Z" fill="#5265F9"/>
<path d="M327.863 100.52C329.657 100.52 331.111 99.071 331.111 97.2839C331.111 95.4969 329.657 94.0482 327.863 94.0482C326.069 94.0482 324.614 95.4969 324.614 97.2839C324.614 99.071 326.069 100.52 327.863 100.52Z" fill="#EA4D81"/>
<path d="M381.812 114.674C372.186 114.533 338.256 115.4 326.772 114.013C315.288 112.627 302.079 107.734 297.366 103.787C297.015 103.493 296.722 103.212 296.465 102.935C297.308 105.925 298.497 108.64 297.656 112.973C296.987 116.421 293.5 121.334 288.729 123.398C290.773 124.339 292.944 125.256 295.104 126.031C303.804 129.151 321.21 130.768 332.804 130.768C344.399 130.768 381.988 130.768 381.988 130.768L381.812 114.674Z" fill="url(#paint13_linear)"/>
<path d="M381.812 114.674C378.937 114.632 373.888 114.68 367.924 114.731C369.402 116.007 373.491 122.478 368.358 130.769C376.145 130.769 381.988 130.769 381.988 130.769L381.812 114.674Z" fill="url(#paint14_linear)"/>
<path d="M297.656 112.973C298.497 108.64 297.308 105.924 296.465 102.935C294.851 101.196 294.805 99.6468 292.929 96.5067C290.967 93.2223 289.937 90.3582 289.768 88.5333C289.42 84.7775 291.731 81.7477 291.44 79.321C291.164 77.0087 285.096 76.115 283.098 79.52C281.3 82.5824 282.219 87.1598 282.489 88.7933C282.866 91.0758 282.576 92 282.576 92C282.576 92 276.834 99.1933 276.573 105C276.312 110.807 277.53 117.48 277.53 117.48C277.53 117.48 282.544 120.549 288.729 123.398C293.5 121.334 296.987 116.421 297.656 112.973Z" fill="url(#paint15_linear)"/>
<path d="M355.318 130.769C353.067 124.827 347.308 120.6 340.556 120.6C333.896 120.6 328.204 124.713 325.89 130.525C328.912 130.687 331.807 130.769 334.408 130.769C338.8 130.769 346.922 130.769 355.318 130.769Z" fill="url(#paint16_linear)"/>
<path d="M355.318 131.289C355.107 131.289 354.909 131.161 354.829 130.953C352.601 125.072 346.866 121.12 340.556 121.12C334.262 121.12 328.696 124.887 326.375 130.717C326.269 130.984 325.967 131.114 325.697 131.009C325.429 130.903 325.299 130.601 325.404 130.334C327.884 124.105 333.832 120.08 340.556 120.08C347.297 120.08 353.425 124.302 355.806 130.585C355.908 130.854 355.772 131.154 355.501 131.255C355.441 131.278 355.379 131.289 355.318 131.289Z" fill="#AD7CF7"/>
<path d="M344.324 131.289C344.1 131.289 343.893 131.145 343.824 130.92C343.349 129.364 341.934 128.318 340.3 128.318C338.667 128.318 337.251 129.364 336.776 130.92C336.692 131.195 336.398 131.349 336.125 131.267C335.849 131.183 335.693 130.893 335.777 130.618C336.386 128.62 338.203 127.278 340.299 127.278C342.396 127.278 344.213 128.62 344.822 130.618C344.906 130.893 344.75 131.183 344.474 131.267C344.425 131.282 344.374 131.289 344.324 131.289Z" fill="#AD7CF7"/>
<path d="M272.919 101.837C272.571 101.144 270.961 96.2903 274.268 93.82C277.407 91.4744 281.413 91.1049 283.621 92.6933C285.293 93.897 287.909 96.1531 287.971 99.3667C288.015 101.62 286.274 103.613 286.274 103.613C286.274 103.613 287.884 105.347 287.797 107.513C287.692 110.113 285.97 111.673 285.97 111.673C285.97 111.673 286.884 116.31 284.273 117.307C282.16 118.113 280.575 116.83 279.183 116.873C277.962 116.911 278.029 117.779 278.029 117.779C278.029 117.779 275.13 117.945 274.224 116.44C273.049 114.49 273.963 111.587 273.963 111.587C273.963 111.587 271.885 108.725 271.788 105.693C271.701 102.964 272.919 101.837 272.919 101.837Z" fill="url(#paint17_linear)"/>
<path d="M284.273 117.307C286.883 116.31 285.97 111.673 285.97 111.673C285.97 111.673 287.692 110.113 287.797 107.513C287.884 105.347 286.274 103.613 286.274 103.613C286.274 103.613 288.014 101.62 287.971 99.3667C287.909 96.1531 285.293 93.897 283.621 92.6933C282.727 92.0506 281.537 91.7338 280.23 91.7338C281.187 92.8715 282.141 95.0784 281.663 97.1563C281.013 99.9837 278.575 100.351 278.575 100.351C278.575 100.351 280.576 101.967 280.402 104.913C280.228 107.86 278.4 109.044 278.4 109.044C278.4 109.044 280.837 110.46 280.576 112.973C280.315 115.487 278.474 117.039 278.474 117.039V117.04C278.641 116.949 278.868 116.882 279.184 116.873C280.575 116.83 282.16 118.113 284.273 117.307Z" fill="url(#paint18_linear)"/>
<path d="M289.766 88.489C289.44 84.754 291.729 81.7387 291.44 79.3217C291.164 77.0094 285.096 76.1157 283.098 79.5207C281.314 82.5589 282.204 87.0836 282.481 88.751C283.607 89.6177 285.269 90.3395 286.81 90.3831C287.96 90.415 289.064 89.348 289.766 88.489Z" fill="url(#paint19_linear)"/>
<path d="M309.098 118.584C309.538 114.522 308.217 110.793 306.95 108.892C302.773 107.241 299.33 105.432 297.365 103.787C297.014 103.493 296.721 103.212 296.465 102.935C297.307 105.925 298.496 108.64 297.655 112.973C296.987 116.421 293.499 121.334 288.729 123.398C290.772 124.339 292.943 125.256 295.103 126.031C297.465 126.878 300.472 127.613 303.826 128.236C304.721 127.42 308.548 123.659 309.098 118.584Z" fill="url(#paint20_linear)"/>
<path d="M368.357 131.289C368.264 131.289 368.169 131.264 368.084 131.211C367.838 131.061 367.762 130.741 367.913 130.496C372.916 122.414 368.856 116.223 367.582 115.124C367.364 114.936 367.34 114.608 367.53 114.391C367.719 114.173 368.049 114.15 368.266 114.338C369.673 115.553 374.188 122.342 368.803 131.042C368.704 131.201 368.533 131.289 368.357 131.289Z" fill="#AD7CF7"/>
<path d="M286.665 104.198C286.515 104.198 286.366 104.134 286.263 104.01C285.076 102.579 281.153 100.984 279.412 100.779C277.837 100.597 275.789 101.096 273.137 102.31C272.875 102.429 272.565 102.316 272.444 102.055C272.324 101.794 272.439 101.485 272.7 101.365C275.531 100.068 277.763 99.5386 279.534 99.7466C281.523 99.9803 285.69 101.687 287.067 103.348C287.25 103.569 287.219 103.897 286.996 104.08C286.9 104.16 286.783 104.198 286.665 104.198Z" fill="#AD7CF7"/>
<path d="M286.208 112.475C285.995 112.475 285.796 112.345 285.718 112.134C285.349 111.132 282.362 109.62 279.815 109.448C277.195 109.274 274.311 112.107 274.282 112.135C274.079 112.338 273.749 112.339 273.544 112.136C273.34 111.933 273.34 111.603 273.544 111.4C273.675 111.27 276.792 108.2 279.885 108.41C282.473 108.585 286.089 110.124 286.698 111.775C286.798 112.045 286.659 112.344 286.389 112.443C286.329 112.465 286.268 112.475 286.208 112.475Z" fill="#AD7CF7"/>
<path d="M295.972 126.848C295.783 126.848 295.601 126.746 295.508 126.567C295.376 126.312 295.476 125.998 295.731 125.866C295.784 125.838 301.113 123.013 302.688 116.577C303.569 112.973 302.815 109.168 301.676 106.997C301.543 106.742 301.642 106.428 301.898 106.295C302.154 106.163 302.468 106.261 302.602 106.516C303.741 108.688 304.712 112.691 303.702 116.823C302.012 123.734 296.447 126.669 296.211 126.79C296.134 126.829 296.052 126.848 295.972 126.848Z" fill="#AD7CF7"/>
<path d="M386.802 141.193C394.361 141.193 400.49 135.089 400.49 127.558C400.49 120.028 394.361 113.923 386.802 113.923C379.243 113.923 373.114 120.028 373.114 127.558C373.114 135.089 379.243 141.193 386.802 141.193Z" fill="url(#paint21_linear)"/>
<path d="M394.855 120.143C394.053 119.588 392.951 119.785 392.393 120.583L385.862 129.934L378.619 123.75C378.114 123.319 377.357 123.296 376.825 123.73C376.228 124.216 376.139 125.093 376.628 125.689L384.552 135.341C384.735 135.561 384.965 135.758 385.231 135.905C386.363 136.529 387.788 136.121 388.415 134.994L388.458 134.917L395.393 122.443C395.822 121.664 395.604 120.663 394.855 120.143Z" fill="url(#paint22_linear)"/>
<path d="M449.21 156.576C444.566 156.576 440.8 159.886 440.8 163.972C440.8 168.058 444.566 171.368 449.21 171.368C453.855 171.368 457.62 168.058 457.62 163.972C457.62 159.886 453.855 156.576 449.21 156.576ZM448.731 167.208C446.938 167.208 445.483 165.76 445.483 163.972C445.483 162.185 446.938 160.736 448.731 160.736C450.525 160.736 451.98 162.185 451.98 163.972C451.98 165.76 450.526 167.208 448.731 167.208Z" fill="url(#paint23_linear)"/>
<path d="M444.541 180.573H425.372L420.152 150.725H449.761L444.541 180.573Z" fill="url(#paint24_linear)"/>
<path d="M434.974 158.618C443.159 158.618 449.795 155.084 449.795 150.725C449.795 146.366 443.159 142.832 434.974 142.832C426.788 142.832 420.152 146.366 420.152 150.725C420.152 155.084 426.788 158.618 434.974 158.618Z" fill="#FF9BBB"/>
<path d="M434.974 155.151C441.002 155.151 445.889 152.913 445.889 150.153C445.889 147.393 441.002 145.156 434.974 145.156C428.945 145.156 424.058 147.393 424.058 150.153C424.058 152.913 428.945 155.151 434.974 155.151Z" fill="url(#paint25_linear)"/>
<path d="M438.307 149.084C438.335 148.044 435.058 147.524 435.812 144.578C436.567 141.631 439.988 139.782 444.919 138.627C448.931 137.687 453.924 136.255 454.082 132.098C454.198 129.035 451.414 128.515 449.674 128.168C447.934 127.822 445.904 126.782 446.426 124.991C446.948 123.2 448.928 119.957 446.318 118.108C443.014 115.768 433.434 115.978 430.766 122.275C428.098 128.573 434.362 129.555 435.638 129.902C436.915 130.248 439.661 130.98 438.481 133.484C437.146 136.315 429.766 139.724 429.664 144.52C429.548 149.98 438.237 151.618 438.307 149.084Z" fill="url(#paint26_linear)"/>
<path d="M419.921 113.493C422.038 113.753 422.936 115.891 422.473 118.578C421.946 121.63 420.617 123.373 422.299 125.568C423.98 127.764 426.881 128.746 425.953 130.191C425.024 131.636 417.485 130.307 414.758 124.875C412.008 119.398 415.085 112.9 419.921 113.493Z" fill="url(#paint27_linear)"/>
<path d="M413.265 132.733C414.722 133.448 415.896 135.94 417.441 136.244C418.521 136.456 420.032 136.59 420.007 137.847C419.986 138.953 418.05 139.581 414.853 139.342C411.756 139.111 408.986 136.493 410.002 134.056C410.698 132.387 412.626 132.42 413.265 132.733Z" fill="url(#paint28_linear)"/>
<path d="M476.035 183.231H387.556V191.435C387.556 197.179 392.231 201.835 397.996 201.835H476.428C476.621 199.334 476.737 196.757 476.76 194.093C476.791 190.402 476.532 186.784 476.035 183.231Z" fill="url(#paint29_linear)"/>
<path d="M423.168 197.329C424.962 197.329 426.416 195.88 426.416 194.093C426.416 192.306 424.962 190.858 423.168 190.858C421.374 190.858 419.92 192.306 419.92 194.093C419.92 195.88 421.374 197.329 423.168 197.329Z" fill="#5265F9"/>
<path d="M457.736 202.356C457.448 202.356 457.214 202.123 457.214 201.836V186.432C457.214 186.145 457.448 185.912 457.736 185.912C458.024 185.912 458.258 186.145 458.258 186.432V201.836C458.258 202.123 458.024 202.356 457.736 202.356Z" fill="#FFA2BA"/>
<path d="M307.835 179.88V186.433H476.411C476.199 184.222 475.89 182.038 475.489 179.88H307.835Z" fill="url(#paint30_linear)"/>
<path d="M161.471 160.813C154.838 161.709 132.509 169.036 129.824 184.29C129.739 184.776 130.603 185.987 130.76 186.467C136.154 203.02 160.514 225.293 169.823 226.853C170.233 226.923 170.818 227.355 171.23 227.196C177.646 224.721 184.328 212.444 189.833 208.48C192.225 206.757 161.471 160.813 161.471 160.813Z" fill="url(#paint31_linear)"/>
<path d="M132.403 177.704C130.9 180.118 129.893 182.802 129.63 185.773C128.412 199.525 160.358 229.27 169.998 227.547C171.086 227.353 172.184 226.836 173.286 226.093C153.359 218.334 135.272 189.372 132.403 177.704Z" fill="url(#paint32_linear)"/>
<path d="M183.472 102.371C183.802 106.792 182.584 125.222 176.146 134.236C178.428 139.364 190.717 139.792 194.88 139.436C204.334 138.627 211.004 133.427 211.004 133.427C211.004 133.427 207.408 114.476 203.348 108.12C200.208 107.125 195.983 106.676 192.038 105.404C188.094 104.133 183.472 102.371 183.472 102.371Z" fill="url(#paint33_linear)"/>
<path d="M208.916 80.6175C203.922 72.2525 196.529 66.0284 195.344 64.7867C195.344 64.7867 173.855 60.7376 167.968 77.0358C164.546 86.5116 174.812 97.0267 174.812 97.0267C174.812 97.0267 175.751 97.3824 177.179 98.1249C176.134 99.0048 175.469 100.318 175.469 101.787C175.469 104.436 177.625 106.583 180.284 106.583C182.318 106.583 184.054 105.324 184.758 103.548C184.84 103.627 184.922 103.701 185.003 103.781C188.5 107.254 201.872 114.28 209.744 107.082C216.572 100.84 213.211 87.8123 208.916 80.6175Z" fill="url(#paint34_linear)"/>
<path d="M207.176 45.2C204.565 43.4653 198.998 46.5867 196.04 49.5909C193.082 52.5951 189.022 54.8484 187.92 53.6351C186.818 52.4218 189.639 51.1488 188.326 49.4751C186.876 47.626 178.872 49.9376 175.218 56.1776C171.564 62.4176 168.665 70.7951 165.59 71.72C162.516 72.6449 163.386 67.8491 160.196 67.7333C157.007 67.6176 152.946 71.72 151.961 74.9558C150.495 79.7648 151.903 83.2183 154.165 83.3916C158.236 83.7036 160.603 77.4407 163.445 78.8849C165.386 79.8715 164.083 84.0267 163.039 87.6091C161.995 91.1916 163.329 95.9867 167.505 99.28C170.629 101.743 173.617 102.259 175.496 102.284C175.479 102.121 175.47 101.954 175.47 101.786C175.47 99.2426 177.459 97.1674 179.972 97.0059C180.277 95.7905 180.35 94.5182 179.917 93.386C178.525 89.746 168.746 81.8025 170.579 77.6702C171.68 75.186 174.638 75.1278 179.975 74.9544C185.311 74.7811 188.594 75.2345 189.139 73.1635C189.777 70.7369 184.986 71.6264 185.311 70.3326C185.833 68.2526 194.627 69.9069 202.131 62.0126C209.38 54.3867 209.786 46.9334 207.176 45.2Z" fill="url(#paint35_linear)"/>
<path d="M197.142 96.7958C197.142 96.7958 200.738 96.5067 202.71 96.2758C204.682 96.0449 209.612 95.6982 209.612 95.6982C209.612 95.6982 207.872 101.129 203.87 101.592C199.868 102.054 197.142 96.7958 197.142 96.7958Z" fill="white"/>
<path d="M187.39 88.6068C187.268 88.6068 187.15 88.543 187.086 88.43C186.216 86.8908 186.412 85.0791 187.572 83.9227C188.615 82.8841 190.229 82.6143 191.685 83.237C191.862 83.3125 191.944 83.5164 191.868 83.6918C191.793 83.8679 191.587 83.9497 191.412 83.8741C190.218 83.3638 188.904 83.576 188.064 84.4129C187.127 85.3468 186.978 86.8249 187.692 88.0903C187.787 88.2573 187.727 88.4681 187.56 88.5624C187.506 88.5929 187.447 88.6068 187.39 88.6068Z" fill="#212F66"/>
<path d="M200.929 78.2193C200.773 78.2193 200.632 78.1146 200.592 77.9572C200.304 76.8195 200.545 75.7614 201.254 75.0556C202.088 74.225 203.428 74.0461 204.751 74.5897C204.928 74.6625 205.013 74.8649 204.94 75.0424C204.867 75.2199 204.664 75.3031 204.486 75.231C203.427 74.7963 202.377 74.9176 201.745 75.5465C201.214 76.0755 201.04 76.8929 201.267 77.7887C201.313 77.9745 201.2 78.1631 201.014 78.2096C200.986 78.2158 200.958 78.2193 200.929 78.2193Z" fill="#212F66"/>
<path d="M186.934 -3.59749C187.079 -3.04698 187.136 -2.692 187.193 -2.31066C187.251 -1.93904 187.285 -1.58197 187.319 -1.22768C187.377 -0.519785 187.406 0.174238 187.406 0.868265C187.404 2.25493 187.344 3.6319 187.279 5.00678C187.144 7.75584 186.886 10.4994 186.71 13.2373C186.486 15.9774 186.38 18.7098 186.349 21.4374C186.339 22.1196 186.343 22.8012 186.367 23.4813C186.376 24.1622 186.413 24.8417 186.453 25.5211C186.491 26.1999 186.553 26.8787 186.627 27.5533C186.704 28.2147 186.793 28.9323 186.939 29.5147C187.143 30.3308 186.644 31.1572 185.824 31.3604C185.005 31.5635 184.175 31.0664 183.971 30.2496C183.935 30.1068 183.922 29.9633 183.927 29.8233L183.929 29.799C183.962 29.0231 183.993 28.3797 184 27.6808C184.006 26.9951 184.006 26.3122 183.983 25.6307C183.962 24.9491 183.939 24.2676 183.889 23.5874C183.853 22.9073 183.799 22.2271 183.73 21.5483C183.466 18.8318 183.128 16.1195 182.662 13.4155L181.313 5.31669C181.105 3.97093 180.893 2.62726 180.717 1.29467C180.63 0.629068 180.567 -0.0358403 180.515 -0.685494C180.494 -1.01067 180.469 -1.33237 180.459 -1.63813C180.445 -1.93349 180.434 -2.25728 180.453 -2.37653L180.592 -3.27232C180.866 -5.03547 182.523 -6.24395 184.294 -5.97077C185.608 -5.76693 186.615 -4.80181 186.934 -3.59749Z" fill="url(#paint36_linear)"/>
<path d="M163.852 11.7855C163.96 12.2937 164.253 13.1867 164.539 14.0236L165.479 16.6486C166.123 18.429 166.821 20.2199 167.394 22.078L168.313 24.8486C168.642 25.7631 168.994 26.6686 169.388 27.5498C169.775 28.4352 170.185 29.3095 170.637 30.1477C170.863 30.5658 171.085 30.986 171.33 31.377C171.574 31.7598 171.833 32.1612 172.072 32.4198L172.082 32.4302C172.541 32.9252 172.51 33.6983 172.012 34.1552C171.515 34.6128 170.739 34.5816 170.281 34.0859C170.274 34.0796 170.265 34.0686 170.259 34.0616C169.844 33.5895 169.547 33.1804 169.245 32.7505C168.948 32.3262 168.655 31.9123 168.378 31.4907L166.732 28.976C166.195 28.135 165.642 27.303 165.086 26.471C164.519 25.6446 163.952 24.8153 163.409 23.9715C162.294 22.2958 161.372 20.5201 160.518 18.6828C160.094 17.7613 159.699 16.8198 159.346 15.8283C159.17 15.3312 159.005 14.8209 158.86 14.2725C158.784 13.9993 158.72 13.7137 158.659 13.4044C158.627 13.2505 158.601 13.0904 158.577 12.9122L158.537 12.5877L158.525 12.4033C158.433 10.9299 159.557 9.65975 161.037 9.56823C162.384 9.48433 163.56 10.4058 163.83 11.6829L163.852 11.7855Z" fill="url(#paint37_linear)"/>
<path d="M206.199 4.53046L205.643 7.60609C205.44 8.64678 205.226 9.69025 204.99 10.733C204.508 12.8172 203.894 14.8909 203.05 16.9356C202.837 17.4459 202.601 17.952 202.34 18.4526C202.213 18.7029 202.069 18.9518 201.931 19.1972L201.538 19.858C201.019 20.7406 200.484 21.6121 199.999 22.4996C199.508 23.3829 199.046 24.2759 198.677 25.1703C198.31 26.0487 198.027 26.9875 198.068 27.6711C198.118 28.5018 197.482 29.2145 196.649 29.2644C195.815 29.3137 195.099 28.6806 195.05 27.85C195.044 27.7495 195.048 27.651 195.061 27.5554L195.071 27.4839C195.268 26.116 195.737 25.11 196.153 24.1053C196.589 23.1153 197.035 22.1695 197.471 21.2245L198.767 18.4103L199.09 17.7114C199.182 17.4993 199.276 17.294 199.359 17.077C199.531 16.6485 199.686 16.2069 199.823 15.7541C200.39 13.9487 200.678 12.0074 200.872 10.0543C201.074 8.08519 201.091 6.1383 201.091 4.05553C201.091 2.63836 202.245 1.4895 203.668 1.4895C205.09 1.4895 206.244 2.63906 206.244 4.05623C206.244 4.20668 206.23 4.35436 206.205 4.49719L206.199 4.53046Z" fill="url(#paint38_linear)"/>
<path d="M214.794 21.6551C214.195 22.9142 213.377 23.7482 212.597 24.5338C211.807 25.3138 210.987 26.0044 210.198 26.7012C209.411 27.3973 208.623 28.0733 207.913 28.7819C207.561 29.1362 207.227 29.4981 206.942 29.8655C206.662 30.2295 206.438 30.6199 206.385 30.9291L206.372 31.0061C206.311 31.359 205.975 31.5961 205.621 31.5358C205.314 31.4838 205.095 31.2259 205.08 30.9291C205.042 30.1748 205.294 29.5771 205.539 29.0391C205.795 28.5011 206.099 28.0206 206.414 27.5602C207.047 26.6415 207.724 25.7977 208.401 24.9768C209.077 24.1573 209.737 23.344 210.351 22.5502C210.954 21.7556 211.526 20.9617 211.809 20.2982C212.162 19.4669 213.125 19.0779 213.959 19.4302C214.794 19.7824 215.184 20.7419 214.831 21.5726C214.823 21.592 214.814 21.6107 214.806 21.6294L214.794 21.6551Z" fill="url(#paint39_linear)"/>
<path d="M208.416 71.8053C206.826 69.5644 204.38 68.1729 202.031 68.1729C200.904 68.1729 199.848 68.4967 198.977 69.1103C196.5 70.854 196.03 74.5426 197.702 77.761C196.211 78.0224 194.936 79.1865 194.139 80.2147C192.738 78.7019 190.74 77.7472 188.516 77.7472C184.295 77.7472 180.86 81.1688 180.86 85.3738C180.86 87.1023 181.447 88.6928 182.424 89.9727C180.812 91.661 177.658 95.8134 176.324 98.7656L176.492 98.8405C177.057 98.1201 177.822 97.5668 178.706 97.2611C180.19 94.8011 182.259 92.1824 183.366 90.9995C184.728 92.2378 186.533 93.0005 188.518 93.0005C192.74 93.0005 196.174 89.5789 196.174 85.3738C196.174 83.9026 195.747 82.5326 195.02 81.3671C195.657 80.4616 197.079 78.9279 198.567 79.1151C200.157 81.209 202.5 82.5069 204.76 82.5069C205.887 82.5069 206.943 82.1824 207.814 81.5688C210.581 79.6198 210.851 75.2401 208.416 71.8053ZM188.516 91.6131C185.062 91.6131 182.252 88.8135 182.252 85.3731C182.252 81.9328 185.063 79.1331 188.516 79.1331C191.97 79.1331 194.78 81.9328 194.78 85.3731C194.78 88.8135 191.971 91.6131 188.516 91.6131ZM207.01 80.4352C206.374 80.8824 205.596 81.1188 204.759 81.1188C202.855 81.1188 200.844 79.9513 199.511 78.0723C197.518 75.2622 197.639 71.7491 199.78 70.2425C200.424 69.7891 201.181 69.5596 202.03 69.5596C203.934 69.5596 205.945 70.7272 207.278 72.6061C209.272 75.4155 209.151 78.9279 207.01 80.4352Z" fill="url(#paint40_linear)"/>
<path d="M163.077 80.1301C163.061 80.1301 163.046 80.1301 163.03 80.1294C162.261 80.1038 161.659 79.4624 161.685 78.697C161.78 75.8765 162.608 71.8677 163.781 70.3098C164.243 69.6975 165.115 69.5734 165.73 70.0324C166.344 70.4921 166.469 71.3615 166.008 71.9738C165.386 72.7995 164.56 76.0242 164.468 78.7892C164.443 79.5394 163.824 80.1301 163.077 80.1301Z" fill="#FF57BC"/>
<path d="M198.565 79.1102C201.658 80.2757 208.752 84.7817 209.148 87.1467C209.438 88.88 204.044 90.6709 203.638 90.0933C203.231 89.5158 201.782 86.3958 199.926 83.7376C198.545 81.7595 197.1 80.3575 196.922 79.5262C197.205 79.3751 197.969 78.9854 198.565 79.1102Z" fill="url(#paint41_linear)"/>
<path d="M141.89 61.7949C139.297 44.3867 140.891 33.6338 141.114 29.86C141.462 23.9667 145.203 19.0558 146.856 14.6933C148.217 11.104 150.133 8.80001 148.857 7.93335C146.97 6.65207 143.55 11.1109 143.55 11.1109C143.55 11.1109 144.101 -0.502439 141.549 -0.386652C139.374 -0.288199 140.766 6.46001 139.548 6.80668C138.33 7.15335 136.271 0.480014 134.415 0.740014C133.41 0.880761 133.255 3.31089 133.255 3.31089C133.255 3.31089 132.715 2.85953 132.153 3.34001C131.341 4.03335 132.053 8.12332 131.37 9.75334C131.083 9.34982 130.865 9.05654 130.442 9.14668C127.179 9.84001 127.746 26.6852 127.252 30.4667C126.461 36.5229 125.846 48.528 126.599 62.9611C129.689 63.3071 135.437 63.5068 141.89 61.7949Z" fill="url(#paint42_linear)"/>
<path d="M251.525 51.6237C250.861 45.268 250.314 40.4909 250.212 38.9018C249.864 33.4709 249.632 28.9642 249.052 23.8793C248.471 18.7944 246.5 13.2484 246.152 11.3993C245.804 9.55017 246.452 7.03269 245.557 4.94228C244.803 3.17983 243.89 3.88772 243.89 3.88772C243.89 3.88772 243.828 1.37577 242.729 1.46105C241.424 1.56228 239.684 9.53562 238.785 9.66527C238.269 9.74015 238.901 0.565268 237.335 0.391935C236.211 0.267135 235.377 1.82228 234.29 6.84895C233.352 11.1864 234.731 18.8526 234.029 18.8526C233.246 18.8526 232.811 15.386 232.028 13.1326C231.245 10.8793 230.331 8.66894 229.157 8.79929C227.989 8.92894 227.792 11.6725 228.314 15.5725C228.729 18.6696 233.681 34.2793 235.769 41.386C236.583 44.1558 237.105 48.5606 237.368 53.5588C240.261 53.9679 245.478 54.0664 251.525 51.6237Z" fill="url(#paint43_linear)"/>
<path d="M131.271 9.30611C131.569 9.71725 131.777 10.2116 131.875 10.7268C131.923 10.9847 131.95 11.2481 131.951 11.5137C131.951 11.7841 131.937 12.0344 131.875 12.3283C131.836 12.5162 131.651 12.6376 131.461 12.598C131.273 12.5585 131.151 12.3741 131.19 12.1855C131.195 12.1654 131.201 12.1453 131.209 12.1266L131.212 12.1183C131.287 11.9359 131.349 11.6939 131.387 11.4707C131.427 11.2419 131.445 11.0082 131.442 10.7732C131.435 10.3031 131.333 9.83235 131.12 9.39209C131.099 9.34841 131.117 9.2971 131.161 9.2763C131.2 9.25758 131.248 9.27283 131.271 9.30611Z" fill="#C66C50"/>
<path d="M133.369 2.50247C133.269 3.41975 133.393 4.34327 133.555 5.25292C133.639 5.70844 133.739 6.16188 133.844 6.61601C133.947 7.07292 134.064 7.51803 134.152 8.00614C134.186 8.19472 134.06 8.375 133.871 8.40897C133.681 8.44294 133.5 8.31744 133.466 8.12886C133.464 8.11846 133.463 8.10875 133.462 8.09905L133.462 8.0928C133.423 7.65392 133.345 7.18315 133.281 6.72001C133.216 6.25478 133.156 5.7854 133.111 5.31463C133.028 4.37586 132.985 3.41212 133.171 2.47473C133.181 2.42065 133.233 2.3846 133.288 2.39431C133.339 2.40263 133.374 2.45117 133.369 2.50247Z" fill="#C66C50"/>
<path d="M140.128 4.90278C140.145 5.71329 140.099 6.5231 140.039 7.33084C140.008 7.73505 139.97 8.13858 139.927 8.5421C139.88 8.94909 139.838 9.3429 139.754 9.76999C139.717 9.95789 139.534 10.0813 139.345 10.0445C139.157 10.0078 139.033 9.82545 139.07 9.63756C139.072 9.62439 139.075 9.61191 139.08 9.59943L139.082 9.59111C139.194 9.23751 139.286 8.83676 139.375 8.45058C139.462 8.06023 139.544 7.6678 139.62 7.27468C139.77 6.48705 139.905 5.69526 139.978 4.89654C139.982 4.85494 140.018 4.82444 140.06 4.8286C140.098 4.83276 140.127 4.86465 140.128 4.90278Z" fill="#C66C50"/>
<path d="M144.585 9.8629C143.97 10.5022 143.578 11.3383 143.152 12.1294L141.921 14.5547C141.5 15.361 141.063 16.1632 140.552 16.9342C140.029 17.6899 139.478 18.4727 138.574 18.9899C138.408 19.0856 138.195 19.0281 138.099 18.8617C138.003 18.6953 138.061 18.4838 138.228 18.3881C138.233 18.3846 138.24 18.3812 138.246 18.3784L138.259 18.3722C138.971 18.022 139.567 17.3169 140.095 16.616C140.624 15.9004 141.096 15.1315 141.553 14.3536L142.905 11.9956C143.375 11.2218 143.805 10.403 144.486 9.76028C144.515 9.73324 144.56 9.73464 144.587 9.76307C144.614 9.7908 144.613 9.83378 144.587 9.86082L144.585 9.8629Z" fill="#C66C50"/>
<path d="M233.608 17.7232C233.792 18.2966 234.174 18.7736 234.601 19.2104C235.031 19.6451 235.509 20.0383 236 20.421C236.491 20.8051 236.997 21.1746 237.491 21.5816C237.738 21.7868 237.983 21.999 238.212 22.2486C238.432 22.5024 238.679 22.7811 238.755 23.2373C238.787 23.4266 238.658 23.6055 238.468 23.6367C238.278 23.6679 238.099 23.5403 238.068 23.351C238.066 23.3385 238.065 23.3267 238.063 23.315V23.3094C238.053 23.1368 237.905 22.8886 237.724 22.6715C237.542 22.4497 237.323 22.2375 237.098 22.0302C236.646 21.6156 236.158 21.2183 235.683 20.8037C235.206 20.3905 234.735 19.9613 234.308 19.4815C233.887 19.0052 233.491 18.4533 233.322 17.8168L233.319 17.8071C233.298 17.7267 233.346 17.6449 233.426 17.6234C233.504 17.6033 233.583 17.6476 233.608 17.7232Z" fill="#C66C50"/>
<path d="M244.096 3.45787C244.158 4.02849 244.152 4.5887 244.154 5.15029C244.152 5.71189 244.139 6.27211 244.123 6.83233C244.084 7.95552 244.043 9.06694 243.946 10.2019C243.93 10.3926 243.761 10.534 243.569 10.5181C243.378 10.5021 243.235 10.3337 243.251 10.143C243.252 10.1361 243.253 10.1284 243.254 10.1222L243.255 10.1132C243.418 9.02811 243.535 7.90907 243.644 6.80251C243.696 6.24785 243.745 5.69179 243.783 5.13712C243.817 4.58315 243.858 4.02364 243.833 3.47937C243.829 3.40727 243.885 3.34556 243.957 3.34071C244.027 3.33724 244.086 3.38993 244.096 3.45787Z" fill="#C66C50"/>
<path d="M231.071 191.667C229.505 178.667 230.488 160.957 235.769 147.293C239.655 137.24 251.139 119.329 253.691 102.747C255.407 91.5986 253.128 66.9922 251.524 51.6237C245.477 54.0657 240.259 53.9672 237.368 53.5595C237.78 61.3859 237.557 70.6703 236.813 77.44C235.595 88.5333 228.287 109.68 219.065 121.467C209.843 133.253 201.317 134.293 194.183 134.293C183.656 134.293 163.994 132.387 151.205 97.3733C146.116 83.4415 143.345 71.5723 141.889 61.7949C135.436 63.5068 129.689 63.3078 126.597 62.9611C127.223 74.9634 128.794 88.6436 132.006 101.996C136.063 118.855 143.49 136.2 150.45 149.258C156.731 161.041 160.005 181.328 166.69 198.254C170.946 209.028 176.674 224.98 187.143 235.679C188.212 220.323 208.337 204.955 231.071 191.667Z" fill="url(#paint44_linear)"/>
<path d="M130.515 84.8628C129.845 84.8628 129.198 84.8254 128.58 84.7484C128.294 84.713 128.091 84.4537 128.127 84.1688C128.162 83.8838 128.425 83.6807 128.709 83.7167C133.354 84.2915 139.717 82.5332 145.316 79.1317C145.563 78.982 145.884 79.0596 146.034 79.3051C146.184 79.5505 146.106 79.8701 145.86 80.0199C140.805 83.0914 135.117 84.8628 130.515 84.8628Z" fill="#FFA2BA"/>
<path d="M134.843 112.74C134.592 112.74 134.37 112.559 134.329 112.304C134.283 112.021 134.476 111.754 134.76 111.707C137.88 111.202 149.209 104.709 152.267 100.856C152.446 100.631 152.774 100.593 153 100.771C153.227 100.949 153.265 101.276 153.086 101.501C149.843 105.587 138.256 112.195 134.928 112.734C134.899 112.738 134.871 112.74 134.843 112.74Z" fill="#FFA2BA"/>
<path d="M142.485 133.206C142.231 133.206 142.008 133.02 141.969 132.763C141.927 132.478 142.123 132.213 142.409 132.171C145.702 131.681 159.343 121.662 161.379 117.688C161.51 117.432 161.826 117.33 162.082 117.461C162.339 117.592 162.441 117.905 162.309 118.161C160.125 122.424 146.101 132.674 142.563 133.2C142.537 133.203 142.511 133.206 142.485 133.206Z" fill="#FFA2BA"/>
<path d="M150.452 149.778C150.212 149.778 149.996 149.613 149.943 149.371C149.88 149.09 150.058 148.812 150.339 148.75C153.287 148.098 171.326 135.759 174.492 129.558C174.623 129.301 174.937 129.199 175.194 129.33C175.45 129.46 175.554 129.773 175.423 130.029C172.131 136.475 153.879 149.031 150.566 149.764C150.527 149.774 150.489 149.778 150.452 149.778Z" fill="#FFA2BA"/>
<path d="M244.623 78.0903C241.418 78.0903 238.348 77.7527 236.735 77.2812C236.459 77.2001 236.3 76.911 236.382 76.6357C236.463 76.3598 236.754 76.2031 237.03 76.2835C240.323 77.2479 249.796 77.5683 253.448 75.6741C253.702 75.5416 254.019 75.6408 254.151 75.8952C254.284 76.1497 254.185 76.4638 253.929 76.5962C251.835 77.682 248.147 78.0903 244.623 78.0903Z" fill="#FFA2BA"/>
<path d="M250.177 99.9303C243.329 99.9303 234.409 96.9566 232.117 95.8057C231.859 95.676 231.756 95.3633 231.885 95.1075C232.014 94.851 232.33 94.7483 232.586 94.8766C235.126 96.1523 246.014 99.732 252.74 98.7156C253.023 98.6747 253.291 98.8681 253.334 99.1517C253.377 99.4353 253.181 99.7008 252.897 99.7438C252.046 99.8728 251.131 99.9303 250.177 99.9303Z" fill="#FFA2BA"/>
<path d="M247.979 121.869C247.976 121.869 247.974 121.869 247.971 121.869C236.551 121.689 227.55 113.559 225.563 110.618C225.402 110.38 225.466 110.056 225.704 109.896C225.943 109.736 226.269 109.799 226.429 110.037C228.335 112.858 236.984 120.655 247.987 120.828C248.276 120.833 248.505 121.069 248.501 121.356C248.497 121.641 248.264 121.869 247.979 121.869Z" fill="#FFA2BA"/>
<path d="M237.09 144.698C237.074 144.698 237.057 144.697 237.04 144.695C227.112 143.748 213.043 132.562 211.514 128.871C211.404 128.606 211.531 128.302 211.798 128.193C212.065 128.083 212.369 128.21 212.479 128.475C213.904 131.914 227.739 142.763 237.139 143.66C237.427 143.688 237.637 143.942 237.609 144.227C237.584 144.496 237.356 144.698 237.09 144.698Z" fill="#FFA2BA"/>
<path d="M179.655 153.038C165.359 153.038 153.846 152.294 151.184 151.507C150.907 151.425 150.749 151.135 150.832 150.86C150.915 150.585 151.207 150.429 151.481 150.509C157.534 152.299 209.807 153.845 235.632 146.791C235.912 146.713 236.197 146.879 236.273 147.155C236.349 147.432 236.186 147.718 235.907 147.794C221.264 151.794 198.136 153.038 179.655 153.038Z" fill="#FFA2BA"/>
<path d="M159.932 177.733C159.747 177.733 159.567 177.634 159.472 177.46C159.335 177.208 159.429 176.892 159.683 176.755C169.48 171.461 197.136 161.701 231.675 162.667C231.964 162.675 232.191 162.914 232.183 163.202C232.175 163.49 231.94 163.736 231.646 163.707C197.327 162.755 169.892 172.422 160.18 177.67C160.101 177.713 160.016 177.733 159.932 177.733Z" fill="#FFA2BA"/>
<path d="M165.577 195.837C165.418 195.837 165.262 195.765 165.159 195.63C164.986 195.4 165.032 195.074 165.262 194.901C181.284 182.893 203.21 176.576 230.432 176.126C230.734 176.128 230.958 176.351 230.962 176.638C230.967 176.925 230.737 177.161 230.448 177.166C203.453 177.612 181.732 183.858 165.889 195.732C165.796 195.803 165.686 195.837 165.577 195.837Z" fill="#FFA2BA"/>
<path d="M172.584 213.229C172.463 213.229 172.341 213.186 172.242 213.101C172.024 212.912 172.001 212.584 172.19 212.367C174.15 210.12 204.435 189.841 230.613 186.977C230.9 186.934 231.158 187.152 231.19 187.437C231.221 187.722 231.014 187.979 230.727 188.01C206.066 190.709 175.4 210.273 172.978 213.049C172.876 213.168 172.731 213.229 172.584 213.229Z" fill="#FFA2BA"/>
<path d="M254.297 90.9011C244.35 98.0618 249.629 110.193 251.245 112.699C252.325 109.376 253.186 106.036 253.693 102.747C254.166 99.6669 254.334 95.5568 254.297 90.9011Z" fill="url(#paint45_linear)"/>
<path d="M130.018 92.5775C130.6 95.7176 131.254 98.866 132.008 101.996C132.825 105.397 133.787 108.815 134.847 112.217C143.256 104.883 137.347 93.2216 130.018 92.5775Z" fill="url(#paint46_linear)"/>
<path d="M271.035 215.237C271.035 215.237 223.416 236.848 228.636 240.084C233.856 243.32 247.837 247.565 259.144 251.524C271.927 256 283.62 261.578 283.62 261.578C283.62 261.578 275.355 269.58 267.38 279.027C266.741 279.784 266.069 280.616 265.375 281.504C268.104 285.407 274.98 292.123 285.066 294.467C297.194 286.169 317.722 271.393 318.942 259.093C320.61 242.272 274.786 216.889 271.035 215.237Z" fill="url(#paint47_linear)"/>
<path d="M340.928 201.341C327.874 188.362 309.54 174.209 289.71 173.813C263.668 173.293 237.568 188.893 231.072 191.667C208.337 204.955 188.212 220.323 187.145 235.679C193.975 242.66 202.823 247.407 214.6 247.018C253.112 245.747 265.176 212.12 292.436 211.889C303.308 211.797 314.109 215.865 323.657 220.746C327.407 217.911 335.92 208.252 340.928 201.341Z" fill="url(#paint48_linear)"/>
<path d="M213.757 235.013C200.005 235.013 191.455 226.354 190.439 225.269C190.242 225.059 190.254 224.73 190.465 224.534C190.675 224.337 191.005 224.349 191.202 224.559C192.288 225.718 202.267 235.82 218.127 233.676C226.331 232.568 234.416 227.106 243.779 220.782C256.622 212.107 271.179 202.275 290.094 201.431C313.318 200.392 328.216 211.362 328.363 211.473C328.593 211.646 328.639 211.972 328.465 212.201C328.291 212.43 327.964 212.476 327.735 212.303C327.589 212.195 312.976 201.456 290.139 202.469C271.519 203.299 257.092 213.044 244.364 221.642C234.892 228.04 226.712 233.564 218.266 234.705C216.707 234.917 215.203 235.013 213.757 235.013Z" fill="#00E2EC"/>
<path d="M204.314 233.575C204.143 233.575 203.976 233.492 203.876 233.339C203.719 233.097 203.787 232.775 204.029 232.619C205.415 231.721 206.297 229.455 206.581 226.066C207.112 219.731 205.365 211.467 204.049 210.262C203.837 210.068 203.823 209.738 204.019 209.527C204.214 209.316 204.544 209.302 204.756 209.496C206.411 211.013 208.164 219.688 207.622 226.152C207.306 229.926 206.288 232.396 204.599 233.491C204.51 233.548 204.411 233.575 204.314 233.575Z" fill="#00E2EC"/>
<path d="M379.436 223.329C378.277 221.942 364.095 224.427 360.354 222.693C358.93 222.034 351.739 212.09 340.928 201.341C335.92 208.252 327.407 217.91 323.658 220.746C337.63 227.888 348.921 236.769 353.833 236.911C362.703 237.167 380.596 224.716 379.436 223.329Z" fill="url(#paint49_linear)"/>
<path d="M320.409 219.665C320.227 219.665 320.05 219.57 319.954 219.401C319.813 219.151 319.901 218.834 320.152 218.692C322.496 217.373 334.404 205.707 337.216 198.043C337.314 197.773 337.615 197.635 337.885 197.734C338.156 197.833 338.295 198.131 338.195 198.401C335.25 206.433 323.154 218.197 320.665 219.598C320.585 219.643 320.496 219.665 320.409 219.665Z" fill="#00E2EC"/>
<path d="M292.32 183.924C298.98 183.846 303.741 179.719 306.089 177.114C300.806 175.139 295.318 173.925 289.71 173.813C285.013 173.72 280.315 174.156 275.729 174.941C278.223 178.802 284.122 184.021 292.32 183.924Z" fill="url(#paint50_linear)"/>
<path d="M372.186 219.313C370.691 219.785 367.94 228.117 372.499 234.462C373.794 233.221 378.542 228.474 379.947 226.86C381.352 225.247 386.193 218.62 386.537 218.045C386.881 217.47 378.233 217.407 372.186 219.313Z" fill="url(#paint51_linear)"/>
<path d="M361.747 245.227C361.313 245.227 360.885 245.025 360.613 244.646C360.166 244.023 360.311 243.157 360.937 242.711C362.272 241.761 379.272 227.761 384.724 218.278C385.106 217.614 385.957 217.382 386.624 217.764C387.291 218.144 387.522 218.992 387.139 219.656C381.356 229.715 363.991 243.946 362.555 244.969C362.31 245.143 362.027 245.227 361.747 245.227Z" fill="url(#paint52_linear)"/>
<path d="M137.847 164.238L137.885 164.215C138.217 164.002 138.313 163.561 138.1 163.232C137.968 163.028 137.743 162.906 137.499 162.906C137.363 162.906 137.229 162.945 137.113 163.019C135.373 164.136 133.56 165.197 131.806 166.222C131.197 166.578 130.587 166.935 129.977 167.295C127.163 168.933 124.934 170.382 122.959 171.859C120.682 173.609 118.479 175.399 116.626 177.973C115.568 179.476 114.872 180.962 114.504 182.506C114.008 184.484 114.239 186.618 114.42 187.716L114.459 187.961C114.495 188.169 114.555 188.38 114.637 188.585C115.112 189.768 116.245 190.532 117.523 190.532C117.918 190.532 118.305 190.458 118.676 190.31C120.266 189.677 121.043 187.871 120.407 186.286C120 185.275 119.748 184.441 119.743 183.416C119.734 182.479 120 181.407 120.512 180.316C121.405 178.407 122.924 176.355 125.028 174.218C126.7 172.508 128.665 170.749 131.035 168.843C133.403 166.974 135.63 165.47 137.847 164.238Z" fill="url(#paint53_linear)"/>
<path d="M131.314 153.469C131.316 152.878 131.151 152.414 130.825 152.088C130.39 151.654 129.641 151.424 128.658 151.424C126.36 151.424 123.161 152.653 120.101 154.715C116.209 157.336 113.533 159.734 112.289 161.137C112.339 161.108 112.388 161.079 112.437 161.05C114.101 160.064 116.615 158.575 119.707 157.759C121.468 157.295 123.273 157.038 124.864 156.813C128.979 156.228 131.307 155.785 131.314 153.469Z" fill="url(#paint54_linear)"/>
</g>
<defs>
<filter id="filter0_d" x="-45" y="-170" width="612" height="714" filterUnits="userSpaceOnUse" color-interpolation-filters="sRGB">
<feFlood flood-opacity="0" result="BackgroundImageFix"/>
<feColorMatrix in="SourceAlpha" type="matrix" values="0 0 0 0 0 0 0 0 0 0 0 0 0 0 0 0 0 0 127 0"/>
<feOffset dy="4"/>
<feGaussianBlur stdDeviation="22.5"/>
<feColorMatrix type="matrix" values="0 0 0 0 0.956863 0 0 0 0 0.356863 0 0 0 0 0.411765 0 0 0 1 0"/>
<feBlend mode="normal" in2="BackgroundImageFix" result="effect1_dropShadow"/>
<feBlend mode="normal" in="SourceGraphic" in2="effect1_dropShadow" result="shape"/>
</filter>
<linearGradient id="paint0_linear" x1="288.171" y1="429.335" x2="288.171" y2="-103.828" gradientUnits="userSpaceOnUse">
<stop stop-color="#C7A0F6"/>
<stop offset="1" stop-color="#8CE6FD"/>
</linearGradient>
<linearGradient id="paint1_linear" x1="54.3459" y1="80.6748" x2="112.458" y2="80.6748" gradientUnits="userSpaceOnUse">
<stop stop-color="#B0E1FF"/>
<stop offset="1" stop-color="white"/>
</linearGradient>
<linearGradient id="paint2_linear" x1="306.247" y1="-36.9726" x2="311.127" y2="-36.9726" gradientUnits="userSpaceOnUse">
<stop stop-color="white"/>
<stop offset="1" stop-color="#B0E1FF"/>
</linearGradient>
<linearGradient id="paint3_linear" x1="300.79" y1="30.121" x2="395.695" y2="30.121" gradientUnits="userSpaceOnUse">
<stop stop-color="white"/>
<stop offset="1" stop-color="#B0E1FF"/>
</linearGradient>
<linearGradient id="paint4_linear" x1="62.7432" y1="87.9421" x2="106.486" y2="87.9421" gradientUnits="userSpaceOnUse">
<stop stop-color="#00E2EC"/>
<stop offset="1" stop-color="#0090B2"/>
</linearGradient>
<linearGradient id="paint5_linear" x1="54.3443" y1="80.6749" x2="106.486" y2="80.6749" gradientUnits="userSpaceOnUse">
<stop stop-color="#8C6AE2"/>
<stop offset="1" stop-color="#5A55F8"/>
</linearGradient>
<linearGradient id="paint6_linear" x1="79.1964" y1="91.5667" x2="95.6342" y2="91.5667" gradientUnits="userSpaceOnUse">
<stop stop-color="#C07EB0"/>
<stop offset="1" stop-color="#EE5C95"/>
</linearGradient>
<linearGradient id="paint7_linear" x1="100.136" y1="222.943" x2="114.271" y2="222.943" gradientUnits="userSpaceOnUse">
<stop stop-color="#FDE1A7"/>
<stop offset="1" stop-color="#F9A144"/>
</linearGradient>
<linearGradient id="paint8_linear" x1="105.797" y1="283.237" x2="139.94" y2="283.237" gradientUnits="userSpaceOnUse">
<stop stop-color="#5A55F8"/>
<stop offset="1" stop-color="#8C6AE2"/>
</linearGradient>
<linearGradient id="paint9_linear" x1="359.684" y1="178.667" x2="359.684" y2="157.693" gradientUnits="userSpaceOnUse">
<stop stop-color="white"/>
<stop offset="1" stop-color="#E9B6F2"/>
</linearGradient>
<linearGradient id="paint10_linear" x1="289.768" y1="118.52" x2="425.488" y2="118.52" gradientUnits="userSpaceOnUse">
<stop stop-color="white"/>
<stop offset="1" stop-color="#F1D1F8"/>
</linearGradient>
<linearGradient id="paint11_linear" x1="295.104" y1="116.902" x2="418.064" y2="116.902" gradientUnits="userSpaceOnUse">
<stop stop-color="#00E2EC"/>
<stop offset="1" stop-color="#0090B2"/>
</linearGradient>
<linearGradient id="paint12_linear" x1="336.488" y1="95.6461" x2="410.961" y2="95.6461" gradientUnits="userSpaceOnUse">
<stop stop-color="#FDE1A7"/>
<stop offset="1" stop-color="#F9A144"/>
</linearGradient>
<linearGradient id="paint13_linear" x1="288.729" y1="116.852" x2="381.988" y2="116.852" gradientUnits="userSpaceOnUse">
<stop stop-color="#7523AF"/>
<stop offset="0.123" stop-color="#6D2EB2"/>
<stop offset="0.3398" stop-color="#594CBA"/>
<stop offset="0.625" stop-color="#387CC7"/>
<stop offset="0.9644" stop-color="#0ABED8"/>
<stop offset="1" stop-color="#05C5DA"/>
</linearGradient>
<linearGradient id="paint14_linear" x1="374.956" y1="130.769" x2="374.956" y2="94.7265" gradientUnits="userSpaceOnUse">
<stop stop-color="#170389"/>
<stop offset="0.4221" stop-color="#3B0E9F"/>
<stop offset="0.7767" stop-color="#5215AD"/>
<stop offset="1" stop-color="#5A18B2"/>
</linearGradient>
<linearGradient id="paint15_linear" x1="276.536" y1="100.333" x2="297.944" y2="100.333" gradientUnits="userSpaceOnUse">
<stop stop-color="#170389"/>
<stop offset="0.0772" stop-color="#1C058C"/>
<stop offset="1" stop-color="#5A18B2"/>
</linearGradient>
<linearGradient id="paint16_linear" x1="325.89" y1="125.684" x2="355.318" y2="125.684" gradientUnits="userSpaceOnUse">
<stop stop-color="#170389"/>
<stop offset="0.0772" stop-color="#1C058C"/>
<stop offset="1" stop-color="#5A18B2"/>
</linearGradient>
<linearGradient id="paint17_linear" x1="271.783" y1="104.756" x2="287.971" y2="104.756" gradientUnits="userSpaceOnUse">
<stop stop-color="#170389"/>
<stop offset="0.0772" stop-color="#1C058C"/>
<stop offset="1" stop-color="#5A18B2"/>
</linearGradient>
<linearGradient id="paint18_linear" x1="278.399" y1="104.654" x2="287.971" y2="104.654" gradientUnits="userSpaceOnUse">
<stop stop-color="#F6E2FB"/>
<stop offset="1" stop-color="#FF9BBB"/>
</linearGradient>
<linearGradient id="paint19_linear" x1="282.014" y1="83.8256" x2="291.466" y2="83.8256" gradientUnits="userSpaceOnUse">
<stop stop-color="#F6E2FB"/>
<stop offset="1" stop-color="#FF9BBB"/>
</linearGradient>
<linearGradient id="paint20_linear" x1="279.096" y1="115.586" x2="309.184" y2="115.586" gradientUnits="userSpaceOnUse">
<stop stop-color="#FF9BBB"/>
<stop offset="1" stop-color="#F6E2FB"/>
</linearGradient>
<linearGradient id="paint21_linear" x1="377.124" y1="117.917" x2="396.407" y2="137.274" gradientUnits="userSpaceOnUse">
<stop stop-color="#FDE1A7"/>
<stop offset="1" stop-color="#F9A144"/>
</linearGradient>
<linearGradient id="paint22_linear" x1="376.312" y1="128.013" x2="395.611" y2="128.013" gradientUnits="userSpaceOnUse">
<stop stop-color="#C91C91"/>
<stop offset="1" stop-color="#FE6A77"/>
</linearGradient>
<linearGradient id="paint23_linear" x1="440.8" y1="163.972" x2="457.62" y2="163.972" gradientUnits="userSpaceOnUse">
<stop stop-color="#FF57BD"/>
<stop offset="1" stop-color="#FE6A77"/>
</linearGradient>
<linearGradient id="paint24_linear" x1="420.152" y1="165.649" x2="449.761" y2="165.649" gradientUnits="userSpaceOnUse">
<stop stop-color="#C07EB0"/>
<stop offset="1" stop-color="#EE5C95"/>
</linearGradient>
<linearGradient id="paint25_linear" x1="428.966" y1="144.169" x2="440.936" y2="156.185" gradientUnits="userSpaceOnUse">
<stop stop-color="#994574"/>
<stop offset="1" stop-color="#43256F"/>
</linearGradient>
<linearGradient id="paint26_linear" x1="429.663" y1="133.493" x2="454.086" y2="133.493" gradientUnits="userSpaceOnUse">
<stop stop-color="white"/>
<stop offset="1" stop-color="#FDE1A7"/>
</linearGradient>
<linearGradient id="paint27_linear" x1="413.724" y1="122.095" x2="426.132" y2="122.095" gradientUnits="userSpaceOnUse">
<stop stop-color="white"/>
<stop offset="1" stop-color="#FDE1A7"/>
</linearGradient>
<linearGradient id="paint28_linear" x1="409.788" y1="135.979" x2="420.007" y2="135.979" gradientUnits="userSpaceOnUse">
<stop stop-color="white"/>
<stop offset="1" stop-color="#FDE1A7"/>
</linearGradient>
<linearGradient id="paint29_linear" x1="432.16" y1="201.836" x2="432.16" y2="183.232" gradientUnits="userSpaceOnUse">
<stop stop-color="#FFE2A8"/>
<stop offset="1" stop-color="#A482FF"/>
</linearGradient>
<linearGradient id="paint30_linear" x1="307.835" y1="183.156" x2="495.785" y2="183.156" gradientUnits="userSpaceOnUse">
<stop stop-color="#F9A144"/>
<stop offset="1" stop-color="#FDE1A7"/>
</linearGradient>
<linearGradient id="paint31_linear" x1="129.818" y1="194.022" x2="189.965" y2="194.022" gradientUnits="userSpaceOnUse">
<stop stop-color="#994574"/>
<stop offset="1" stop-color="#43256F"/>
</linearGradient>
<linearGradient id="paint32_linear" x1="129.596" y1="202.661" x2="173.286" y2="202.661" gradientUnits="userSpaceOnUse">
<stop stop-color="#8173CC"/>
<stop offset="1" stop-color="#271068"/>
</linearGradient>
<linearGradient id="paint33_linear" x1="193.575" y1="139.53" x2="193.575" y2="102.371" gradientUnits="userSpaceOnUse">
<stop stop-color="#E8878E"/>
<stop offset="0.2186" stop-color="#E58589"/>
<stop offset="0.4692" stop-color="#DE7F7B"/>
<stop offset="0.7347" stop-color="#D27565"/>
<stop offset="1" stop-color="#C16846"/>
</linearGradient>
<linearGradient id="paint34_linear" x1="167.27" y1="87.2726" x2="213.642" y2="87.2726" gradientUnits="userSpaceOnUse">
<stop stop-color="#E8878E"/>
<stop offset="1" stop-color="#F4BEA3"/>
</linearGradient>
<linearGradient id="paint35_linear" x1="151.361" y1="73.4933" x2="208.644" y2="73.4933" gradientUnits="userSpaceOnUse">
<stop stop-color="#994574"/>
<stop offset="1" stop-color="#43256F"/>
</linearGradient>
<linearGradient id="paint36_linear" x1="183.925" y1="31.4065" x2="183.925" y2="-6.00849" gradientUnits="userSpaceOnUse">
<stop stop-color="#FDE1A7"/>
<stop offset="1" stop-color="white"/>
</linearGradient>
<linearGradient id="paint37_linear" x1="165.463" y1="34.478" x2="165.463" y2="9.56074" gradientUnits="userSpaceOnUse">
<stop stop-color="#FDE1A7"/>
<stop offset="1" stop-color="white"/>
</linearGradient>
<linearGradient id="paint38_linear" x1="200.645" y1="29.2672" x2="200.645" y2="1.49019" gradientUnits="userSpaceOnUse">
<stop stop-color="#FDE1A7"/>
<stop offset="1" stop-color="white"/>
</linearGradient>
<linearGradient id="paint39_linear" x1="210.02" y1="31.5456" x2="210.02" y2="19.3002" gradientUnits="userSpaceOnUse">
<stop stop-color="#FDE1A7"/>
<stop offset="1" stop-color="white"/>
</linearGradient>
<linearGradient id="paint40_linear" x1="176.324" y1="83.506" x2="210.08" y2="83.506" gradientUnits="userSpaceOnUse">
<stop stop-color="#5A55F8"/>
<stop offset="1" stop-color="#8C6AE2"/>
</linearGradient>
<linearGradient id="paint41_linear" x1="196.922" y1="84.6448" x2="209.159" y2="84.6448" gradientUnits="userSpaceOnUse">
<stop stop-color="#FF57BD"/>
<stop offset="1" stop-color="#FE6A77"/>
</linearGradient>
<linearGradient id="paint42_linear" x1="126.256" y1="31.4038" x2="149.276" y2="31.4038" gradientUnits="userSpaceOnUse">
<stop stop-color="#E8878E"/>
<stop offset="1" stop-color="#F4BEA3"/>
</linearGradient>
<linearGradient id="paint43_linear" x1="228.041" y1="27.0846" x2="251.525" y2="27.0846" gradientUnits="userSpaceOnUse">
<stop stop-color="#E8878E"/>
<stop offset="1" stop-color="#F4BEA3"/>
</linearGradient>
<linearGradient id="paint44_linear" x1="126.597" y1="143.651" x2="254.302" y2="143.651" gradientUnits="userSpaceOnUse">
<stop stop-color="#FE6A77"/>
<stop offset="1" stop-color="#C91C91"/>
</linearGradient>
<linearGradient id="paint45_linear" x1="248.396" y1="101.8" x2="254.302" y2="101.8" gradientUnits="userSpaceOnUse">
<stop stop-color="#F9A144"/>
<stop offset="1" stop-color="#FDE1A7"/>
</linearGradient>
<linearGradient id="paint46_linear" x1="131.776" y1="102.512" x2="138.726" y2="101.282" gradientUnits="userSpaceOnUse">
<stop stop-color="#FDE1A7"/>
<stop offset="1" stop-color="#F9A144"/>
</linearGradient>
<linearGradient id="paint47_linear" x1="228.236" y1="254.852" x2="318.986" y2="254.852" gradientUnits="userSpaceOnUse">
<stop stop-color="#00E2EC"/>
<stop offset="0.2998" stop-color="#20B5DF"/>
<stop offset="1" stop-color="#6A4EC2"/>
</linearGradient>
<linearGradient id="paint48_linear" x1="187.145" y1="210.421" x2="340.928" y2="210.421" gradientUnits="userSpaceOnUse">
<stop stop-color="#05C5DA"/>
<stop offset="0.0356" stop-color="#0ABED8"/>
<stop offset="0.375" stop-color="#387CC7"/>
<stop offset="0.6602" stop-color="#594CBA"/>
<stop offset="0.877" stop-color="#6D2EB2"/>
<stop offset="1" stop-color="#7523AF"/>
</linearGradient>
<linearGradient id="paint49_linear" x1="323.658" y1="219.128" x2="379.49" y2="219.128" gradientUnits="userSpaceOnUse">
<stop stop-color="#E8878E"/>
<stop offset="0.2186" stop-color="#E58589"/>
<stop offset="0.4692" stop-color="#DE7F7B"/>
<stop offset="0.7347" stop-color="#D27565"/>
<stop offset="1" stop-color="#C16846"/>
</linearGradient>
<linearGradient id="paint50_linear" x1="290.909" y1="183.926" x2="290.909" y2="173.801" gradientUnits="userSpaceOnUse">
<stop stop-color="#170389"/>
<stop offset="0.0772" stop-color="#1C058C"/>
<stop offset="1" stop-color="#5A18B2"/>
</linearGradient>
<linearGradient id="paint51_linear" x1="369.988" y1="226.076" x2="386.547" y2="226.076" gradientUnits="userSpaceOnUse">
<stop stop-color="#FE6A77"/>
<stop offset="1" stop-color="#C91C91"/>
</linearGradient>
<linearGradient id="paint52_linear" x1="360.354" y1="231.403" x2="387.324" y2="231.403" gradientUnits="userSpaceOnUse">
<stop stop-color="#43256F"/>
<stop offset="1" stop-color="#994574"/>
</linearGradient>
<linearGradient id="paint53_linear" x1="114.203" y1="176.719" x2="138.213" y2="176.719" gradientUnits="userSpaceOnUse">
<stop stop-color="white"/>
<stop offset="0.4533" stop-color="#FEEFD0"/>
<stop offset="0.8021" stop-color="#FDE5B2"/>
<stop offset="1" stop-color="#FDE1A7"/>
</linearGradient>
<linearGradient id="paint54_linear" x1="112.289" y1="156.281" x2="131.314" y2="156.281" gradientUnits="userSpaceOnUse">
<stop stop-color="white"/>
<stop offset="1" stop-color="#FDE1A7"/>
</linearGradient>
</defs>
</svg>
