<svg width="206" height="198" viewBox="0 0 206 198" fill="none" xmlns="http://www.w3.org/2000/svg">
<path d="M141.223 109.614C145.094 109.579 156.881 109.128 165.378 100.323C176.394 88.9089 172.545 67.1421 172.545 67.1421C172.545 67.1421 176.535 66.9828 178.12 70.4602C180.178 74.9728 177.456 83.2018 179.182 84.1308C182.059 85.68 182.765 78.9546 185.022 80.0164C187.278 81.0782 186.973 86.2523 186.482 90.8998C186.016 95.2882 182.964 99.4217 184.026 100.788C185.42 102.581 188.738 98.0669 189.8 100.19C190.861 102.314 187.012 106.429 183.627 108.619C180.684 110.524 175.597 112.269 175.73 113.331C175.863 114.393 180.641 114.393 179.844 116.517C179.048 118.64 173.075 117.844 169.492 117.844C165.908 117.844 160.467 117.711 157.547 120.1C154.627 122.489 141.223 109.614 141.223 109.614Z" fill="url(#paint0_linear)"/>
<path d="M155.115 89.0862C154.949 89.0862 154.784 89.0087 154.681 88.8622C154.512 88.6233 154.568 88.292 154.807 88.1222C154.875 88.0733 161.627 83.2188 161.31 78.1476C161.105 74.8762 159.317 73.2113 157.247 71.2831C155.903 70.0302 154.513 68.7359 153.42 66.8809C149.093 59.5439 153.718 53.9238 155.867 52.3768C156.103 52.2058 156.435 52.2589 156.607 52.4978C156.779 52.7357 156.725 53.067 156.487 53.239C154.559 54.6278 150.41 59.6905 154.335 66.3415C155.351 68.0638 156.684 69.305 157.973 70.5059C160.116 72.5021 162.14 74.3878 162.372 78.0807C162.726 83.7433 155.722 88.7762 155.423 88.9875C155.328 89.0544 155.221 89.0862 155.115 89.0862Z" fill="#E8878E"/>
<path d="M146.974 75.4591C146.867 75.4591 146.76 75.4272 146.666 75.3614C143.05 72.7908 142.044 69.324 141.838 66.8691C141.547 63.4034 142.706 60.218 143.944 58.98C144.151 58.7729 144.488 58.7729 144.695 58.98C144.902 59.187 144.902 59.5236 144.695 59.7307C143.611 60.8148 142.641 63.7485 142.896 66.7799C143.084 69.0118 143.997 72.1611 147.282 74.496C147.521 74.6659 147.576 74.9972 147.406 75.2361C147.304 75.3815 147.14 75.4591 146.974 75.4591Z" fill="#E8878E"/>
<path d="M188.208 115.454C188.192 115.454 188.178 115.454 188.162 115.452C187.871 115.427 187.654 115.17 187.678 114.878C187.839 112.94 190.239 111.99 194.595 110.268C195.922 109.744 197.442 109.142 199.149 108.417C201.555 107.395 203.092 105.971 203.719 104.186C204.599 101.678 203.48 99.1544 202.958 98.186C202.819 97.928 202.916 97.6063 203.174 97.4661C203.431 97.3281 203.754 97.4236 203.894 97.6816C204.482 98.7742 205.74 101.63 204.721 104.538C203.99 106.617 202.257 108.251 199.564 109.394C197.849 110.124 196.32 110.728 194.984 111.256C191.155 112.77 188.843 113.684 188.736 114.967C188.713 115.245 188.481 115.454 188.208 115.454Z" fill="#E8878E"/>
<path d="M92.3896 47.9948L93.2348 48.0585C93.6128 48.1052 94.045 48.1508 94.3784 48.2135C95.0685 48.3303 95.7523 48.4757 96.418 48.6658C97.7538 49.0374 99.0332 49.5428 100.242 50.1523C102.66 51.3734 104.796 53.0033 106.626 54.8752C110.282 58.6308 112.755 63.3451 113.981 68.3122C115.179 73.1763 115.421 78.1986 114.649 83.2081C113.851 88.189 112.072 93.2347 108.5 97.6433L99.888 90.2606C101.923 88.0648 103.431 84.8019 104.159 81.3224C104.903 77.8376 104.933 74.0629 104.253 70.5048C103.607 67.0582 102.08 63.7847 99.8455 61.2205C98.7296 59.9431 97.4374 58.8537 96.0443 58.05C95.3488 57.6486 94.6279 57.3173 93.8974 57.0678C93.5321 56.9383 93.1647 56.8406 92.7963 56.7546L92.3408 56.6569C92.1507 56.6229 91.8268 56.591 91.5762 56.5581L92.3896 47.9948Z" fill="url(#paint1_linear)"/>
<path d="M100.627 62.8864C100.364 62.8864 100.134 62.69 100.101 62.4214C100.065 62.1304 100.271 61.865 100.562 61.8289C102.396 61.5985 105.685 60.5123 107.13 55.8159C107.215 55.5356 107.515 55.3774 107.793 55.4645C108.074 55.5505 108.23 55.8478 108.144 56.1281C106.526 61.3946 102.782 62.621 100.695 62.8822C100.671 62.8854 100.649 62.8864 100.627 62.8864Z" fill="#FFA2BA"/>
<path d="M108.134 74.3774C106.727 74.3774 105.418 74.1491 104.487 73.8741C104.205 73.7913 104.045 73.4961 104.128 73.2147C104.21 72.9334 104.503 72.7709 104.787 72.8559C107.103 73.5375 112.026 73.9453 114.068 70.6038C114.22 70.3532 114.545 70.2735 114.799 70.4275C115.048 70.5804 115.128 70.9075 114.975 71.158C113.454 73.6511 110.64 74.3774 108.134 74.3774Z" fill="#FFA2BA"/>
<path d="M110.843 86.6845C106.456 86.6845 104.08 84.4144 103.16 83.2676C102.976 83.0383 103.012 82.7049 103.242 82.5212C103.47 82.3396 103.804 82.3747 103.987 82.603C104.998 83.8633 108 86.6409 114.032 85.2319C114.327 85.165 114.603 85.3434 114.671 85.628C114.738 85.9136 114.561 86.1992 114.275 86.2661C113.015 86.5592 111.873 86.6845 110.843 86.6845Z" fill="#FFA2BA"/>
<path d="M135.617 174.215C135.11 173.234 134.662 172.203 134.321 171.11C132.119 164.027 132.904 157.218 132.904 157.218C132.904 157.218 123.436 154.21 115.916 152.617C108.395 151.025 98.3271 148.879 98.3271 148.879C98.5735 155.715 102.91 169.694 112.111 178.454C116.027 182.183 119.575 184.64 122.697 186.329C126.626 186.325 132.994 181.35 135.617 174.215Z" fill="url(#paint2_linear)"/>
<path d="M143.7 197.389C146.597 196.68 145.027 187.39 144.142 185.266C143.392 183.463 138.468 179.738 135.617 174.215C132.993 181.349 126.626 186.325 122.697 186.328C129.33 189.915 134.041 190.019 136.267 191.371C138.31 192.614 140.594 198.148 143.7 197.389Z" fill="url(#paint3_linear)"/>
<path d="M45.2183 100.146C41.0571 102.564 38.2922 103.912 31.3268 104.127C30.9519 104.139 30.5676 104.143 30.1768 104.144C31.262 107.735 31.4138 113.856 29.5706 118.413C35.9106 121.036 42.5096 122.086 48.8443 121.32C52.4799 117.297 49.1788 104.703 45.2183 100.146Z" fill="url(#paint4_linear)"/>
<path d="M30.1767 104.145C24.614 104.145 17.603 103.056 14.6915 103.154C10.0908 103.309 7.36942 105.1 5.37855 107.158C3.6765 108.917 3.23268 112.423 5.17895 113.662C7.61577 115.212 13.7178 112.976 17.0795 112.533C20.4411 112.09 23.0967 115.718 29.4675 118.373C29.5004 118.387 29.5343 118.397 29.5694 118.412C31.4137 113.856 31.2619 107.736 30.1767 104.145Z" fill="url(#paint5_linear)"/>
<path d="M134.985 124.346C143.766 114.244 156.529 117.391 158.981 119.815C158.841 119.66 158.708 119.498 158.565 119.346C148.126 108.289 133.348 105.277 118.482 97.7566C105.751 91.3157 92.292 82.3605 88.3983 78.158C88.3983 78.158 81.674 87.5814 65.7757 94.4374C54.9825 99.0912 40.883 97.5357 40.883 97.5357C40.883 97.5357 42.137 109.375 46.9883 118.373C54.2882 131.911 79.1076 145.98 100.742 152.882C115.867 157.707 126.102 159.062 136.843 160.182C134.454 155.802 126.06 134.614 134.985 124.346Z" fill="url(#paint6_linear)"/>
<path d="M134.421 125.587C134.398 125.587 134.377 125.586 134.355 125.583C98.6583 121.211 79.4886 94.0606 77.193 88.896C77.0741 88.6285 77.1951 88.3142 77.4627 88.1953C77.7313 88.0785 78.0446 88.1963 78.1635 88.465C80.4188 93.5393 99.2805 120.218 134.483 124.53C134.774 124.565 134.982 124.83 134.946 125.121C134.913 125.39 134.685 125.587 134.421 125.587Z" fill="#00E2EC"/>
<path d="M172.625 165.355C169.863 157.086 170.236 132.355 158.98 119.817C156.528 117.392 143.765 114.245 134.984 124.348C126.059 134.615 134.453 155.803 136.842 160.183C142.581 169.233 148.946 175.094 154.737 179.098C159.186 178.276 169.962 171.898 172.625 165.355Z" fill="url(#paint7_linear)"/>
<path d="M176.66 194.823C181.132 194.63 180.486 183.538 179.712 178.764C178.916 173.853 174.671 170.701 172.811 165.889C172.746 165.723 172.686 165.537 172.625 165.355C169.962 171.898 159.186 178.276 154.738 179.098C160.865 183.335 166.348 185.492 169.758 187.126C171.472 187.946 172.545 195.001 176.66 194.823Z" fill="url(#paint8_linear)"/>
<path d="M166.309 173.423C166.174 173.423 166.039 173.372 165.935 173.269C144.029 151.598 146.042 131.472 146.8 123.895C146.829 123.603 147.093 123.396 147.381 123.42C147.672 123.448 147.887 123.708 147.856 124C147.113 131.439 145.135 151.2 166.681 172.514C166.89 172.72 166.892 173.056 166.686 173.264C166.583 173.371 166.446 173.423 166.309 173.423Z" fill="#00E2EC"/>
<path d="M102.069 100.19C98.4418 96.4986 90.3891 93.9524 83.0893 97.0051C73.3027 101.097 64.6364 113.895 58.462 121.058C61.9798 121.849 66.7939 124.106 68.8878 127.996C70.3414 130.695 70.867 133.569 71.0411 135.71C81.555 133.763 93.5257 129.079 100.343 122.488C109.366 113.767 105.785 103.974 102.069 100.19Z" fill="url(#paint9_linear)"/>
<path d="M58.462 121.058C57.0721 122.67 55.8085 123.999 54.6862 124.877C48.0086 130.104 41.71 133.794 39.0247 136.557C36.7015 138.946 34.5121 142.662 36.7684 144.786C39.8497 147.687 44.2679 145.118 49.2445 140.804C53.2263 137.353 55.3095 137.538 65.8924 136.464C67.5457 136.296 69.2764 136.037 71.0421 135.711C70.868 133.57 70.3424 130.696 68.8888 127.997C66.7928 124.106 61.9797 121.849 58.462 121.058Z" fill="url(#paint10_linear)"/>
<path d="M68.8877 128.528C68.6679 128.528 68.4629 128.391 68.3854 128.171C68.2898 127.894 68.4364 127.591 68.7135 127.495C82.9299 122.561 99.3378 104.766 101.588 99.9653C101.713 99.6998 102.03 99.5852 102.294 99.7104C102.559 99.8347 102.674 100.151 102.55 100.417C100.18 105.471 83.7974 123.384 69.0618 128.498C69.0034 128.518 68.9461 128.528 68.8877 128.528Z" fill="#00E2EC"/>
<path d="M22.309 70.0494C24.5579 69.9953 34.6449 67.0753 36.3703 64.0896C38.0957 61.1038 42.2102 63.8899 42.2102 63.8899C42.2102 63.8899 42.6752 72.053 33.7817 72.3185C24.8881 72.5839 22.309 70.0494 22.309 70.0494Z" fill="url(#paint11_linear)"/>
<path d="M28.4141 70.713C28.6572 69.9836 30.0662 68.7678 32.5879 67.8717C35.3104 66.9044 37.5656 66.6103 41.215 66.5444C37.9298 68.7784 39.4238 72.1093 36.7247 72.3185C30.442 72.8048 28.4141 70.713 28.4141 70.713Z" fill="#D039A3"/>
<path d="M46.2808 38.2965C45.9273 35.4647 46.5474 21.7505 47.6973 21.3959C48.8473 21.0412 57.0751 30.0676 57.1643 36.9692C53.3599 39.0047 46.2808 38.2965 46.2808 38.2965Z" fill="url(#paint12_linear)"/>
<path d="M7.9673 43.6499C8.7732 42.5414 9.95816 42.5882 11.1527 42.5882C12.3472 42.5882 35.1758 42.8536 35.1758 42.8536C35.1758 42.8536 43.8029 36.881 50.4391 36.0847C57.0753 35.2883 65.9678 36.2174 65.9678 36.2174C65.9678 36.2174 69.8169 32.2356 73.135 29.3157C76.4531 26.3958 80.3021 22.5468 81.762 22.9449C83.222 23.3431 82.156 33.6478 80.4348 38.7391C78.8421 43.4514 74.9931 48.1626 74.9931 48.1626C74.9931 48.1626 76.4531 57.0551 79.9039 64.6204C82.9088 71.2088 88.3983 78.1583 88.3983 78.1583C88.3983 78.1583 81.6368 88.7837 67.9587 93.687C50.3722 99.992 40.8829 97.5361 40.8829 97.5361C40.8829 97.5361 40.6738 92.8907 40.7502 88.909C40.8437 84.0693 41.0157 80.0164 41.0157 80.0164C41.0157 80.0164 35.0951 79.2318 30.5304 77.3619C25.0218 75.1056 22.4343 73.0479 22.309 70.0494C23.4207 70.3891 26.554 71.2205 31.725 70.1948C40.4189 68.4694 40.8829 64.6204 40.8829 64.6204C40.8829 64.6204 34.6184 66.4924 24.6906 62.4968C13.8072 58.1169 4.78297 48.0299 7.9673 43.6499Z" fill="url(#paint13_linear)"/>
<path d="M18.499 42.6634C14.667 42.621 11.5729 42.5881 11.1524 42.5881C9.95789 42.5881 8.77292 42.5413 7.96701 43.6498C6.38175 45.8308 7.82369 49.4249 11.0133 53.0265C13.7931 51.642 18.1157 48.1561 18.499 42.6634Z" fill="url(#paint14_linear)"/>
<path d="M44.4228 45.9958C45.5469 45.9958 46.4582 45.0845 46.4582 43.9604C46.4582 42.8362 45.5469 41.9249 44.4228 41.9249C43.2987 41.9249 42.3874 42.8362 42.3874 43.9604C42.3874 45.0845 43.2987 45.9958 44.4228 45.9958Z" fill="#212F66"/>
<path d="M43.8591 43.8932C44.2866 43.8932 44.6331 43.5466 44.6331 43.1191C44.6331 42.6917 44.2866 42.3451 43.8591 42.3451C43.4316 42.3451 43.0851 42.6917 43.0851 43.1191C43.0851 43.5466 43.4316 43.8932 43.8591 43.8932Z" fill="#0090B2"/>
<path d="M57.519 50.2417C58.8385 50.2417 59.9081 49.1721 59.9081 47.8527C59.9081 46.5332 58.8385 45.4636 57.519 45.4636C56.1996 45.4636 55.13 46.5332 55.13 47.8527C55.13 49.1721 56.1996 50.2417 57.519 50.2417Z" fill="#212F66"/>
<path d="M56.5443 47.9866C57.0087 47.9866 57.3852 47.6101 57.3852 47.1456C57.3852 46.6812 57.0087 46.3047 56.5443 46.3047C56.0799 46.3047 55.7034 46.6812 55.7034 47.1456C55.7034 47.6101 56.0799 47.9866 56.5443 47.9866Z" fill="#0090B2"/>
<path d="M73.0703 7.86853C50.9085 -5.90826 21.7728 0.889363 7.99711 23.0512C-5.77862 45.2129 1.01792 74.3486 23.1808 88.1254C45.3426 101.902 74.4782 95.1046 88.254 72.9428C102.03 50.781 95.2342 21.6453 73.0703 7.86853ZM82.0913 69.5493C71.0688 87.2823 47.7571 92.7209 30.0251 81.6973C12.2931 70.6737 6.85352 47.3631 17.8781 29.63C28.9006 11.8981 52.2124 6.45847 69.9444 17.482C87.6753 28.5045 93.1149 51.8162 82.0913 69.5493Z" fill="url(#paint15_radial)"/>
<g opacity="0.5">
<path opacity="0.5" d="M44.8912 12.3669L43.719 12.6281L42.6391 12.9158C41.9075 13.125 41.1834 13.3533 40.4688 13.5986C39.3528 13.983 38.1371 13.3894 37.7517 12.2735C37.3684 11.1575 37.9608 9.94177 39.0778 9.5574C39.2275 9.50537 39.3942 9.47034 39.545 9.45335C40.386 9.36204 41.2248 9.29302 42.0626 9.24736L43.3463 9.20276L44.5472 9.207C45.4306 9.20913 46.1452 9.92903 46.142 10.8124C46.1409 11.5727 45.6058 12.2076 44.8912 12.3669Z" fill="white"/>
</g>
<g opacity="0.5">
<path opacity="0.5" d="M33.9081 15.748L32.7093 16.28L31.6252 16.8066C30.8904 17.1846 30.1641 17.5839 29.4517 18.0065C28.031 18.858 26.6697 19.8105 25.3796 20.8563C22.8005 22.9459 20.5155 25.4093 18.6075 28.1498C18.0437 28.9642 16.9256 29.167 16.1112 28.6021C15.3127 28.0489 15.1057 26.9595 15.6291 26.1494C17.6306 23.0723 20.0706 20.266 22.8632 17.8536C24.2584 16.6474 25.7418 15.5389 27.2973 14.5397C28.0756 14.0428 28.8719 13.5713 29.6821 13.1233L30.9435 12.4628L32.1295 11.8916C33.186 11.383 34.4549 11.8268 34.9646 12.8833C35.4742 13.9398 35.0304 15.2097 33.9718 15.7183C33.9548 15.7268 33.9251 15.7395 33.9081 15.748Z" fill="white"/>
</g>
<path d="M91.1344 80.6476C89.993 79.7101 89.0512 78.8628 88.3981 78.1577C88.3981 78.1577 87.6145 77.1639 86.4773 75.5754C75.8488 90.3843 57.9745 97.3784 40.7872 94.6846C40.8297 96.359 40.8828 97.5355 40.8828 97.5355C40.8828 97.5355 41.0527 99.1314 41.5061 101.593C60.1597 103.885 79.2752 96.3059 91.1344 80.6476Z" fill="url(#paint16_linear)"/>
<path d="M93.9301 36.3998C92.5243 31.0249 90.1703 25.9082 87.0082 21.3584C83.8399 16.8149 79.873 12.8353 75.3328 9.68498C70.8074 6.50384 65.7522 4.10844 60.4146 2.68139C55.0854 1.24159 49.5036 0.777592 44.013 1.27664C33.0224 2.2588 22.4406 7.24073 14.7659 15.1479C7.05623 23.0095 2.23568 33.6423 1.52109 44.6181C0.680153 55.579 3.86761 66.8064 10.3796 75.6926C16.8459 84.6085 26.589 91.0854 37.3195 93.6422C48.0478 96.2447 59.6788 94.8484 69.5312 89.8335C74.4685 87.3585 78.9811 84.0085 82.7579 79.9546C86.5453 75.9113 89.6086 71.1831 91.7874 66.0748C89.6883 71.2171 86.694 76.0068 82.9501 80.1309C79.2147 84.2665 74.7212 87.7174 69.7679 90.2976C59.8391 95.4356 48.0617 96.9104 37.1571 94.3302C26.2503 91.7915 16.3065 85.2689 9.66608 76.216C2.9842 67.1971 -0.344474 55.7584 0.464614 44.5427C1.25565 33.3195 6.23863 22.4977 14.1363 14.53C22.001 6.5134 32.792 1.5113 43.9504 0.574794C55.1109 -0.428602 66.5602 2.72704 75.6312 9.26239C80.1703 12.5179 84.1054 16.5941 87.2217 21.2118C90.3296 25.837 92.6071 31.0048 93.9301 36.3998Z" fill="white"/>
<path d="M93.9175 36.4031C92.1698 36.986 90.4911 37.8726 88.9684 39.0905C82.0169 44.6479 80.8861 54.7912 86.4445 61.7449C87.9395 63.6158 89.7701 65.062 91.7779 66.0707C95.7703 56.4615 96.3607 46.0569 93.9175 36.4031Z" fill="url(#paint17_linear)"/>
<defs>
<linearGradient id="paint0_linear" x1="141.223" y1="93.7679" x2="189.979" y2="93.7679" gradientUnits="userSpaceOnUse">
<stop stop-color="#FFE2A8"/>
<stop offset="1" stop-color="#728390"/>
</linearGradient>
<linearGradient id="paint1_linear" x1="91.5743" y1="72.8192" x2="115.091" y2="72.8192" gradientUnits="userSpaceOnUse">
<stop stop-color="#A281FF"/>
<stop offset="1" stop-color="#FF57BD"/>
</linearGradient>
<linearGradient id="paint2_linear" x1="98.3267" y1="167.603" x2="135.617" y2="167.603" gradientUnits="userSpaceOnUse">
<stop stop-color="#FF57BD"/>
<stop offset="1" stop-color="#FE6A77"/>
</linearGradient>
<linearGradient id="paint3_linear" x1="122.697" y1="185.837" x2="145.369" y2="185.837" gradientUnits="userSpaceOnUse">
<stop stop-color="#C5188E"/>
<stop offset="1" stop-color="#9F36AD"/>
</linearGradient>
<linearGradient id="paint4_linear" x1="29.5702" y1="110.855" x2="50.4132" y2="110.855" gradientUnits="userSpaceOnUse">
<stop stop-color="#FF57BD"/>
<stop offset="1" stop-color="#FE6A77"/>
</linearGradient>
<linearGradient id="paint5_linear" x1="3.9015" y1="110.781" x2="30.9783" y2="110.781" gradientUnits="userSpaceOnUse">
<stop stop-color="#C5188E"/>
<stop offset="1" stop-color="#9F36AD"/>
</linearGradient>
<linearGradient id="paint6_linear" x1="54.5225" y1="140.317" x2="153.35" y2="104.346" gradientUnits="userSpaceOnUse">
<stop stop-color="#05C5DA"/>
<stop offset="1" stop-color="#5860C4"/>
</linearGradient>
<linearGradient id="paint7_linear" x1="130.969" y1="148.233" x2="172.626" y2="148.233" gradientUnits="userSpaceOnUse">
<stop stop-color="#00E2EC"/>
<stop offset="1" stop-color="#0090B2"/>
</linearGradient>
<linearGradient id="paint8_linear" x1="154.738" y1="180.091" x2="180.266" y2="180.091" gradientUnits="userSpaceOnUse">
<stop stop-color="#A281FF"/>
<stop offset="1" stop-color="#FF57BD"/>
</linearGradient>
<linearGradient id="paint9_linear" x1="72.8767" y1="104.272" x2="95.7213" y2="127.116" gradientUnits="userSpaceOnUse">
<stop stop-color="#00E2EC"/>
<stop offset="1" stop-color="#0090B2"/>
</linearGradient>
<linearGradient id="paint10_linear" x1="35.8217" y1="133.54" x2="71.0414" y2="133.54" gradientUnits="userSpaceOnUse">
<stop stop-color="#A281FF"/>
<stop offset="1" stop-color="#FF57BD"/>
</linearGradient>
<linearGradient id="paint11_linear" x1="22.3088" y1="67.5238" x2="42.2143" y2="67.5238" gradientUnits="userSpaceOnUse">
<stop stop-color="#9F36AD"/>
<stop offset="0.1071" stop-color="#8D3399"/>
<stop offset="0.4036" stop-color="#602A65"/>
<stop offset="0.662" stop-color="#3F243F"/>
<stop offset="0.8695" stop-color="#2A2028"/>
<stop offset="1" stop-color="#231F20"/>
</linearGradient>
<linearGradient id="paint12_linear" x1="43.2613" y1="25.7981" x2="55.7991" y2="38.336" gradientUnits="userSpaceOnUse">
<stop stop-color="#FFE2A8"/>
<stop offset="1" stop-color="#728390"/>
</linearGradient>
<linearGradient id="paint13_linear" x1="26.3434" y1="25.2272" x2="84.26" y2="83.1438" gradientUnits="userSpaceOnUse">
<stop stop-color="#FFE2A8"/>
<stop offset="1" stop-color="#728390"/>
</linearGradient>
<linearGradient id="paint14_linear" x1="7.31889" y1="47.8068" x2="18.4989" y2="47.8068" gradientUnits="userSpaceOnUse">
<stop stop-color="#653271"/>
<stop offset="0.1129" stop-color="#5B2F65"/>
<stop offset="0.496" stop-color="#3D263F"/>
<stop offset="0.8053" stop-color="#2A2128"/>
<stop offset="1" stop-color="#231F20"/>
</linearGradient>
<radialGradient id="paint15_radial" cx="0" cy="0" r="1" gradientUnits="userSpaceOnUse" gradientTransform="translate(48.1259 47.9968) scale(47.2564)">
<stop stop-color="#4E40AF" stop-opacity="0"/>
<stop offset="0.1096" stop-color="#5446B2" stop-opacity="0.0438"/>
<stop offset="0.2617" stop-color="#6558B9" stop-opacity="0.1047"/>
<stop offset="0.4387" stop-color="#8076C6" stop-opacity="0.1755"/>
<stop offset="0.6345" stop-color="#A69FD7" stop-opacity="0.2538"/>
<stop offset="0.8432" stop-color="#D6D3ED" stop-opacity="0.3373"/>
<stop offset="1" stop-color="white" stop-opacity="0.4"/>
</radialGradient>
<linearGradient id="paint16_linear" x1="40.7874" y1="88.785" x2="91.1345" y2="88.785" gradientUnits="userSpaceOnUse">
<stop stop-color="#FF57BD"/>
<stop offset="1" stop-color="#FE6A77"/>
</linearGradient>
<linearGradient id="paint17_linear" x1="82.915" y1="51.2369" x2="95.3704" y2="51.2369" gradientUnits="userSpaceOnUse">
<stop stop-color="#05C5DA"/>
<stop offset="1" stop-color="#0090B2"/>
</linearGradient>
</defs>
</svg>
