<?xml version="1.0" standalone="no"?><svg xmlns:xlink="http://www.w3.org/1999/xlink" xmlns="http://www.w3.org/2000/svg" viewBox="0 0 1920 1536" preserveAspectRatio="xMaxYMax slice"><g transform="scale(1.4698564593301435)"><rect x="0" y="0" width="1306.25" height="1045" fill="#ffffff"/><circle cx="43.54" cy="43.54" r="21.77" fill="#fab6bc"/><circle cx="130.62" cy="43.54" r="21.77" fill="#c2d9fa"/><circle cx="217.71" cy="43.54" r="21.77" fill="#f78d97"/><circle cx="304.78999999999996" cy="43.54" r="21.77" fill="#fab8be"/><circle cx="391.87" cy="43.54" r="21.77" fill="#dae8fc"/><circle cx="478.96" cy="43.54" r="21.77" fill="#c0d8fa"/><circle cx="566.04" cy="43.54" r="21.77" fill="#f1f7fe"/><circle cx="653.12" cy="43.54" r="21.77" fill="#f45c6a"/><circle cx="740.21" cy="43.54" r="21.77" fill="#5899f1"/><circle cx="827.29" cy="43.54" r="21.77" fill="#fcd9dc"/><circle cx="914.37" cy="43.54" r="21.77" fill="#85b5f4"/><circle cx="1001.46" cy="43.54" r="21.77" fill="#f56572"/><circle cx="1088.54" cy="43.54" r="21.77" fill="#fab3ba"/><circle cx="1175.62" cy="43.54" r="21.77" fill="#f897a0"/><circle cx="1262.71" cy="43.54" r="21.77" fill="#fcd6da"/><circle cx="43.54" cy="130.62" r="21.77" fill="#a5c8f7"/><circle cx="130.62" cy="130.62" r="21.77" fill="#3e89ee"/><circle cx="217.71" cy="130.62" r="21.77" fill="#f67581"/><circle cx="304.78999999999996" cy="130.62" r="21.77" fill="#e8f1fd"/><circle cx="391.87" cy="130.62" r="21.77" fill="#66a1f2"/><circle cx="478.96" cy="130.62" r="21.77" fill="#f78791"/><circle cx="566.04" cy="130.62" r="21.77" fill="#81b2f4"/><circle cx="653.12" cy="130.62" r="21.77" fill="#69a4f2"/><circle cx="740.21" cy="130.62" r="21.77" fill="#3081ed"/><circle cx="827.29" cy="130.62" r="21.77" fill="#3282ed"/><circle cx="914.37" cy="130.62" r="21.77" fill="#92bcf6"/><circle cx="1001.46" cy="130.62" r="21.77" fill="#fbbdc3"/><circle cx="1088.54" cy="130.62" r="21.77" fill="#428cef"/><circle cx="1175.62" cy="130.62" r="21.77" fill="#99c1f6"/><circle cx="1262.71" cy="130.62" r="21.77" fill="#f89ea6"/><circle cx="43.54" cy="217.71" r="21.77" fill="#dbe9fc"/><circle cx="130.62" cy="217.71" r="21.77" fill="#3f8aee"/><circle cx="217.71" cy="217.71" r="21.77" fill="#fdfeff"/><circle cx="304.78999999999996" cy="217.71" r="21.77" fill="#a5c8f7"/><circle cx="391.87" cy="217.71" r="21.77" fill="#a2c6f7"/><circle cx="478.96" cy="217.71" r="21.77" fill="#fbbdc2"/><circle cx="566.04" cy="217.71" r="21.77" fill="#a6c9f7"/><circle cx="653.12" cy="217.71" r="21.77" fill="#4a90ef"/><circle cx="740.21" cy="217.71" r="21.77" fill="#418bef"/><circle cx="827.29" cy="217.71" r="21.77" fill="#f67984"/><circle cx="914.37" cy="217.71" r="21.77" fill="#e1ecfc"/><circle cx="1001.46" cy="217.71" r="21.77" fill="#fffdfd"/><circle cx="1088.54" cy="217.71" r="21.77" fill="#fef3f4"/><circle cx="1175.62" cy="217.71" r="21.77" fill="#88b6f5"/><circle cx="1262.71" cy="217.71" r="21.77" fill="#fefeff"/><circle cx="43.54" cy="304.78999999999996" r="21.77" fill="#b0cff8"/><circle cx="130.62" cy="304.78999999999996" r="21.77" fill="#f78b95"/><circle cx="217.71" cy="304.78999999999996" r="21.77" fill="#f89ba4"/><circle cx="304.78999999999996" cy="304.78999999999996" r="21.77" fill="#f9a1a9"/><circle cx="391.87" cy="304.78999999999996" r="21.77" fill="#eaf2fd"/><circle cx="478.96" cy="304.78999999999996" r="21.77" fill="#cce0fb"/><circle cx="566.04" cy="304.78999999999996" r="21.77" fill="#cce0fb"/><circle cx="653.12" cy="304.78999999999996" r="21.77" fill="#3c88ee"/><circle cx="740.21" cy="304.78999999999996" r="21.77" fill="#83b4f4"/><circle cx="827.29" cy="304.78999999999996" r="21.77" fill="#8cb9f5"/><circle cx="914.37" cy="304.78999999999996" r="21.77" fill="#fbfdff"/><circle cx="1001.46" cy="304.78999999999996" r="21.77" fill="#fcccd0"/><circle cx="1088.54" cy="304.78999999999996" r="21.77" fill="#4f93f0"/><circle cx="1175.62" cy="304.78999999999996" r="21.77" fill="#d9e8fc"/><circle cx="1262.71" cy="304.78999999999996" r="21.77" fill="#fef7f7"/><circle cx="43.54" cy="391.87" r="21.77" fill="#b7d3f9"/><circle cx="130.62" cy="391.87" r="21.77" fill="#c0d8fa"/><circle cx="217.71" cy="391.87" r="21.77" fill="#f7848e"/><circle cx="304.78999999999996" cy="391.87" r="21.77" fill="#b6d2f9"/><circle cx="391.87" cy="391.87" r="21.77" fill="#f67a85"/><circle cx="478.96" cy="391.87" r="21.77" fill="#a1c5f7"/><circle cx="566.04" cy="391.87" r="21.77" fill="#fddde0"/><circle cx="653.12" cy="391.87" r="21.77" fill="#88b6f5"/><circle cx="740.21" cy="391.87" r="21.77" fill="#fef1f2"/><circle cx="827.29" cy="391.87" r="21.77" fill="#f78c95"/><circle cx="914.37" cy="391.87" r="21.77" fill="#f9a3ab"/><circle cx="1001.46" cy="391.87" r="21.77" fill="#fcd6da"/><circle cx="1088.54" cy="391.87" r="21.77" fill="#7aaef4"/><circle cx="1175.62" cy="391.87" r="21.77" fill="#f78b95"/><circle cx="1262.71" cy="391.87" r="21.77" fill="#f9a6ad"/><circle cx="43.54" cy="478.96" r="21.77" fill="#7daff4"/><circle cx="130.62" cy="478.96" r="21.77" fill="#f89ea6"/><circle cx="217.71" cy="478.96" r="21.77" fill="#fdfeff"/><circle cx="304.78999999999996" cy="478.96" r="21.77" fill="#f8959e"/><circle cx="391.87" cy="478.96" r="21.77" fill="#fab2b9"/><circle cx="478.96" cy="478.96" r="21.77" fill="#f56d79"/><circle cx="566.04" cy="478.96" r="21.77" fill="#deebfc"/><circle cx="653.12" cy="478.96" r="21.77" fill="#6ba4f2"/><circle cx="740.21" cy="478.96" r="21.77" fill="#b2d0f8"/><circle cx="827.29" cy="478.96" r="21.77" fill="#fcfdff"/><circle cx="914.37" cy="478.96" r="21.77" fill="#f56a76"/><circle cx="1001.46" cy="478.96" r="21.77" fill="#d5e5fb"/><circle cx="1088.54" cy="478.96" r="21.77" fill="#488fef"/><circle cx="1175.62" cy="478.96" r="21.77" fill="#f9a8af"/><circle cx="1262.71" cy="478.96" r="21.77" fill="#fab1b8"/><circle cx="43.54" cy="566.04" r="21.77" fill="#d8e7fc"/><circle cx="130.62" cy="566.04" r="21.77" fill="#83b3f4"/><circle cx="217.71" cy="566.04" r="21.77" fill="#f1f7fe"/><circle cx="304.78999999999996" cy="566.04" r="21.77" fill="#f56b77"/><circle cx="391.87" cy="566.04" r="21.77" fill="#f56471"/><circle cx="478.96" cy="566.04" r="21.77" fill="#a4c7f7"/><circle cx="566.04" cy="566.04" r="21.77" fill="#fddcdf"/><circle cx="653.12" cy="566.04" r="21.77" fill="#fcd4d7"/><circle cx="740.21" cy="566.04" r="21.77" fill="#faafb6"/><circle cx="827.29" cy="566.04" r="21.77" fill="#599af1"/><circle cx="914.37" cy="566.04" r="21.77" fill="#f6808b"/><circle cx="1001.46" cy="566.04" r="21.77" fill="#a1c5f7"/><circle cx="1088.54" cy="566.04" r="21.77" fill="#f9a4ac"/><circle cx="1175.62" cy="566.04" r="21.77" fill="#f56a77"/><circle cx="1262.71" cy="566.04" r="21.77" fill="#f78892"/><circle cx="43.54" cy="653.12" r="21.77" fill="#f7fafe"/><circle cx="130.62" cy="653.12" r="21.77" fill="#fccdd1"/><circle cx="217.71" cy="653.12" r="21.77" fill="#f7fafe"/><circle cx="304.78999999999996" cy="653.12" r="21.77" fill="#fddfe1"/><circle cx="391.87" cy="653.12" r="21.77" fill="#fde2e4"/><circle cx="478.96" cy="653.12" r="21.77" fill="#99c1f6"/><circle cx="566.04" cy="653.12" r="21.77" fill="#fcd1d5"/><circle cx="653.12" cy="653.12" r="21.77" fill="#5c9cf1"/><circle cx="740.21" cy="653.12" r="21.77" fill="#f67f8a"/><circle cx="827.29" cy="653.12" r="21.77" fill="#fcd2d6"/><circle cx="914.37" cy="653.12" r="21.77" fill="#f9a8b0"/><circle cx="1001.46" cy="653.12" r="21.77" fill="#e3eefd"/><circle cx="1088.54" cy="653.12" r="21.77" fill="#3080ed"/><circle cx="1175.62" cy="653.12" r="21.77" fill="#fcd6da"/><circle cx="1262.71" cy="653.12" r="21.77" fill="#79adf3"/><circle cx="43.54" cy="740.21" r="21.77" fill="#74aaf3"/><circle cx="130.62" cy="740.21" r="21.77" fill="#fef3f4"/><circle cx="217.71" cy="740.21" r="21.77" fill="#ffffff"/><circle cx="304.78999999999996" cy="740.21" r="21.77" fill="#f89ca4"/><circle cx="391.87" cy="740.21" r="21.77" fill="#fcd0d4"/><circle cx="478.96" cy="740.21" r="21.77" fill="#629ff1"/><circle cx="566.04" cy="740.21" r="21.77" fill="#f88f99"/><circle cx="653.12" cy="740.21" r="21.77" fill="#f56370"/><circle cx="740.21" cy="740.21" r="21.77" fill="#fbc5ca"/><circle cx="827.29" cy="740.21" r="21.77" fill="#8ebaf5"/><circle cx="914.37" cy="740.21" r="21.77" fill="#f78a94"/><circle cx="1001.46" cy="740.21" r="21.77" fill="#f78590"/><circle cx="1088.54" cy="740.21" r="21.77" fill="#f89ba3"/><circle cx="1175.62" cy="740.21" r="21.77" fill="#f5707c"/><circle cx="1262.71" cy="740.21" r="21.77" fill="#3081ed"/><circle cx="43.54" cy="827.29" r="21.77" fill="#feecee"/><circle cx="130.62" cy="827.29" r="21.77" fill="#fddee1"/><circle cx="217.71" cy="827.29" r="21.77" fill="#f9fbfe"/><circle cx="304.78999999999996" cy="827.29" r="21.77" fill="#82b3f4"/><circle cx="391.87" cy="827.29" r="21.77" fill="#77acf3"/><circle cx="478.96" cy="827.29" r="21.77" fill="#69a3f2"/><circle cx="566.04" cy="827.29" r="21.77" fill="#abccf8"/><circle cx="653.12" cy="827.29" r="21.77" fill="#feeced"/><circle cx="740.21" cy="827.29" r="21.77" fill="#82b3f4"/><circle cx="827.29" cy="827.29" r="21.77" fill="#68a3f2"/><circle cx="914.37" cy="827.29" r="21.77" fill="#fddadd"/><circle cx="1001.46" cy="827.29" r="21.77" fill="#cfe2fb"/><circle cx="1088.54" cy="827.29" r="21.77" fill="#f9a6ae"/><circle cx="1175.62" cy="827.29" r="21.77" fill="#fab0b6"/><circle cx="1262.71" cy="827.29" r="21.77" fill="#478fef"/><circle cx="43.54" cy="914.37" r="21.77" fill="#f78892"/><circle cx="130.62" cy="914.37" r="21.77" fill="#eff5fe"/><circle cx="217.71" cy="914.37" r="21.77" fill="#f7828d"/><circle cx="304.78999999999996" cy="914.37" r="21.77" fill="#fcd5d8"/><circle cx="391.87" cy="914.37" r="21.77" fill="#fcd6d9"/><circle cx="478.96" cy="914.37" r="21.77" fill="#f7838e"/><circle cx="566.04" cy="914.37" r="21.77" fill="#f67e89"/><circle cx="653.12" cy="914.37" r="21.77" fill="#fab0b6"/><circle cx="740.21" cy="914.37" r="21.77" fill="#629ff1"/><circle cx="827.29" cy="914.37" r="21.77" fill="#fabac0"/><circle cx="914.37" cy="914.37" r="21.77" fill="#f99ea7"/><circle cx="1001.46" cy="914.37" r="21.77" fill="#feedee"/><circle cx="1088.54" cy="914.37" r="21.77" fill="#4b91ef"/><circle cx="1175.62" cy="914.37" r="21.77" fill="#468eef"/><circle cx="1262.71" cy="914.37" r="21.77" fill="#fab7be"/><circle cx="43.54" cy="1001.46" r="21.77" fill="#4890ef"/><circle cx="130.62" cy="1001.46" r="21.77" fill="#fef2f3"/><circle cx="217.71" cy="1001.46" r="21.77" fill="#63a0f2"/><circle cx="304.78999999999996" cy="1001.46" r="21.77" fill="#4b91ef"/><circle cx="391.87" cy="1001.46" r="21.77" fill="#d9e8fc"/><circle cx="478.96" cy="1001.46" r="21.77" fill="#f88f99"/><circle cx="566.04" cy="1001.46" r="21.77" fill="#fff9fa"/><circle cx="653.12" cy="1001.46" r="21.77" fill="#478fef"/><circle cx="740.21" cy="1001.46" r="21.77" fill="#74aaf3"/><circle cx="827.29" cy="1001.46" r="21.77" fill="#f3f8fe"/><circle cx="914.37" cy="1001.46" r="21.77" fill="#f8929b"/><circle cx="1001.46" cy="1001.46" r="21.77" fill="#f7808b"/><circle cx="1088.54" cy="1001.46" r="21.77" fill="#dbe9fc"/><circle cx="1175.62" cy="1001.46" r="21.77" fill="#4d92f0"/><circle cx="1262.71" cy="1001.46" r="21.77" fill="#eff5fe"/></g></svg>