<svg width="754" height="532" viewBox="0 0 754 532" fill="none" xmlns="http://www.w3.org/2000/svg">
<path d="M53.1431 3.50125C53.1487 4.75051 53.7115 5.94606 54.7076 6.8249C55.7037 7.70375 57.0515 8.19389 58.4545 8.18751L58.4331 3.47719" fill="#F45B69"/>
<path d="M58.4551 8.18753C59.8581 8.18114 61.2014 7.67876 62.1894 6.79089C63.1775 5.90302 63.7294 4.7024 63.7237 3.45314L58.4337 3.4772" fill="#2F80ED"/>
<path d="M53.186 12.9225C53.1803 11.6732 53.7322 10.4726 54.7202 9.58473C55.7083 8.69686 57.0516 8.19448 58.4546 8.1881L58.476 12.8984" fill="#F45B69"/>
<path d="M58.4551 8.18808C59.8581 8.1817 61.2059 8.67184 62.202 9.55068C63.1981 10.4295 63.7609 11.6251 63.7666 12.8743L58.4766 12.8984" fill="#2F80ED"/>
<path d="M106.038 3.26065C106.04 3.87922 106.18 4.49111 106.448 5.06138C106.717 5.63165 107.109 6.14914 107.602 6.5843C108.095 7.01946 108.68 7.36377 109.323 7.59757C109.966 7.83136 110.654 7.95007 111.349 7.94691L111.328 3.23659" fill="#2F80ED"/>
<path d="M111.35 7.94689C112.753 7.94051 114.096 7.43813 115.084 6.55026C116.072 5.66239 116.624 4.46177 116.618 3.21251L111.328 3.23657" fill="#F45B69"/>
<path d="M106.08 12.6819C106.078 12.0633 106.212 11.4502 106.475 10.8775C106.738 10.3048 107.125 9.78376 107.615 9.34413C108.104 8.9045 108.685 8.55489 109.326 8.31526C109.967 8.07562 110.654 7.95066 111.349 7.9475L111.37 12.6578" fill="#F45B69"/>
<path d="M111.35 7.94748C112.753 7.9411 114.101 8.43124 115.097 9.31008C116.093 10.1889 116.655 11.3845 116.661 12.6337L111.371 12.6578" fill="#2F80ED"/>
<path d="M211.833 2.77945L217.123 2.75539L211.854 7.48977L211.833 2.77945Z" fill="#2F80ED"/>
<path d="M217.117 2.7554L222.407 2.73134L222.429 7.44166L217.117 2.7554Z" fill="#F45B69"/>
<path d="M217.144 7.46629L217.166 12.1766L211.876 12.2007L217.144 7.46629Z" fill="#2F80ED"/>
<path d="M217.139 7.46631L222.45 12.1526L217.16 12.1766L217.139 7.46631Z" fill="#2F80ED"/>
<path d="M264.727 2.53885L270.017 2.51479L264.749 7.24917L264.727 2.53885Z" fill="#F45B69"/>
<path d="M275.308 2.49071L275.329 7.20103L270.039 7.22509L275.308 2.49071Z" fill="#F45B69"/>
<path d="M264.749 7.24976L270.039 7.22569L270.06 11.936L264.749 7.24976Z" fill="#F45B69"/>
<path d="M270.039 7.22568L275.351 11.9119L270.061 11.936L270.039 7.22568Z" fill="#F45B69"/>
<path d="M476.312 1.57648L481.602 1.55242L476.333 6.2868L476.312 1.57648Z" fill="#2F80ED"/>
<path d="M486.892 1.52834L486.914 6.23866L481.624 6.26272L486.892 1.52834Z" fill="#2F80ED"/>
<path d="M476.333 6.28735L481.623 6.26329L481.644 10.9736L476.333 6.28735Z" fill="#2F80ED"/>
<path d="M481.624 6.26331L486.935 10.9496L481.645 10.9736L481.624 6.26331Z" fill="#F45B69"/>
<path d="M582.107 1.09525L587.397 1.07118L582.128 5.80557L582.107 1.09525Z" fill="#2F80ED"/>
<path d="M592.688 1.04714L592.709 5.75746L587.419 5.78152L592.688 1.04714Z" fill="#F45B69"/>
<path d="M582.128 5.80615L587.418 5.78209L587.44 10.4924L582.128 5.80615Z" fill="#2F80ED"/>
<path d="M587.419 5.7821L592.73 10.4684L587.44 10.4924L587.419 5.7821Z" fill="#F45B69"/>
<path d="M635.023 5.56497C635.02 4.9464 635.154 4.33327 635.417 3.76057C635.681 3.18788 636.068 2.66685 636.557 2.22722C637.046 1.78759 637.628 1.43798 638.269 1.19834C638.909 0.958706 639.597 0.833743 640.291 0.830583L640.313 5.54091" fill="#2F80ED"/>
<path d="M640.292 0.830627C641.695 0.824246 643.043 1.31439 644.039 2.19323C645.035 3.07208 645.598 4.26763 645.604 5.51689L640.314 5.54095" fill="#2F80ED"/>
<path d="M635.023 5.56558C635.026 6.18415 635.165 6.79604 635.434 7.36631C635.702 7.93658 636.094 8.45407 636.587 8.88923C637.081 9.32439 637.665 9.6687 638.308 9.90249C638.951 10.1363 639.64 10.255 640.334 10.2518L640.313 5.54152" fill="#F45B69"/>
<path d="M640.335 10.2519C641.738 10.2455 643.081 9.74308 644.069 8.85522C645.057 7.96735 645.609 6.76673 645.604 5.51747L640.314 5.54153" fill="#2F80ED"/>
<path d="M687.902 0.614075C687.908 1.86333 688.471 3.05888 689.467 3.93772C690.463 4.81657 691.811 5.30671 693.214 5.30033L693.192 0.590013" fill="#2F80ED"/>
<path d="M693.208 5.30035C694.611 5.29397 695.955 4.79158 696.943 3.90371C697.931 3.01584 698.483 1.81522 698.477 0.565966L693.187 0.590027" fill="#2F80ED"/>
<path d="M687.945 10.0353C687.939 8.78601 688.491 7.58539 689.479 6.69752C690.467 5.80965 691.81 5.30727 693.213 5.30089L693.235 10.0112" fill="#2F80ED"/>
<path d="M693.208 5.30093C694.611 5.29455 695.959 5.78469 696.955 6.66354C697.951 7.54238 698.514 8.73793 698.52 9.98719L693.23 10.0112" fill="#2F80ED"/>
<path d="M740.818 5.08376C742.221 5.07738 743.564 4.575 744.553 3.68713C745.541 2.79926 746.092 1.59864 746.087 0.349382L740.797 0.373444" fill="#F45B69"/>
<path d="M746.088 0.349396C746.093 1.59865 746.656 2.7942 747.652 3.67305C748.648 4.55189 749.996 5.04204 751.399 5.03566L751.377 0.325335" fill="#2F80ED"/>
<path d="M740.818 5.08435C742.221 5.07797 743.569 5.56811 744.565 6.44695C745.561 7.3258 746.124 8.52135 746.129 9.7706L740.839 9.79466" fill="#2F80ED"/>
<path d="M746.13 9.77059C746.125 8.52133 746.677 7.32071 747.665 6.43284C748.653 5.54498 749.996 5.04259 751.399 5.03621L751.42 9.74653" fill="#F45B69"/>
<path d="M108.918 55.0624C110.379 55.0558 111.558 53.9959 111.553 52.6952C111.547 51.3945 110.358 50.3454 108.897 50.3521C107.436 50.3587 106.257 51.4185 106.263 52.7193C106.268 54.02 107.457 55.069 108.918 55.0624Z" fill="#F45B69"/>
<path d="M116.832 50.3159L111.542 50.34L111.564 55.0503L116.854 55.0263L116.832 50.3159Z" fill="#F45B69"/>
<path d="M108.94 59.7732C110.401 59.7665 111.58 58.7067 111.574 57.406C111.568 56.1053 110.379 55.0562 108.918 55.0629C107.458 55.0695 106.278 56.1293 106.284 57.4301C106.29 58.7308 107.479 59.7798 108.94 59.7732Z" fill="#F45B69"/>
<path d="M116.854 55.0268L111.564 55.0508L111.585 59.7612L116.875 59.7371L116.854 55.0268Z" fill="#2F80ED"/>
<path d="M161.813 54.8218C163.274 54.8152 164.453 53.7553 164.447 52.4546C164.441 51.1539 163.252 50.1048 161.791 50.1115C160.331 50.1181 159.151 51.1779 159.157 52.4787C159.163 53.7794 160.352 54.8284 161.813 54.8218Z" fill="#F45B69"/>
<path d="M169.727 50.0754L164.437 50.0994L164.459 54.8098L169.749 54.7857L169.727 50.0754Z" fill="#F45B69"/>
<path d="M161.834 59.5326C163.295 59.526 164.475 58.4661 164.469 57.1654C164.463 55.8647 163.274 54.8156 161.813 54.8223C160.352 54.8289 159.173 55.8888 159.179 57.1895C159.184 58.4902 160.374 59.5393 161.834 59.5326Z" fill="#2F80ED"/>
<path d="M169.749 54.7862L164.458 54.8103L164.48 59.5206L169.77 59.4965L169.749 54.7862Z" fill="#2F80ED"/>
<path d="M264.942 49.6423C266.345 49.6359 267.692 50.1261 268.689 51.0049C269.685 51.8838 270.247 53.0793 270.253 54.3286L264.963 54.3526" fill="#F45B69"/>
<path d="M270.254 54.3286C270.248 53.0793 270.8 51.8787 271.788 50.9908C272.776 50.103 274.119 49.6006 275.522 49.5942L275.544 54.3045" fill="#2F80ED"/>
<path d="M264.984 59.0634C266.387 59.057 267.731 58.5546 268.719 57.6668C269.707 56.7789 270.259 55.5783 270.253 54.329L264.963 54.3531" fill="#F45B69"/>
<path d="M270.254 54.3291C270.259 55.5783 270.822 56.7739 271.818 57.6527C272.814 58.5316 274.162 59.0217 275.565 59.0153L275.544 54.305" fill="#2F80ED"/>
<path d="M370.737 49.1611L376.027 49.137L370.758 53.8714L370.737 49.1611Z" fill="#2F80ED"/>
<path d="M376.028 49.137L381.318 49.113L381.339 53.8233L376.028 49.137Z" fill="#F45B69"/>
<path d="M370.758 53.8719L376.07 58.5581L370.78 58.5822L370.758 53.8719Z" fill="#2F80ED"/>
<path d="M381.339 53.8237L381.361 58.5341L376.071 58.5581L381.339 53.8237Z" fill="#2F80ED"/>
<path d="M423.653 53.6308C423.647 52.3816 424.199 51.1809 425.187 50.2931C426.175 49.4052 427.518 48.9028 428.921 48.8964L428.943 53.6068" fill="#F45B69"/>
<path d="M428.922 48.8964C430.325 48.89 431.673 49.3802 432.669 50.259C433.665 51.1379 434.228 52.3334 434.233 53.5827L428.943 53.6068" fill="#F45B69"/>
<path d="M423.653 53.6313C423.659 54.8806 424.221 56.0761 425.217 56.955C426.214 57.8338 427.561 58.324 428.964 58.3176L428.943 53.6073" fill="#F45B69"/>
<path d="M428.965 58.3176C430.368 58.3112 431.711 57.8088 432.699 56.9209C433.687 56.0331 434.239 54.8324 434.233 53.5832L428.944 53.6072" fill="#2F80ED"/>
<path d="M479.192 53.3782C480.653 53.3715 481.833 52.3117 481.827 51.011C481.821 49.7103 480.632 48.6612 479.171 48.6679C477.71 48.6745 476.531 49.7343 476.537 51.0351C476.543 52.3358 477.732 53.3848 479.192 53.3782Z" fill="#F45B69"/>
<path d="M487.107 48.6318L481.817 48.6558L481.838 53.3662L487.128 53.3421L487.107 48.6318Z" fill="#2F80ED"/>
<path d="M479.214 58.089C480.675 58.0824 481.854 57.0225 481.848 55.7218C481.842 54.4211 480.653 53.372 479.192 53.3787C477.732 53.3853 476.552 54.4452 476.558 55.7459C476.564 57.0466 477.753 58.0957 479.214 58.089Z" fill="#F45B69"/>
<path d="M487.128 53.3426L481.838 53.3666L481.859 58.077L487.149 58.0529L487.128 53.3426Z" fill="#2F80ED"/>
<path d="M529.448 53.1496C530.851 53.1433 532.194 52.6409 533.182 51.753C534.17 50.8651 534.722 49.6645 534.717 48.4152L529.427 48.4393" fill="#2F80ED"/>
<path d="M534.717 48.4152C534.723 49.6645 535.286 50.86 536.282 51.7389C537.278 52.6177 538.626 53.1079 540.029 53.1015L540.007 48.3912" fill="#2F80ED"/>
<path d="M529.448 53.1501C530.143 53.147 530.831 53.2657 531.474 53.4995C532.117 53.7333 532.702 54.0776 533.195 54.5127C533.688 54.9479 534.08 55.4654 534.349 56.0356C534.617 56.6059 534.757 57.2178 534.76 57.8364L529.469 57.8604" fill="#F45B69"/>
<path d="M534.76 57.8364C534.757 57.2178 534.891 56.6047 535.155 56.032C535.418 55.4593 535.805 54.9382 536.294 54.4986C536.784 54.059 537.365 53.7094 538.006 53.4697C538.647 53.2301 539.334 53.1051 540.029 53.102L540.05 57.8123" fill="#2F80ED"/>
<path d="M582.321 48.1987C582.327 49.448 582.889 50.6435 583.886 51.5224C584.882 52.4012 586.23 52.8914 587.633 52.885L587.611 48.1746" fill="#2F80ED"/>
<path d="M587.633 52.8849C589.036 52.8786 590.38 52.3762 591.368 51.4883C592.356 50.6004 592.908 49.3998 592.902 48.1506L587.612 48.1746" fill="#2F80ED"/>
<path d="M582.364 57.6198C582.361 57.0013 582.495 56.3881 582.758 55.8154C583.022 55.2427 583.409 54.7217 583.898 54.2821C584.387 53.8425 584.969 53.4928 585.61 53.2532C586.251 53.0136 586.938 52.8886 587.633 52.8855L587.654 57.5958" fill="#2F80ED"/>
<path d="M587.633 52.8854C588.328 52.8823 589.016 53.001 589.659 53.2348C590.302 53.4686 590.887 53.8129 591.38 54.248C591.873 54.6832 592.265 55.2007 592.534 55.771C592.802 56.3412 592.942 56.9531 592.945 57.5717L587.655 57.5958" fill="#F45B69"/>
<path d="M635.216 47.9581C635.218 48.5767 635.358 49.1886 635.627 49.7589C635.895 50.3291 636.287 50.8466 636.78 51.2818C637.273 51.7169 637.858 52.0613 638.501 52.295C639.144 52.5288 639.833 52.6476 640.527 52.6444L640.506 47.9341" fill="#2F80ED"/>
<path d="M640.528 52.6444C641.931 52.638 643.274 52.1356 644.262 51.2477C645.25 50.3599 645.802 49.1592 645.796 47.91L640.507 47.9341" fill="#F45B69"/>
<path d="M635.259 57.3792C635.256 56.7607 635.39 56.1475 635.653 55.5748C635.916 55.0021 636.304 54.4811 636.793 54.0415C637.282 53.6019 637.864 53.2522 638.504 53.0126C639.145 52.773 639.832 52.648 640.527 52.6449L640.549 57.3552" fill="#2F80ED"/>
<path d="M640.528 52.6449C641.223 52.6417 641.911 52.7604 642.554 52.9942C643.197 53.228 643.781 53.5723 644.275 54.0075C644.768 54.4426 645.16 54.9601 645.428 55.5304C645.697 56.1007 645.836 56.7126 645.839 57.3311L640.549 57.3552" fill="#2F80ED"/>
<path d="M688.116 47.7175L693.406 47.6934L688.138 52.4278L688.116 47.7175Z" fill="#2F80ED"/>
<path d="M693.401 47.6935L698.691 47.6694L698.712 52.3797L693.401 47.6935Z" fill="#F45B69"/>
<path d="M693.428 52.4043L693.449 57.1146L688.159 57.1386L693.428 52.4043Z" fill="#F45B69"/>
<path d="M693.423 52.4043L698.734 57.0905L693.444 57.1146L693.423 52.4043Z" fill="#2F80ED"/>
<path d="M741.011 47.4769C741.017 48.7261 741.579 49.9217 742.575 50.8005C743.572 51.6794 744.919 52.1695 746.322 52.1631L746.301 47.4528" fill="#2F80ED"/>
<path d="M746.323 52.1632C747.726 52.1568 749.069 51.6544 750.057 50.7665C751.045 49.8787 751.597 48.678 751.592 47.4288L746.302 47.4529" fill="#F45B69"/>
<path d="M741.054 56.8981C741.051 56.2795 741.185 55.6664 741.448 55.0937C741.711 54.521 742.099 54 742.588 53.5603C743.077 53.1207 743.659 52.7711 744.3 52.5314C744.94 52.2918 745.628 52.1668 746.322 52.1637L746.344 56.874" fill="#F45B69"/>
<path d="M746.323 52.1636C747.018 52.1605 747.706 52.2792 748.349 52.513C748.992 52.7468 749.577 53.0911 750.07 53.5262C750.563 53.9614 750.955 54.4789 751.224 55.0492C751.492 55.6194 751.632 56.2313 751.634 56.8499L746.345 56.874" fill="#2F80ED"/>
<path d="M0.670776 97.9432C0.676459 99.1925 1.23925 100.388 2.23534 101.267C3.23144 102.146 4.57924 102.636 5.98225 102.629L5.96083 97.9192" fill="#F45B69"/>
<path d="M5.98285 102.63C7.38586 102.623 8.72914 102.121 9.7172 101.233C10.7053 100.345 11.2571 99.1444 11.2515 97.8951L5.96143 97.9192" fill="#2F80ED"/>
<path d="M0.713686 107.364C0.708003 106.115 1.2599 104.915 2.24795 104.027C3.23601 103.139 4.5793 102.636 5.98231 102.63L6.00373 107.34" fill="#F45B69"/>
<path d="M5.98291 102.63C7.38592 102.624 8.73371 103.114 9.72981 103.993C10.7259 104.872 11.2887 106.067 11.2944 107.316L6.00433 107.34" fill="#2F80ED"/>
<path d="M53.5715 97.7026L58.8616 97.6786L53.593 102.413L53.5715 97.7026Z" fill="#F45B69"/>
<path d="M64.1522 97.6545L64.1736 102.365L58.8835 102.389L64.1522 97.6545Z" fill="#F45B69"/>
<path d="M53.593 102.414L58.8831 102.389L58.9045 107.1L53.593 102.414Z" fill="#F45B69"/>
<path d="M58.8836 102.389L64.1951 107.076L58.905 107.1L58.8836 102.389Z" fill="#F45B69"/>
<path d="M106.466 97.462L111.756 97.438L106.487 102.172L106.466 97.462Z" fill="#2F80ED"/>
<path d="M111.757 97.438L117.047 97.4139L117.068 102.124L111.757 97.438Z" fill="#2F80ED"/>
<path d="M106.488 102.173L111.799 106.859L106.509 106.883L106.488 102.173Z" fill="#F45B69"/>
<path d="M117.068 102.125L117.09 106.835L111.8 106.859L117.068 102.125Z" fill="#2F80ED"/>
<path d="M265.156 96.7403L270.446 96.7162L265.177 101.451L265.156 96.7403Z" fill="#F45B69"/>
<path d="M270.447 96.7162L275.737 96.6921L275.758 101.402L270.447 96.7162Z" fill="#F45B69"/>
<path d="M270.467 101.427L270.489 106.137L265.199 106.161L270.467 101.427Z" fill="#F45B69"/>
<path d="M270.468 101.427L275.779 106.113L270.489 106.137L270.468 101.427Z" fill="#2F80ED"/>
<path d="M318.072 101.21C318.766 101.207 319.454 101.082 320.095 100.842C320.735 100.603 321.317 100.253 321.806 99.8133C322.295 99.3737 322.683 98.8527 322.946 98.28C323.209 97.7073 323.343 97.0941 323.34 96.4756L318.05 96.4996" fill="#2F80ED"/>
<path d="M323.341 96.4756C323.347 97.7248 323.91 98.9204 324.906 99.7992C325.902 100.678 327.25 101.168 328.653 101.162L328.631 96.4515" fill="#2F80ED"/>
<path d="M318.072 101.211C318.766 101.207 319.455 101.326 320.098 101.56C320.741 101.794 321.325 102.138 321.819 102.573C322.312 103.008 322.704 103.526 322.972 104.096C323.241 104.666 323.38 105.278 323.383 105.897L318.093 105.921" fill="#F45B69"/>
<path d="M323.384 105.897C323.378 104.648 323.93 103.447 324.918 102.559C325.906 101.671 327.249 101.169 328.653 101.162L328.674 105.873" fill="#F45B69"/>
<path d="M423.846 96.0184L429.136 95.9944L423.867 100.729L423.846 96.0184Z" fill="#2F80ED"/>
<path d="M429.136 95.9944L434.426 95.9703L434.448 100.681L429.136 95.9944Z" fill="#2F80ED"/>
<path d="M423.867 100.729L429.178 105.416L423.888 105.44L423.867 100.729Z" fill="#2F80ED"/>
<path d="M434.448 100.681L434.469 105.392L429.179 105.416L434.448 100.681Z" fill="#F45B69"/>
<path d="M476.74 95.7779L482.03 95.7538L476.762 100.488L476.74 95.7779Z" fill="#F45B69"/>
<path d="M482.031 95.7538L487.321 95.7297L487.342 100.44L482.031 95.7538Z" fill="#2F80ED"/>
<path d="M482.052 100.465L482.073 105.175L476.783 105.199L482.052 100.465Z" fill="#F45B69"/>
<path d="M482.052 100.465L487.364 105.151L482.074 105.175L482.052 100.465Z" fill="#F45B69"/>
<path d="M582.535 95.2967L587.825 95.2726L582.557 100.007L582.535 95.2967Z" fill="#F45B69"/>
<path d="M593.116 95.2485L593.137 99.9588L587.847 99.9829L593.116 95.2485Z" fill="#2F80ED"/>
<path d="M582.557 100.008L587.847 99.9835L587.868 104.694L582.557 100.008Z" fill="#F45B69"/>
<path d="M587.848 99.9835L593.159 104.67L587.869 104.694L587.848 99.9835Z" fill="#2F80ED"/>
<path d="M635.43 95.0561C635.433 95.6746 635.572 96.2865 635.841 96.8568C636.109 97.4271 636.501 97.9446 636.994 98.3797C637.488 98.8149 638.072 99.1592 638.715 99.393C639.358 99.6268 640.047 99.7455 640.741 99.7423L640.72 95.032" fill="#2F80ED"/>
<path d="M640.742 99.7423C642.145 99.7359 643.488 99.2335 644.476 98.3457C645.464 97.4578 646.016 96.2572 646.011 95.0079L640.721 95.032" fill="#2F80ED"/>
<path d="M635.473 104.477C635.47 103.859 635.604 103.246 635.867 102.673C636.13 102.1 636.518 101.579 637.007 101.14C637.496 100.7 638.078 100.35 638.719 100.111C639.359 99.871 640.047 99.7461 640.741 99.7429L640.763 104.453" fill="#2F80ED"/>
<path d="M640.742 99.7429C642.145 99.7365 643.493 100.227 644.489 101.105C645.485 101.984 646.048 103.18 646.054 104.429L640.764 104.453" fill="#F45B69"/>
<path d="M688.352 99.5258C688.349 98.9072 688.483 98.2941 688.747 97.7214C689.01 97.1487 689.397 96.6276 689.886 96.188C690.376 95.7484 690.957 95.3988 691.598 95.1591C692.239 94.9195 692.926 94.7945 693.621 94.7914L693.642 99.5017" fill="#2F80ED"/>
<path d="M693.615 94.7914C694.31 94.7883 694.999 94.907 695.641 95.1408C696.284 95.3746 696.869 95.7189 697.362 96.154C697.856 96.5892 698.248 97.1067 698.516 97.6769C698.784 98.2472 698.924 98.8591 698.927 99.4777L693.637 99.5017" fill="#F45B69"/>
<path d="M688.352 99.5263C688.358 100.776 688.92 101.971 689.917 102.85C690.913 103.729 692.26 104.219 693.663 104.213L693.642 99.5023" fill="#2F80ED"/>
<path d="M693.658 104.213C695.061 104.206 696.404 103.704 697.392 102.816C698.38 101.928 698.932 100.727 698.927 99.4782L693.637 99.5023" fill="#F45B69"/>
<path d="M741.225 94.5748L746.515 94.5508L741.247 99.2852L741.225 94.5748Z" fill="#F45B69"/>
<path d="M746.516 94.5508L751.806 94.5267L751.827 99.237L746.516 94.5508Z" fill="#2F80ED"/>
<path d="M746.537 99.2617L746.558 103.972L741.268 103.996L746.537 99.2617Z" fill="#F45B69"/>
<path d="M746.538 99.2617L751.849 103.948L746.559 103.972L746.538 99.2617Z" fill="#2F80ED"/>
<path d="M106.702 149.27C106.699 148.652 106.833 148.039 107.096 147.466C107.359 146.893 107.747 146.372 108.236 145.933C108.725 145.493 109.307 145.143 109.948 144.904C110.588 144.664 111.276 144.539 111.97 144.536L111.992 149.246" fill="#2F80ED"/>
<path d="M111.971 144.536C113.374 144.53 114.722 145.02 115.718 145.899C116.714 146.777 117.277 147.973 117.282 149.222L111.992 149.246" fill="#F45B69"/>
<path d="M106.702 149.271C106.704 149.889 106.844 150.501 107.113 151.072C107.381 151.642 107.773 152.159 108.266 152.595C108.759 153.03 109.344 153.374 109.987 153.608C110.63 153.842 111.318 153.96 112.013 153.957L111.992 149.247" fill="#F45B69"/>
<path d="M112.014 153.957C113.417 153.951 114.76 153.448 115.748 152.561C116.736 151.673 117.288 150.472 117.282 149.223L111.992 149.247" fill="#2F80ED"/>
<path d="M159.575 144.319L164.865 144.295L159.596 149.03L159.575 144.319Z" fill="#F45B69"/>
<path d="M164.866 144.295L170.156 144.271L170.177 148.982L164.866 144.295Z" fill="#2F80ED"/>
<path d="M159.596 149.03L164.908 153.717L159.618 153.741L159.596 149.03Z" fill="#F45B69"/>
<path d="M170.177 148.982L170.198 153.693L164.908 153.717L170.177 148.982Z" fill="#F45B69"/>
<path d="M265.37 143.838L270.66 143.814L265.392 148.549L265.37 143.838Z" fill="#2F80ED"/>
<path d="M270.661 143.814L275.951 143.79L275.972 148.5L270.661 143.814Z" fill="#F45B69"/>
<path d="M265.392 148.549L270.703 153.235L265.413 153.259L265.392 148.549Z" fill="#F45B69"/>
<path d="M275.972 148.501L275.994 153.211L270.704 153.235L275.972 148.501Z" fill="#F45B69"/>
<path d="M318.286 148.308C318.28 147.059 318.832 145.858 319.82 144.97C320.808 144.082 322.152 143.58 323.555 143.574L323.576 148.284" fill="#2F80ED"/>
<path d="M323.555 143.574C324.958 143.567 326.306 144.057 327.302 144.936C328.298 145.815 328.861 147.011 328.867 148.26L323.577 148.284" fill="#F45B69"/>
<path d="M318.286 148.309C318.292 149.558 318.854 150.753 319.85 151.632C320.847 152.511 322.194 153.001 323.597 152.995L323.576 148.284" fill="#F45B69"/>
<path d="M323.598 152.995C325.001 152.988 326.345 152.486 327.333 151.598C328.321 150.71 328.872 149.51 328.867 148.26L323.577 148.284" fill="#2F80ED"/>
<path d="M371.165 143.357C371.171 144.606 371.734 145.802 372.73 146.681C373.726 147.559 375.074 148.05 376.477 148.043L376.456 143.333" fill="#2F80ED"/>
<path d="M376.478 148.043C377.881 148.037 379.224 147.534 380.212 146.647C381.2 145.759 381.752 144.558 381.746 143.309L376.456 143.333" fill="#2F80ED"/>
<path d="M371.208 152.778C371.202 151.529 371.754 150.328 372.742 149.44C373.73 148.553 375.074 148.05 376.477 148.044L376.498 152.754" fill="#2F80ED"/>
<path d="M376.478 148.044C377.881 148.037 379.228 148.528 380.224 149.406C381.221 150.285 381.783 151.481 381.789 152.73L376.499 152.754" fill="#2F80ED"/>
<path d="M476.954 142.876C476.96 144.125 477.523 145.321 478.519 146.199C479.515 147.078 480.863 147.568 482.266 147.562L482.244 142.852" fill="#F45B69"/>
<path d="M482.266 147.562C483.669 147.556 485.013 147.053 486.001 146.165C486.989 145.278 487.541 144.077 487.535 142.828L482.245 142.852" fill="#2F80ED"/>
<path d="M476.997 152.297C476.992 151.048 477.543 149.847 478.532 148.959C479.52 148.071 480.863 147.569 482.266 147.563L482.287 152.273" fill="#2F80ED"/>
<path d="M482.266 147.563C483.67 147.556 485.017 148.046 486.013 148.925C487.01 149.804 487.572 151 487.578 152.249L482.288 152.273" fill="#F45B69"/>
<path d="M529.876 147.346C529.871 146.096 530.422 144.896 531.411 144.008C532.399 143.12 533.742 142.618 535.145 142.611L535.15 143.789C534.098 143.794 533.091 144.17 532.349 144.836C531.608 145.502 531.194 146.403 531.199 147.34" fill="#F45B69"/>
<path d="M535.146 142.611C535.84 142.608 536.529 142.727 537.172 142.96C537.815 143.194 538.399 143.539 538.893 143.974C539.386 144.409 539.778 144.926 540.046 145.497C540.315 146.067 540.454 146.679 540.457 147.297L539.135 147.303C539.13 146.366 538.708 145.47 537.961 144.811C537.214 144.152 536.203 143.784 535.151 143.789" fill="#F45B69"/>
<path d="M529.876 147.346C529.882 148.595 530.445 149.791 531.441 150.67C532.437 151.549 533.785 152.039 535.188 152.032L535.182 150.855C534.13 150.86 533.119 150.492 532.372 149.833C531.625 149.174 531.203 148.277 531.199 147.34" fill="#2F80ED"/>
<path d="M535.189 152.032C535.883 152.029 536.571 151.904 537.211 151.665C537.852 151.425 538.434 151.075 538.923 150.636C539.412 150.196 539.799 149.675 540.063 149.102C540.326 148.53 540.46 147.917 540.457 147.298L539.135 147.304C539.139 148.241 538.725 149.141 537.984 149.807C537.243 150.473 536.235 150.85 535.183 150.855" fill="#F45B69"/>
<path d="M582.771 147.105C582.765 145.856 583.317 144.655 584.305 143.767C585.293 142.879 586.637 142.377 588.04 142.371L588.045 143.548C586.993 143.553 585.985 143.93 585.244 144.596C584.503 145.262 584.089 146.162 584.093 147.099" fill="#F45B69"/>
<path d="M588.04 142.371C589.443 142.364 590.791 142.854 591.787 143.733C592.783 144.612 593.346 145.808 593.352 147.057L592.029 147.063C592.025 146.126 591.603 145.229 590.856 144.57C590.109 143.911 589.098 143.543 588.046 143.548" fill="#2F80ED"/>
<path d="M582.771 147.105C582.777 148.355 583.339 149.55 584.336 150.429C585.332 151.308 586.679 151.798 588.083 151.792L588.077 150.614C587.025 150.619 586.014 150.251 585.267 149.592C584.52 148.933 584.098 148.036 584.093 147.099" fill="#2F80ED"/>
<path d="M588.083 151.792C589.486 151.785 590.829 151.283 591.817 150.395C592.805 149.507 593.357 148.307 593.352 147.057L592.029 147.063C592.033 148 591.619 148.901 590.878 149.567C590.137 150.233 589.13 150.609 588.078 150.614" fill="#F45B69"/>
<path d="M635.644 142.154C637.047 142.148 638.395 142.638 639.391 143.517C640.387 144.395 640.95 145.591 640.956 146.84L635.666 146.864" fill="#F45B69"/>
<path d="M640.956 146.84C640.95 145.591 641.502 144.39 642.49 143.503C643.478 142.615 644.822 142.112 646.225 142.106L646.246 146.816" fill="#F45B69"/>
<path d="M635.687 151.575C637.09 151.569 638.433 151.066 639.421 150.179C640.409 149.291 640.961 148.09 640.956 146.841L635.666 146.865" fill="#2F80ED"/>
<path d="M640.956 146.841C640.962 148.09 641.525 149.286 642.521 150.164C643.517 151.043 644.865 151.533 646.268 151.527L646.246 146.817" fill="#F45B69"/>
<path d="M688.566 146.624C688.561 145.374 689.112 144.174 690.1 143.286C691.089 142.398 692.432 141.896 693.835 141.889L693.856 146.6" fill="#F45B69"/>
<path d="M693.829 141.889C695.232 141.883 696.58 142.373 697.576 143.252C698.573 144.131 699.135 145.326 699.141 146.576L693.851 146.6" fill="#F45B69"/>
<path d="M688.566 146.624C688.572 147.874 689.135 149.069 690.131 149.948C691.127 150.827 692.475 151.317 693.878 151.311L693.856 146.6" fill="#2F80ED"/>
<path d="M693.872 151.311C695.275 151.304 696.619 150.802 697.607 149.914C698.595 149.026 699.147 147.825 699.141 146.576L693.851 146.6" fill="#2F80ED"/>
<path d="M1.09924 192.145L6.38929 192.121L1.12067 196.855L1.09924 192.145Z" fill="#2F80ED"/>
<path d="M6.38989 192.121L11.6799 192.097L11.7014 196.807L6.38989 192.121Z" fill="#F45B69"/>
<path d="M6.41077 196.826L6.4322 201.536L1.14215 201.56L6.41077 196.826Z" fill="#F45B69"/>
<path d="M6.41138 196.826L11.7228 201.512L6.4328 201.536L6.41138 196.826Z" fill="#F45B69"/>
<path d="M54 191.904C55.403 191.898 56.7508 192.388 57.7469 193.267C58.743 194.145 59.3058 195.341 59.3115 196.59L54.0214 196.614" fill="#2F80ED"/>
<path d="M59.312 196.59C59.3092 195.972 59.4432 195.359 59.7065 194.786C59.9697 194.213 60.357 193.692 60.8463 193.253C61.3355 192.813 61.9171 192.463 62.5578 192.224C63.1986 191.984 63.8859 191.859 64.5806 191.856L64.602 196.566" fill="#2F80ED"/>
<path d="M54.0429 201.32C55.4459 201.313 56.7892 200.811 57.7773 199.923C58.7653 199.035 59.3172 197.835 59.3115 196.585L54.0215 196.609" fill="#2F80ED"/>
<path d="M59.3121 196.585C59.3178 197.835 59.8805 199.03 60.8766 199.909C61.8727 200.788 63.2205 201.278 64.6235 201.272L64.6021 196.561" fill="#2F80ED"/>
<path d="M159.789 191.423L165.079 191.399L159.81 196.133L159.789 191.423Z" fill="#F45B69"/>
<path d="M165.08 191.399L170.37 191.375L170.391 196.085L165.08 191.399Z" fill="#2F80ED"/>
<path d="M165.101 196.104L165.122 200.814L159.832 200.839L165.101 196.104Z" fill="#F45B69"/>
<path d="M165.101 196.104L170.413 200.79L165.123 200.814L165.101 196.104Z" fill="#2F80ED"/>
<path d="M212.711 195.893C212.706 194.643 213.257 193.443 214.245 192.555C215.233 191.667 216.577 191.165 217.98 191.158L218.001 195.868" fill="#F45B69"/>
<path d="M217.974 191.158C219.377 191.152 220.725 191.642 221.721 192.521C222.717 193.4 223.28 194.595 223.286 195.844L217.996 195.869" fill="#2F80ED"/>
<path d="M212.711 195.888C212.717 197.137 213.28 198.332 214.276 199.211C215.272 200.09 216.62 200.58 218.023 200.574L218.001 195.864" fill="#2F80ED"/>
<path d="M218.017 200.574C219.42 200.567 220.763 200.065 221.751 199.177C222.739 198.289 223.291 197.089 223.286 195.84L217.996 195.864" fill="#2F80ED"/>
<path d="M265.584 190.942L270.874 190.918L265.606 195.652L265.584 190.942Z" fill="#2F80ED"/>
<path d="M270.875 190.918L276.165 190.893L276.187 195.604L270.875 190.918Z" fill="#F45B69"/>
<path d="M270.896 195.623L270.917 200.333L265.627 200.357L270.896 195.623Z" fill="#2F80ED"/>
<path d="M270.896 195.623L276.208 200.309L270.918 200.333L270.896 195.623Z" fill="#2F80ED"/>
<path d="M426.94 194.918C428.401 194.911 429.581 193.852 429.575 192.551C429.569 191.25 428.38 190.201 426.919 190.208C425.458 190.214 424.279 191.274 424.285 192.575C424.291 193.876 425.48 194.925 426.94 194.918Z" fill="#F45B69"/>
<path d="M434.855 190.172L429.565 190.196L429.586 194.906L434.876 194.882L434.855 190.172Z" fill="#2F80ED"/>
<path d="M426.962 199.623C428.423 199.617 429.602 198.557 429.596 197.256C429.59 195.956 428.401 194.907 426.941 194.913C425.48 194.92 424.3 195.98 424.306 197.28C424.312 198.581 425.501 199.63 426.962 199.623Z" fill="#2F80ED"/>
<path d="M434.876 194.877L429.586 194.901L429.608 199.611L434.897 199.587L434.876 194.877Z" fill="#2F80ED"/>
<path d="M477.169 189.979L482.459 189.955L477.19 194.69L477.169 189.979Z" fill="#2F80ED"/>
<path d="M487.749 189.931L487.771 194.641L482.481 194.665L487.749 189.931Z" fill="#2F80ED"/>
<path d="M477.19 194.685L482.48 194.661L482.501 199.371L477.19 194.685Z" fill="#F45B69"/>
<path d="M482.481 194.661L487.792 199.347L482.502 199.371L482.481 194.661Z" fill="#F45B69"/>
<path d="M635.88 193.968C637.283 193.961 638.626 193.459 639.614 192.571C640.602 191.683 641.154 190.483 641.149 189.233L635.858 189.257" fill="#2F80ED"/>
<path d="M641.149 189.233C641.155 190.483 641.718 191.678 642.714 192.557C643.71 193.436 645.058 193.926 646.461 193.92L646.439 189.209" fill="#F45B69"/>
<path d="M635.88 193.963C637.283 193.956 638.631 194.447 639.627 195.325C640.623 196.204 641.186 197.4 641.191 198.649L635.901 198.673" fill="#F45B69"/>
<path d="M641.192 198.649C641.186 197.4 641.738 196.199 642.726 195.311C643.714 194.423 645.058 193.921 646.461 193.915L646.482 198.625" fill="#F45B69"/>
<path d="M691.426 193.715C692.886 193.708 694.066 192.649 694.06 191.348C694.054 190.047 692.865 188.998 691.404 189.005C689.943 189.011 688.764 190.071 688.77 191.372C688.776 192.673 689.965 193.722 691.426 193.715Z" fill="#F45B69"/>
<path d="M699.334 188.969L694.044 188.993L694.065 193.703L699.355 193.679L699.334 188.969Z" fill="#2F80ED"/>
<path d="M691.447 198.42C692.908 198.414 694.087 197.354 694.081 196.053C694.075 194.753 692.886 193.704 691.426 193.71C689.965 193.717 688.785 194.777 688.791 196.077C688.797 197.378 689.986 198.427 691.447 198.42Z" fill="#F45B69"/>
<path d="M699.355 193.674L694.065 193.698L694.086 198.408L699.376 198.384L699.355 193.674Z" fill="#F45B69"/>
<path d="M741.654 188.776L746.944 188.752L741.675 193.487L741.654 188.776Z" fill="#F45B69"/>
<path d="M752.234 188.728L752.256 193.438L746.966 193.462L752.234 188.728Z" fill="#2F80ED"/>
<path d="M741.675 193.482L746.965 193.458L746.987 198.168L741.675 193.482Z" fill="#2F80ED"/>
<path d="M746.966 193.458L752.277 198.144L746.987 198.168L746.966 193.458Z" fill="#F45B69"/>
<path d="M54.2357 243.712C54.23 242.463 54.7819 241.262 55.7699 240.375C56.758 239.487 58.1013 238.984 59.5043 238.978L59.5257 243.688" fill="#2F80ED"/>
<path d="M59.5049 238.978C60.9079 238.972 62.2557 239.462 63.2518 240.341C64.2479 241.219 64.8107 242.415 64.8164 243.664L59.5264 243.688" fill="#2F80ED"/>
<path d="M54.2357 243.713C54.2414 244.962 54.8042 246.158 55.8003 247.037C56.7964 247.915 58.1442 248.406 59.5472 248.399L59.5258 243.689" fill="#2F80ED"/>
<path d="M59.5477 248.399C60.9507 248.393 62.294 247.89 63.2821 247.002C64.2701 246.115 64.822 244.914 64.8163 243.665L59.5263 243.689" fill="#2F80ED"/>
<path d="M107.109 238.761C107.112 239.38 107.251 239.992 107.52 240.562C107.788 241.132 108.18 241.65 108.673 242.085C109.167 242.52 109.751 242.865 110.394 243.098C111.037 243.332 111.726 243.451 112.42 243.448L112.399 238.737" fill="#F45B69"/>
<path d="M112.421 243.448C113.824 243.441 115.167 242.939 116.155 242.051C117.143 241.163 117.695 239.963 117.689 238.713L112.399 238.737" fill="#F45B69"/>
<path d="M107.152 248.183C107.149 247.564 107.283 246.951 107.546 246.378C107.809 245.806 108.197 245.285 108.686 244.845C109.175 244.405 109.757 244.056 110.397 243.816C111.038 243.576 111.725 243.451 112.42 243.448L112.442 248.159" fill="#F45B69"/>
<path d="M112.421 243.448C113.824 243.442 115.172 243.932 116.168 244.811C117.164 245.69 117.727 246.885 117.732 248.134L112.442 248.159" fill="#F45B69"/>
<path d="M212.925 242.991C214.328 242.984 215.672 242.482 216.66 241.594C217.648 240.706 218.2 239.505 218.194 238.256L212.904 238.28" fill="#F45B69"/>
<path d="M218.189 238.256C218.194 239.505 218.757 240.701 219.753 241.58C220.749 242.459 222.097 242.949 223.5 242.942L223.479 238.232" fill="#F45B69"/>
<path d="M212.925 242.991C214.328 242.985 215.676 243.475 216.672 244.354C217.668 245.233 218.231 246.428 218.237 247.677L212.947 247.701" fill="#F45B69"/>
<path d="M218.231 247.677C218.226 246.428 218.778 245.227 219.766 244.34C220.754 243.452 222.097 242.949 223.5 242.943L223.521 247.653" fill="#2F80ED"/>
<path d="M321.359 242.497C322.82 242.491 324 241.431 323.994 240.13C323.988 238.829 322.799 237.78 321.338 237.787C319.877 237.794 318.698 238.853 318.704 240.154C318.71 241.455 319.899 242.504 321.359 242.497Z" fill="#2F80ED"/>
<path d="M329.274 237.751L323.984 237.775L324.005 242.485L329.295 242.461L329.274 237.751Z" fill="#F45B69"/>
<path d="M321.381 247.208C322.842 247.202 324.021 246.142 324.015 244.841C324.009 243.54 322.82 242.491 321.359 242.498C319.899 242.505 318.719 243.564 318.725 244.865C318.731 246.166 319.92 247.215 321.381 247.208Z" fill="#2F80ED"/>
<path d="M329.295 242.462L324.005 242.486L324.027 247.196L329.317 247.172L329.295 242.462Z" fill="#2F80ED"/>
<path d="M424.51 242.028C424.504 240.779 425.056 239.578 426.044 238.69C427.032 237.802 428.375 237.3 429.778 237.294L429.784 238.471C428.732 238.476 427.724 238.853 426.983 239.519C426.242 240.185 425.828 241.085 425.832 242.022" fill="#F45B69"/>
<path d="M429.779 237.294C431.182 237.287 432.53 237.777 433.526 238.656C434.522 239.535 435.085 240.731 435.09 241.98L433.768 241.986C433.764 241.049 433.342 240.152 432.594 239.493C431.847 238.834 430.837 238.467 429.784 238.471" fill="#2F80ED"/>
<path d="M424.51 242.029C424.516 243.278 425.078 244.474 426.074 245.352C427.071 246.231 428.418 246.721 429.821 246.715L429.816 245.537C428.764 245.542 427.753 245.175 427.006 244.515C426.259 243.856 425.837 242.96 425.832 242.023" fill="#2F80ED"/>
<path d="M429.822 246.715C431.225 246.709 432.568 246.206 433.556 245.318C434.544 244.43 435.096 243.23 435.09 241.981L433.768 241.987C433.772 242.924 433.358 243.824 432.617 244.49C431.876 245.156 430.869 245.533 429.817 245.537" fill="#F45B69"/>
<path d="M477.404 241.788C477.399 240.538 477.95 239.338 478.939 238.45C479.927 237.562 481.27 237.059 482.673 237.053L482.678 238.231C481.626 238.235 480.619 238.612 479.877 239.278C479.136 239.944 478.722 240.845 478.727 241.782" fill="#F45B69"/>
<path d="M482.673 237.053C484.076 237.047 485.424 237.537 486.42 238.416C487.417 239.295 487.979 240.49 487.985 241.739L486.663 241.745C486.658 240.808 486.236 239.912 485.489 239.253C484.742 238.594 483.731 238.226 482.679 238.231" fill="#2F80ED"/>
<path d="M477.404 241.788C477.41 243.037 477.973 244.233 478.969 245.112C479.965 245.991 481.313 246.481 482.716 246.474L482.71 245.297C481.658 245.302 480.647 244.934 479.9 244.275C479.153 243.616 478.731 242.719 478.727 241.782" fill="#2F80ED"/>
<path d="M482.716 246.474C484.119 246.468 485.463 245.966 486.451 245.078C487.439 244.19 487.991 242.989 487.985 241.74L486.662 241.746C486.667 242.683 486.253 243.583 485.512 244.249C484.771 244.915 483.763 245.292 482.711 245.297" fill="#2F80ED"/>
<path d="M530.305 241.547C531.708 241.541 533.051 241.038 534.039 240.15C535.027 239.262 535.579 238.062 535.573 236.812L530.283 236.837" fill="#2F80ED"/>
<path d="M535.574 236.812C535.58 238.062 536.143 239.257 537.139 240.136C538.135 241.015 539.483 241.505 540.886 241.499L540.864 236.788" fill="#2F80ED"/>
<path d="M530.305 241.548C531.708 241.541 533.056 242.031 534.052 242.91C535.048 243.789 535.611 244.984 535.617 246.234L530.326 246.258" fill="#F45B69"/>
<path d="M535.617 246.234C535.611 244.984 536.163 243.784 537.151 242.896C538.139 242.008 539.483 241.506 540.886 241.499L540.907 246.21" fill="#F45B69"/>
<path d="M636.073 236.355C636.075 236.974 636.215 237.586 636.483 238.156C636.752 238.726 637.144 239.244 637.637 239.679C638.13 240.114 638.715 240.459 639.358 240.692C640.001 240.926 640.689 241.045 641.384 241.042L641.363 236.331" fill="#F45B69"/>
<path d="M641.385 241.042C642.788 241.035 644.131 240.533 645.119 239.645C646.107 238.757 646.659 237.557 646.654 236.307L641.363 236.331" fill="#F45B69"/>
<path d="M636.116 245.777C636.113 245.158 636.247 244.545 636.51 243.972C636.773 243.4 637.161 242.879 637.65 242.439C638.139 241.999 638.721 241.65 639.361 241.41C640.002 241.17 640.689 241.045 641.384 241.042L641.406 245.753" fill="#2F80ED"/>
<path d="M641.385 241.042C642.788 241.036 644.135 241.526 645.132 242.405C646.128 243.284 646.69 244.479 646.696 245.728L641.406 245.753" fill="#2F80ED"/>
<path d="M741.868 235.874L747.158 235.85L741.889 240.585L741.868 235.874Z" fill="#F45B69"/>
<path d="M747.159 235.85L752.449 235.826L752.47 240.536L747.159 235.85Z" fill="#F45B69"/>
<path d="M741.889 240.585L747.201 245.271L741.911 245.295L741.889 240.585Z" fill="#F45B69"/>
<path d="M752.47 240.537L752.491 245.247L747.202 245.271L752.47 240.537Z" fill="#2F80ED"/>
<path d="M107.344 290.57C108.039 290.566 108.726 290.441 109.367 290.202C110.008 289.962 110.59 289.613 111.079 289.173C111.568 288.733 111.955 288.212 112.219 287.64C112.482 287.067 112.616 286.454 112.613 285.835L107.323 285.859" fill="#F45B69"/>
<path d="M112.614 285.835C112.616 286.454 112.756 287.066 113.024 287.636C113.293 288.206 113.685 288.724 114.178 289.159C114.671 289.594 115.256 289.938 115.899 290.172C116.542 290.406 117.23 290.525 117.925 290.521L117.904 285.811" fill="#2F80ED"/>
<path d="M107.344 290.57C108.747 290.564 110.095 291.054 111.091 291.933C112.087 292.812 112.65 294.007 112.656 295.256L107.366 295.28" fill="#2F80ED"/>
<path d="M112.657 295.256C112.651 294.007 113.203 292.807 114.191 291.919C115.179 291.031 116.522 290.528 117.925 290.522L117.947 295.232" fill="#2F80ED"/>
<path d="M160.218 285.619L165.508 285.595L160.239 290.329L160.218 285.619Z" fill="#F45B69"/>
<path d="M165.508 285.595L170.798 285.571L170.82 290.281L165.508 285.595Z" fill="#F45B69"/>
<path d="M165.529 290.306L165.551 295.016L160.26 295.04L165.529 290.306Z" fill="#F45B69"/>
<path d="M165.53 290.306L170.841 294.992L165.551 295.016L165.53 290.306Z" fill="#F45B69"/>
<path d="M213.14 290.088C213.134 288.839 213.686 287.639 214.674 286.751C215.662 285.863 217.005 285.36 218.408 285.354L218.43 290.064" fill="#F45B69"/>
<path d="M218.403 285.354C219.806 285.348 221.154 285.838 222.15 286.717C223.146 287.596 223.709 288.791 223.714 290.04L218.424 290.064" fill="#2F80ED"/>
<path d="M213.14 290.089C213.145 291.338 213.708 292.534 214.704 293.413C215.7 294.291 217.048 294.782 218.451 294.775L218.43 290.065" fill="#F45B69"/>
<path d="M218.446 294.775C219.849 294.769 221.192 294.267 222.18 293.379C223.168 292.491 223.72 291.29 223.714 290.041L218.424 290.065" fill="#F45B69"/>
<path d="M424.702 284.416C424.705 285.034 424.845 285.646 425.113 286.216C425.382 286.787 425.774 287.304 426.267 287.739C426.76 288.175 427.345 288.519 427.988 288.753C428.631 288.986 429.319 289.105 430.014 289.102L429.993 284.392" fill="#2F80ED"/>
<path d="M430.015 289.102C430.709 289.099 431.397 288.974 432.037 288.734C432.678 288.495 433.26 288.145 433.749 287.705C434.238 287.266 434.626 286.745 434.889 286.172C435.152 285.599 435.286 284.986 435.283 284.368L429.993 284.392" fill="#F45B69"/>
<path d="M424.745 293.837C424.74 292.588 425.292 291.387 426.28 290.499C427.268 289.611 428.611 289.109 430.014 289.103L430.035 293.813" fill="#F45B69"/>
<path d="M430.015 289.103C431.418 289.096 432.765 289.586 433.761 290.465C434.757 291.344 435.32 292.54 435.326 293.789L430.036 293.813" fill="#F45B69"/>
<path d="M530.498 283.935L535.788 283.911L530.519 288.645L530.498 283.935Z" fill="#2F80ED"/>
<path d="M535.788 283.91L541.079 283.886L541.1 288.597L535.788 283.91Z" fill="#2F80ED"/>
<path d="M535.809 288.621L535.831 293.332L530.541 293.356L535.809 288.621Z" fill="#F45B69"/>
<path d="M535.81 288.621L541.121 293.308L535.831 293.332L535.81 288.621Z" fill="#F45B69"/>
<path d="M583.392 283.694C584.087 283.691 584.775 283.809 585.418 284.043C586.061 284.277 586.646 284.621 587.139 285.057C587.632 285.492 588.025 286.009 588.293 286.579C588.561 287.15 588.701 287.762 588.704 288.38L583.414 288.404" fill="#F45B69"/>
<path d="M588.704 288.38C588.699 287.131 589.251 285.93 590.239 285.042C591.227 284.155 592.57 283.652 593.973 283.646L593.994 288.356" fill="#2F80ED"/>
<path d="M583.435 293.115C584.13 293.112 584.817 292.987 585.458 292.747C586.098 292.508 586.68 292.158 587.169 291.718C587.659 291.279 588.046 290.758 588.309 290.185C588.572 289.612 588.706 288.999 588.704 288.381L583.414 288.405" fill="#F45B69"/>
<path d="M588.704 288.381C588.71 289.63 589.273 290.826 590.269 291.704C591.265 292.583 592.613 293.073 594.016 293.067L593.994 288.357" fill="#2F80ED"/>
<path d="M636.287 283.453L641.577 283.429L636.308 288.164L636.287 283.453Z" fill="#2F80ED"/>
<path d="M646.868 283.405L646.889 288.115L641.599 288.14L646.868 283.405Z" fill="#2F80ED"/>
<path d="M636.308 288.164L641.598 288.14L641.62 292.85L636.308 288.164Z" fill="#2F80ED"/>
<path d="M641.599 288.14L646.91 292.826L641.621 292.85L641.599 288.14Z" fill="#2F80ED"/>
<path d="M1.76337 338.154C1.75769 336.905 2.30958 335.704 3.29764 334.817C4.2857 333.929 5.62898 333.426 7.03199 333.42L7.05342 338.13" fill="#F45B69"/>
<path d="M7.03259 333.42C8.4356 333.414 9.7834 333.904 10.7795 334.783C11.7756 335.661 12.3384 336.857 12.3441 338.106L7.05402 338.13" fill="#F45B69"/>
<path d="M1.76343 338.155C1.76911 339.404 2.3319 340.6 3.328 341.479C4.32409 342.357 5.67189 342.848 7.0749 342.841L7.05348 338.131" fill="#F45B69"/>
<path d="M7.0755 342.841C8.47851 342.835 9.82179 342.332 10.8098 341.444C11.7979 340.557 12.3498 339.356 12.3441 338.107L7.05408 338.131" fill="#F45B69"/>
<path d="M54.6427 333.203L59.9327 333.179L54.6641 337.914L54.6427 333.203Z" fill="#2F80ED"/>
<path d="M59.9333 333.179L65.2233 333.155L65.2447 337.866L59.9333 333.179Z" fill="#2F80ED"/>
<path d="M59.9542 337.89L59.9757 342.601L54.6856 342.625L59.9542 337.89Z" fill="#F45B69"/>
<path d="M59.9548 337.89L65.2662 342.576L59.9762 342.601L59.9548 337.89Z" fill="#F45B69"/>
<path d="M107.537 332.963C107.54 333.581 107.68 334.193 107.948 334.764C108.217 335.334 108.609 335.851 109.102 336.286C109.595 336.722 110.18 337.066 110.823 337.3C111.466 337.534 112.154 337.652 112.849 337.649L112.827 332.939" fill="#F45B69"/>
<path d="M112.849 337.649C114.252 337.643 115.596 337.14 116.584 336.252C117.572 335.365 118.124 334.164 118.118 332.915L112.828 332.939" fill="#F45B69"/>
<path d="M107.58 342.384C107.577 341.765 107.711 341.152 107.975 340.58C108.238 340.007 108.625 339.486 109.114 339.046C109.604 338.607 110.185 338.257 110.826 338.017C111.467 337.778 112.154 337.653 112.849 337.65L112.87 342.36" fill="#2F80ED"/>
<path d="M112.849 337.65C114.252 337.643 115.6 338.133 116.596 339.012C117.592 339.891 118.155 341.087 118.161 342.336L112.871 342.36" fill="#F45B69"/>
<path d="M160.432 332.722L165.722 332.698L160.453 337.433L160.432 332.722Z" fill="#2F80ED"/>
<path d="M165.723 332.698L171.013 332.674L171.034 337.384L165.723 332.698Z" fill="#F45B69"/>
<path d="M160.453 337.433L165.765 342.119L160.475 342.143L160.453 337.433Z" fill="#2F80ED"/>
<path d="M171.034 337.385L171.055 342.095L165.765 342.119L171.034 337.385Z" fill="#F45B69"/>
<path d="M213.332 332.482L218.623 332.457L213.354 337.192L213.332 332.482Z" fill="#F45B69"/>
<path d="M218.617 332.458L223.907 332.433L223.928 337.144L218.617 332.458Z" fill="#F45B69"/>
<path d="M213.354 337.192L218.665 341.879L213.375 341.903L213.354 337.192Z" fill="#F45B69"/>
<path d="M223.928 337.144L223.95 341.855L218.66 341.879L223.928 337.144Z" fill="#F45B69"/>
<path d="M266.248 336.951C266.243 335.702 266.795 334.501 267.783 333.614C268.771 332.726 270.114 332.223 271.517 332.217L271.538 336.927" fill="#2F80ED"/>
<path d="M271.518 332.217C272.921 332.211 274.268 332.701 275.265 333.58C276.261 334.458 276.823 335.654 276.829 336.903L271.539 336.927" fill="#2F80ED"/>
<path d="M266.248 336.952C266.254 338.201 266.817 339.397 267.813 340.275C268.809 341.154 270.157 341.645 271.56 341.638L271.538 336.928" fill="#2F80ED"/>
<path d="M271.561 341.638C272.964 341.632 274.307 341.129 275.295 340.241C276.283 339.354 276.835 338.153 276.829 336.904L271.539 336.928" fill="#2F80ED"/>
<path d="M319.121 332C319.127 333.25 319.69 334.445 320.686 335.324C321.682 336.203 323.03 336.693 324.433 336.687L324.412 331.976" fill="#F45B69"/>
<path d="M324.434 336.687C325.837 336.68 327.18 336.178 328.168 335.29C329.156 334.402 329.708 333.202 329.702 331.952L324.412 331.976" fill="#F45B69"/>
<path d="M319.164 341.422C319.159 340.172 319.71 338.972 320.699 338.084C321.687 337.196 323.03 336.694 324.433 336.687L324.454 341.398" fill="#F45B69"/>
<path d="M324.434 336.687C325.837 336.681 327.185 337.171 328.181 338.05C329.177 338.929 329.74 340.124 329.745 341.373L324.455 341.398" fill="#F45B69"/>
<path d="M530.712 331.038L536.002 331.014L530.733 335.748L530.712 331.038Z" fill="#2F80ED"/>
<path d="M536.003 331.014L541.293 330.99L541.314 335.7L536.003 331.014Z" fill="#F45B69"/>
<path d="M530.733 335.749L536.045 340.435L530.755 340.459L530.733 335.749Z" fill="#2F80ED"/>
<path d="M541.314 335.701L541.336 340.411L536.046 340.435L541.314 335.701Z" fill="#F45B69"/>
<path d="M583.628 335.508C583.622 334.258 584.174 333.058 585.162 332.17C586.15 331.282 587.494 330.78 588.897 330.773L588.902 331.951C587.85 331.956 586.842 332.332 586.101 332.998C585.36 333.664 584.946 334.565 584.95 335.502" fill="#F45B69"/>
<path d="M588.897 330.773C590.3 330.767 591.648 331.257 592.644 332.136C593.64 333.015 594.203 334.21 594.209 335.46L592.886 335.466C592.882 334.529 592.46 333.632 591.713 332.973C590.966 332.314 589.955 331.946 588.903 331.951" fill="#F45B69"/>
<path d="M583.628 335.508C583.634 336.758 584.196 337.953 585.192 338.832C586.189 339.711 587.536 340.201 588.939 340.195L588.934 339.017C587.882 339.022 586.871 338.654 586.124 337.995C585.377 337.336 584.955 336.439 584.95 335.502" fill="#F45B69"/>
<path d="M588.94 340.195C590.343 340.188 591.686 339.686 592.674 338.798C593.663 337.91 594.214 336.709 594.209 335.46L592.886 335.466C592.891 336.403 592.477 337.304 591.736 337.969C590.995 338.635 589.987 339.012 588.935 339.017" fill="#F45B69"/>
<path d="M689.402 330.316L694.692 330.292L689.423 335.027L689.402 330.316Z" fill="#2F80ED"/>
<path d="M694.686 330.292L699.976 330.268L699.998 334.978L694.686 330.292Z" fill="#F45B69"/>
<path d="M689.423 335.027L694.735 339.713L689.445 339.737L689.423 335.027Z" fill="#2F80ED"/>
<path d="M699.998 334.979L700.019 339.689L694.729 339.713L699.998 334.979Z" fill="#2F80ED"/>
<path d="M742.318 334.786C742.312 333.537 742.864 332.336 743.852 331.448C744.84 330.56 746.183 330.058 747.586 330.051L747.608 334.762" fill="#F45B69"/>
<path d="M747.587 330.051C748.99 330.045 750.338 330.535 751.334 331.414C752.33 332.293 752.893 333.489 752.898 334.738L747.609 334.762" fill="#F45B69"/>
<path d="M742.318 334.786C742.323 336.036 742.886 337.231 743.882 338.11C744.878 338.989 746.226 339.479 747.629 339.473L747.608 334.762" fill="#F45B69"/>
<path d="M747.63 339.473C749.033 339.466 750.376 338.964 751.364 338.076C752.352 337.188 752.904 335.988 752.898 334.738L747.609 334.762" fill="#F45B69"/>
<path d="M1.95618 380.542C3.35919 380.536 4.70699 381.026 5.70308 381.905C6.69918 382.783 7.26197 383.979 7.26765 385.228L1.9776 385.252" fill="#F45B69"/>
<path d="M7.26825 385.228C7.26257 383.979 7.81446 382.778 8.80252 381.89C9.79057 381.003 11.1339 380.5 12.5369 380.494L12.5583 385.204" fill="#F45B69"/>
<path d="M1.99909 389.963C3.40209 389.957 4.74538 389.454 5.73344 388.567C6.7215 387.679 7.27339 386.478 7.26771 385.229L1.97766 385.253" fill="#F45B69"/>
<path d="M7.26831 385.229C7.27399 386.478 7.83678 387.674 8.83287 388.552C9.82897 389.431 11.1768 389.921 12.5798 389.915L12.5583 385.205" fill="#F45B69"/>
<path d="M54.8569 380.301L60.147 380.277L54.8784 385.012L54.8569 380.301Z" fill="#2F80ED"/>
<path d="M60.1475 380.277L65.4375 380.253L65.459 384.963L60.1475 380.277Z" fill="#F45B69"/>
<path d="M60.1685 384.988L60.1899 389.699L54.8998 389.723L60.1685 384.988Z" fill="#2F80ED"/>
<path d="M60.169 384.988L65.4805 389.674L60.1904 389.699L60.169 384.988Z" fill="#2F80ED"/>
<path d="M216.213 384.278C217.674 384.271 218.853 383.211 218.847 381.911C218.841 380.61 217.652 379.561 216.192 379.567C214.731 379.574 213.551 380.634 213.557 381.935C213.563 383.235 214.752 384.284 216.213 384.278Z" fill="#F45B69"/>
<path d="M224.121 379.531L218.831 379.555L218.853 384.266L224.143 384.242L224.121 379.531Z" fill="#2F80ED"/>
<path d="M216.235 388.989C217.695 388.982 218.875 387.922 218.869 386.622C218.863 385.321 217.674 384.272 216.213 384.278C214.752 384.285 213.573 385.345 213.579 386.646C213.585 387.946 214.774 388.995 216.235 388.989Z" fill="#F45B69"/>
<path d="M224.143 384.242L218.853 384.266L218.874 388.977L224.164 388.953L224.143 384.242Z" fill="#2F80ED"/>
<path d="M319.357 383.809C320.052 383.805 320.739 383.681 321.38 383.441C322.021 383.201 322.602 382.852 323.092 382.412C323.581 381.972 323.968 381.451 324.231 380.879C324.495 380.306 324.629 379.693 324.626 379.074L319.336 379.098" fill="#2F80ED"/>
<path d="M324.626 379.074C324.632 380.324 325.195 381.519 326.191 382.398C327.187 383.277 328.535 383.767 329.938 383.761L329.916 379.05" fill="#2F80ED"/>
<path d="M319.357 383.809C320.052 383.806 320.74 383.925 321.383 384.159C322.026 384.392 322.611 384.737 323.104 385.172C323.597 385.607 323.989 386.125 324.258 386.695C324.526 387.265 324.666 387.877 324.669 388.496L319.378 388.52" fill="#2F80ED"/>
<path d="M324.669 388.496C324.664 387.246 325.216 386.046 326.204 385.158C327.192 384.27 328.535 383.768 329.938 383.761L329.959 388.471" fill="#2F80ED"/>
<path d="M372.237 378.858L377.527 378.834L372.258 383.568L372.237 378.858Z" fill="#F45B69"/>
<path d="M377.527 378.834L382.817 378.81L382.839 383.52L377.527 378.834Z" fill="#2F80ED"/>
<path d="M377.548 383.545L377.57 388.255L372.279 388.279L377.548 383.545Z" fill="#F45B69"/>
<path d="M377.549 383.545L382.86 388.231L377.57 388.255L377.549 383.545Z" fill="#2F80ED"/>
<path d="M425.153 383.327C425.147 382.078 425.699 380.878 426.687 379.99C427.675 379.102 429.018 378.599 430.421 378.593L430.427 379.771C429.374 379.775 428.367 380.152 427.626 380.818C426.885 381.484 426.471 382.384 426.475 383.321" fill="#2F80ED"/>
<path d="M430.422 378.593C431.825 378.587 433.173 379.077 434.169 379.956C435.165 380.834 435.727 382.03 435.733 383.279L434.411 383.285C434.406 382.348 433.984 381.452 433.237 380.793C432.49 380.133 431.479 379.766 430.427 379.771" fill="#F45B69"/>
<path d="M425.152 383.328C425.158 384.577 425.721 385.773 426.717 386.652C427.713 387.531 429.061 388.021 430.464 388.014L430.459 386.837C429.406 386.842 428.395 386.474 427.648 385.815C426.901 385.156 426.479 384.259 426.475 383.322" fill="#2F80ED"/>
<path d="M430.465 388.014C431.868 388.008 433.211 387.506 434.199 386.618C435.187 385.73 435.739 384.529 435.733 383.28L434.411 383.286C434.415 384.223 434.001 385.123 433.26 385.789C432.519 386.455 431.512 386.832 430.459 386.837" fill="#2F80ED"/>
<path d="M480.692 383.075C482.153 383.068 483.332 382.008 483.326 380.708C483.321 379.407 482.132 378.358 480.671 378.365C479.21 378.371 478.03 379.431 478.036 380.732C478.042 382.032 479.231 383.081 480.692 383.075Z" fill="#2F80ED"/>
<path d="M488.606 378.328L483.316 378.352L483.338 383.063L488.628 383.039L488.606 378.328Z" fill="#2F80ED"/>
<path d="M480.713 387.786C482.174 387.779 483.353 386.719 483.348 385.419C483.342 384.118 482.153 383.069 480.692 383.075C479.231 383.082 478.052 384.142 478.058 385.443C478.064 386.743 479.252 387.792 480.713 387.786Z" fill="#F45B69"/>
<path d="M488.628 383.039L483.338 383.063L483.359 387.774L488.649 387.75L488.628 383.039Z" fill="#F45B69"/>
<path d="M530.926 378.136L536.216 378.112L530.948 382.846L530.926 378.136Z" fill="#2F80ED"/>
<path d="M536.217 378.112L541.507 378.088L541.528 382.798L536.217 378.112Z" fill="#F45B69"/>
<path d="M536.238 382.823L536.259 387.533L530.969 387.557L536.238 382.823Z" fill="#F45B69"/>
<path d="M536.238 382.823L541.55 387.509L536.26 387.533L536.238 382.823Z" fill="#2F80ED"/>
<path d="M583.821 377.895L589.111 377.871L583.842 382.606L583.821 377.895Z" fill="#F45B69"/>
<path d="M594.401 377.847L594.423 382.558L589.133 382.582L594.401 377.847Z" fill="#F45B69"/>
<path d="M583.842 382.606L589.132 382.582L589.154 387.293L583.842 382.606Z" fill="#F45B69"/>
<path d="M589.133 382.582L594.444 387.268L589.154 387.293L589.133 382.582Z" fill="#2F80ED"/>
<path d="M636.737 382.365C636.734 381.746 636.868 381.133 637.131 380.561C637.394 379.988 637.782 379.467 638.271 379.027C638.76 378.588 639.342 378.238 639.982 377.998C640.623 377.759 641.311 377.634 642.005 377.631L642.027 382.341" fill="#F45B69"/>
<path d="M642.006 377.631C643.409 377.624 644.757 378.114 645.753 378.993C646.749 379.872 647.312 381.068 647.317 382.317L642.027 382.341" fill="#F45B69"/>
<path d="M636.737 382.366C636.739 382.984 636.879 383.596 637.148 384.166C637.416 384.737 637.808 385.254 638.301 385.689C638.794 386.125 639.379 386.469 640.022 386.703C640.665 386.936 641.353 387.055 642.048 387.052L642.027 382.342" fill="#2F80ED"/>
<path d="M642.049 387.052C643.452 387.046 644.795 386.543 645.783 385.655C646.771 384.767 647.323 383.567 647.317 382.318L642.028 382.342" fill="#2F80ED"/>
<path d="M742.511 377.174C742.516 378.423 743.079 379.618 744.075 380.497C745.071 381.376 746.419 381.866 747.822 381.86L747.801 377.149" fill="#F45B69"/>
<path d="M747.823 381.86C749.226 381.853 750.569 381.351 751.557 380.463C752.545 379.575 753.097 378.375 753.091 377.125L747.801 377.149" fill="#F45B69"/>
<path d="M742.553 386.595C742.548 385.346 743.1 384.145 744.088 383.257C745.076 382.369 746.419 381.867 747.822 381.86L747.843 386.571" fill="#F45B69"/>
<path d="M747.823 381.86C749.226 381.854 750.574 382.344 751.57 383.223C752.566 384.102 753.129 385.297 753.134 386.547L747.844 386.571" fill="#F45B69"/>
<path d="M2.19184 432.35C3.59484 432.344 4.93813 431.841 5.92619 430.954C6.91424 430.066 7.46614 428.865 7.46045 427.616L2.17041 427.64" fill="#2F80ED"/>
<path d="M7.46106 427.616C7.46674 428.865 8.02953 430.061 9.02562 430.939C10.0217 431.818 11.3695 432.308 12.7725 432.302L12.7511 427.592" fill="#F45B69"/>
<path d="M2.19189 432.351C3.5949 432.344 4.9427 432.835 5.9388 433.713C6.93489 434.592 7.49768 435.788 7.50337 437.037L2.21332 437.061" fill="#F45B69"/>
<path d="M7.50397 437.037C7.49829 435.788 8.05018 434.587 9.03823 433.699C10.0263 432.811 11.3696 432.309 12.7726 432.303L12.794 437.013" fill="#2F80ED"/>
<path d="M107.987 431.869C107.984 431.25 108.118 430.637 108.382 430.065C108.645 429.492 109.032 428.971 109.521 428.531C110.011 428.092 110.592 427.742 111.233 427.502C111.874 427.263 112.561 427.138 113.256 427.135L113.261 428.312C112.209 428.317 111.201 428.694 110.46 429.36C109.719 430.026 109.305 430.926 109.31 431.863" fill="#F45B69"/>
<path d="M113.256 427.135C114.659 427.128 116.007 427.618 117.003 428.497C117.999 429.376 118.562 430.572 118.568 431.821L117.245 431.827C117.241 430.89 116.819 429.993 116.072 429.334C115.325 428.675 114.314 428.307 113.262 428.312" fill="#F45B69"/>
<path d="M107.987 431.87C107.99 432.488 108.129 433.1 108.398 433.67C108.666 434.241 109.058 434.758 109.552 435.193C110.045 435.628 110.63 435.973 111.272 436.206C111.915 436.44 112.604 436.559 113.299 436.556L113.293 435.378C112.241 435.383 111.23 435.015 110.483 434.356C109.736 433.697 109.314 432.8 109.31 431.864" fill="#2F80ED"/>
<path d="M113.299 436.556C114.702 436.549 116.045 436.047 117.034 435.159C118.022 434.271 118.573 433.071 118.568 431.821L117.245 431.827C117.25 432.764 116.836 433.665 116.095 434.331C115.354 434.997 114.346 435.373 113.294 435.378" fill="#2F80ED"/>
<path d="M213.761 426.677L219.051 426.653L213.782 431.388L213.761 426.677Z" fill="#F45B69"/>
<path d="M224.335 426.629L224.357 431.34L219.067 431.364L224.335 426.629Z" fill="#2F80ED"/>
<path d="M213.782 431.388L219.072 431.364L219.094 436.075L213.782 431.388Z" fill="#F45B69"/>
<path d="M219.067 431.364L224.378 436.051L219.088 436.075L219.067 431.364Z" fill="#2F80ED"/>
<path d="M266.677 431.147C266.671 429.898 267.223 428.697 268.211 427.809C269.199 426.922 270.542 426.419 271.946 426.413L271.967 431.123" fill="#2F80ED"/>
<path d="M271.946 426.413C273.349 426.406 274.697 426.897 275.693 427.775C276.689 428.654 277.252 429.85 277.258 431.099L271.968 431.123" fill="#2F80ED"/>
<path d="M266.677 431.148C266.683 432.397 267.245 433.593 268.242 434.471C269.238 435.35 270.585 435.84 271.988 435.834L271.967 431.124" fill="#F45B69"/>
<path d="M271.989 435.834C273.392 435.828 274.735 435.325 275.723 434.437C276.711 433.55 277.263 432.349 277.258 431.1L271.968 431.124" fill="#F45B69"/>
<path d="M372.451 425.956L377.741 425.932L372.472 430.666L372.451 425.956Z" fill="#2F80ED"/>
<path d="M377.742 425.932L383.032 425.908L383.053 430.618L377.742 425.932Z" fill="#F45B69"/>
<path d="M377.762 430.642L377.784 435.353L372.494 435.377L377.762 430.642Z" fill="#2F80ED"/>
<path d="M377.763 430.642L383.074 435.329L377.784 435.353L377.763 430.642Z" fill="#2F80ED"/>
<path d="M425.345 425.715L430.635 425.691L425.367 430.425L425.345 425.715Z" fill="#2F80ED"/>
<path d="M430.636 425.691L435.926 425.667L435.947 430.377L430.636 425.691Z" fill="#2F80ED"/>
<path d="M430.657 430.402L430.678 435.112L425.388 435.136L430.657 430.402Z" fill="#2F80ED"/>
<path d="M430.657 430.402L435.969 435.088L430.679 435.112L430.657 430.402Z" fill="#F45B69"/>
<path d="M478.24 425.474C479.643 425.468 480.991 425.958 481.987 426.837C482.983 427.716 483.546 428.911 483.551 430.161L478.261 430.185" fill="#2F80ED"/>
<path d="M483.552 430.161C483.546 428.911 484.098 427.711 485.086 426.823C486.074 425.935 487.417 425.433 488.82 425.426L488.842 430.137" fill="#2F80ED"/>
<path d="M478.283 434.896C479.686 434.889 481.029 434.387 482.017 433.499C483.005 432.611 483.557 431.411 483.551 430.161L478.261 430.185" fill="#2F80ED"/>
<path d="M483.552 430.161C483.558 431.411 484.12 432.606 485.117 433.485C486.113 434.364 487.46 434.854 488.863 434.848L488.842 430.137" fill="#F45B69"/>
<path d="M531.162 429.944C531.156 428.695 531.708 427.494 532.696 426.606C533.684 425.719 535.027 425.216 536.43 425.21L536.452 429.92" fill="#F45B69"/>
<path d="M536.431 425.21C537.126 425.207 537.814 425.325 538.457 425.559C539.1 425.793 539.685 426.137 540.178 426.572C540.671 427.008 541.063 427.525 541.332 428.095C541.6 428.666 541.74 429.277 541.743 429.896L536.452 429.92" fill="#F45B69"/>
<path d="M531.162 429.945C531.167 431.194 531.73 432.39 532.726 433.268C533.722 434.147 535.07 434.637 536.473 434.631L536.452 429.921" fill="#F45B69"/>
<path d="M536.474 434.631C537.169 434.628 537.856 434.503 538.497 434.263C539.137 434.024 539.719 433.674 540.208 433.234C540.698 432.795 541.085 432.274 541.348 431.701C541.611 431.128 541.745 430.515 541.743 429.897L536.453 429.921" fill="#F45B69"/>
<path d="M584.035 424.993L589.325 424.969L584.056 429.704L584.035 424.993Z" fill="#F45B69"/>
<path d="M589.326 424.969L594.616 424.945L594.637 429.655L589.326 424.969Z" fill="#2F80ED"/>
<path d="M584.056 429.704L589.368 434.39L584.078 434.414L584.056 429.704Z" fill="#2F80ED"/>
<path d="M594.637 429.656L594.658 434.366L589.368 434.39L594.637 429.656Z" fill="#F45B69"/>
<path d="M636.951 429.463C638.354 429.457 639.697 428.954 640.685 428.066C641.673 427.178 642.225 425.978 642.22 424.729L636.93 424.753" fill="#2F80ED"/>
<path d="M642.22 424.729C642.226 425.978 642.789 427.173 643.785 428.052C644.781 428.931 646.129 429.421 647.532 429.415L647.51 424.705" fill="#2F80ED"/>
<path d="M636.951 429.464C638.354 429.457 639.702 429.947 640.698 430.826C641.694 431.705 642.257 432.901 642.262 434.15L636.972 434.174" fill="#2F80ED"/>
<path d="M642.263 434.15C642.257 432.901 642.809 431.7 643.797 430.812C644.785 429.924 646.129 429.422 647.532 429.415L647.553 434.126" fill="#2F80ED"/>
<path d="M689.852 429.222C689.846 427.973 690.398 426.772 691.386 425.885C692.374 424.997 693.717 424.494 695.12 424.488L695.126 425.666C694.073 425.67 693.066 426.047 692.325 426.713C691.584 427.379 691.17 428.279 691.174 429.216" fill="#F45B69"/>
<path d="M695.115 424.488C696.518 424.482 697.866 424.972 698.862 425.851C699.858 426.729 700.421 427.925 700.426 429.174L699.104 429.18C699.1 428.243 698.677 427.347 697.93 426.688C697.183 426.028 696.172 425.661 695.12 425.666" fill="#2F80ED"/>
<path d="M689.852 429.223C689.857 430.472 690.42 431.668 691.416 432.547C692.412 433.425 693.76 433.916 695.163 433.909L695.158 432.732C694.106 432.736 693.095 432.369 692.348 431.71C691.601 431.051 691.178 430.154 691.174 429.217" fill="#2F80ED"/>
<path d="M695.158 433.909C696.561 433.903 697.904 433.4 698.892 432.513C699.88 431.625 700.432 430.424 700.426 429.175L699.104 429.181C699.108 430.118 698.694 431.018 697.953 431.684C697.212 432.35 696.205 432.727 695.152 432.732" fill="#F45B69"/>
<path d="M742.725 424.271C742.73 425.521 743.293 426.716 744.289 427.595C745.285 428.474 746.633 428.964 748.036 428.958L748.015 424.247" fill="#2F80ED"/>
<path d="M748.037 428.958C749.44 428.951 750.783 428.449 751.771 427.561C752.759 426.673 753.311 425.473 753.305 424.223L748.016 424.247" fill="#F45B69"/>
<path d="M742.768 433.693C742.762 432.443 743.314 431.243 744.302 430.355C745.29 429.467 746.633 428.965 748.036 428.958L748.058 433.669" fill="#2F80ED"/>
<path d="M748.037 428.958C749.44 428.952 750.788 429.442 751.784 430.321C752.78 431.2 753.343 432.395 753.348 433.645L748.059 433.669" fill="#2F80ED"/>
<path d="M2.38464 474.743L7.67469 474.719L2.40607 479.454L2.38464 474.743Z" fill="#2F80ED"/>
<path d="M7.67529 474.719L12.9653 474.695L12.9868 479.405L7.67529 474.719Z" fill="#F45B69"/>
<path d="M2.40613 479.454L7.7176 484.14L2.42755 484.165L2.40613 479.454Z" fill="#2F80ED"/>
<path d="M12.9868 479.406L13.0082 484.116L7.7182 484.14L12.9868 479.406Z" fill="#2F80ED"/>
<path d="M55.2853 474.503L60.5754 474.479L55.3068 479.213L55.2853 474.503Z" fill="#F45B69"/>
<path d="M65.866 474.455L65.8874 479.165L60.5974 479.189L65.866 474.455Z" fill="#2F80ED"/>
<path d="M55.3068 479.214L60.5969 479.19L60.6183 483.9L55.3068 479.214Z" fill="#F45B69"/>
<path d="M60.5975 479.19L65.9089 483.876L60.6189 483.9L60.5975 479.19Z" fill="#2F80ED"/>
<path d="M108.18 474.262L113.47 474.238L108.201 478.972L108.18 474.262Z" fill="#F45B69"/>
<path d="M118.761 474.214L118.782 478.924L113.492 478.948L118.761 474.214Z" fill="#2F80ED"/>
<path d="M108.201 478.973L113.491 478.949L113.513 483.659L108.201 478.973Z" fill="#2F80ED"/>
<path d="M113.492 478.949L118.803 483.635L113.513 483.659L113.492 478.949Z" fill="#2F80ED"/>
<path d="M161.074 474.022L166.365 473.998L161.096 478.732L161.074 474.022Z" fill="#F45B69"/>
<path d="M166.365 473.998L171.655 473.973L171.677 478.684L166.365 473.998Z" fill="#F45B69"/>
<path d="M166.386 478.708L166.407 483.419L161.117 483.443L166.386 478.708Z" fill="#F45B69"/>
<path d="M166.387 478.708L171.698 483.395L166.408 483.419L166.387 478.708Z" fill="#F45B69"/>
<path d="M213.975 473.781L219.265 473.757L213.997 478.491L213.975 473.781Z" fill="#2F80ED"/>
<path d="M219.26 473.757L224.55 473.733L224.571 478.443L219.26 473.757Z" fill="#F45B69"/>
<path d="M219.287 478.468L219.308 483.178L214.018 483.202L219.287 478.468Z" fill="#2F80ED"/>
<path d="M219.281 478.468L224.593 483.154L219.303 483.178L219.281 478.468Z" fill="#F45B69"/>
<path d="M372.665 473.059L377.955 473.035L372.686 477.769L372.665 473.059Z" fill="#2F80ED"/>
<path d="M377.956 473.035L383.246 473.011L383.267 477.721L377.956 473.035Z" fill="#F45B69"/>
<path d="M372.686 477.77L377.998 482.456L372.708 482.48L372.686 477.77Z" fill="#2F80ED"/>
<path d="M383.267 477.722L383.288 482.432L377.998 482.456L383.267 477.722Z" fill="#F45B69"/>
<path d="M425.559 472.819L430.849 472.795L425.581 477.529L425.559 472.819Z" fill="#F45B69"/>
<path d="M430.85 472.795L436.14 472.77L436.162 477.481L430.85 472.795Z" fill="#2F80ED"/>
<path d="M430.871 477.505L430.892 482.216L425.602 482.24L430.871 477.505Z" fill="#2F80ED"/>
<path d="M430.872 477.505L436.183 482.192L430.893 482.216L430.872 477.505Z" fill="#2F80ED"/>
<path d="M478.476 477.288C478.47 476.039 479.022 474.838 480.01 473.951C480.998 473.063 482.341 472.56 483.744 472.554L483.766 477.264" fill="#F45B69"/>
<path d="M483.745 472.554C485.148 472.548 486.496 473.038 487.492 473.917C488.488 474.795 489.051 475.991 489.056 477.24L483.766 477.264" fill="#2F80ED"/>
<path d="M478.475 477.289C478.478 477.907 478.618 478.519 478.886 479.09C479.155 479.66 479.547 480.177 480.04 480.612C480.533 481.048 481.118 481.392 481.761 481.626C482.404 481.86 483.092 481.978 483.787 481.975L483.765 477.265" fill="#F45B69"/>
<path d="M483.787 481.975C484.482 481.972 485.169 481.847 485.81 481.607C486.451 481.368 487.033 481.018 487.522 480.578C488.011 480.139 488.398 479.618 488.662 479.045C488.925 478.472 489.059 477.859 489.056 477.241L483.766 477.265" fill="#F45B69"/>
<path d="M531.354 472.337C531.36 473.587 531.923 474.782 532.919 475.661C533.915 476.54 535.263 477.03 536.666 477.023L536.645 472.313" fill="#2F80ED"/>
<path d="M536.667 477.023C537.362 477.02 538.049 476.895 538.69 476.656C539.33 476.416 539.912 476.067 540.401 475.627C540.89 475.187 541.278 474.666 541.541 474.094C541.804 473.521 541.938 472.908 541.936 472.289L536.645 472.313" fill="#2F80ED"/>
<path d="M531.397 481.759C531.392 480.509 531.944 479.309 532.932 478.421C533.92 477.533 535.263 477.031 536.666 477.024L536.688 481.734" fill="#2F80ED"/>
<path d="M536.667 477.024C537.362 477.021 538.05 477.14 538.693 477.374C539.336 477.607 539.92 477.952 540.414 478.387C540.907 478.822 541.299 479.339 541.567 479.91C541.836 480.48 541.975 481.092 541.978 481.71L536.688 481.734" fill="#F45B69"/>
<path d="M584.249 472.097L589.539 472.073L584.271 476.807L584.249 472.097Z" fill="#F45B69"/>
<path d="M589.54 472.073L594.83 472.049L594.851 476.759L589.54 472.073Z" fill="#2F80ED"/>
<path d="M589.561 476.784L589.582 481.494L584.292 481.518L589.561 476.784Z" fill="#F45B69"/>
<path d="M589.561 476.784L594.873 481.47L589.583 481.494L589.561 476.784Z" fill="#F45B69"/>
<path d="M639.81 476.554C641.271 476.548 642.451 475.488 642.445 474.187C642.439 472.887 641.25 471.838 639.789 471.844C638.328 471.851 637.149 472.911 637.155 474.211C637.161 475.512 638.35 476.561 639.81 476.554Z" fill="#2F80ED"/>
<path d="M647.725 471.808L642.435 471.832L642.456 476.542L647.746 476.518L647.725 471.808Z" fill="#F45B69"/>
<path d="M639.832 481.265C641.292 481.259 642.472 480.199 642.466 478.898C642.46 477.597 641.271 476.548 639.81 476.555C638.349 476.562 637.17 477.621 637.176 478.922C637.182 480.223 638.371 481.272 639.832 481.265Z" fill="#F45B69"/>
<path d="M647.746 476.519L642.456 476.543L642.477 481.253L647.767 481.229L647.746 476.519Z" fill="#2F80ED"/>
<path d="M690.045 471.616L695.335 471.592L690.066 476.326L690.045 471.616Z" fill="#2F80ED"/>
<path d="M700.619 471.567L700.641 476.278L695.351 476.302L700.619 471.567Z" fill="#F45B69"/>
<path d="M690.066 476.326L695.356 476.302L695.377 481.013L690.066 476.326Z" fill="#F45B69"/>
<path d="M695.35 476.302L700.662 480.989L695.372 481.013L695.35 476.302Z" fill="#2F80ED"/>
<path d="M742.939 471.375C742.945 472.624 743.508 473.82 744.504 474.699C745.5 475.577 746.848 476.067 748.251 476.061L748.229 471.351" fill="#F45B69"/>
<path d="M748.251 476.061C749.654 476.055 750.998 475.552 751.986 474.665C752.974 473.777 753.525 472.576 753.52 471.327L748.23 471.351" fill="#2F80ED"/>
<path d="M742.982 480.796C742.976 479.547 743.528 478.346 744.516 477.458C745.504 476.571 746.848 476.068 748.251 476.062L748.272 480.772" fill="#F45B69"/>
<path d="M748.251 476.062C749.654 476.055 751.002 476.546 751.998 477.424C752.994 478.303 753.557 479.499 753.562 480.748L748.273 480.772" fill="#2F80ED"/>
<path d="M5.26532 526.54C6.72613 526.533 7.90555 525.473 7.89963 524.172C7.89372 522.872 6.7047 521.823 5.2439 521.829C3.78309 521.836 2.60367 522.896 2.60959 524.196C2.61551 525.497 3.80452 526.546 5.26532 526.54Z" fill="#2F80ED"/>
<path d="M13.1796 521.793L7.88953 521.817L7.91095 526.528L13.201 526.503L13.1796 521.793Z" fill="#2F80ED"/>
<path d="M5.28681 531.25C6.74762 531.244 7.92704 530.184 7.92112 528.883C7.91521 527.583 6.72619 526.533 5.26539 526.54C3.80458 526.547 2.62516 527.607 2.63107 528.907C2.63699 530.208 3.826 531.257 5.28681 531.25Z" fill="#F45B69"/>
<path d="M13.201 526.504L7.91101 526.528L7.93244 531.238L13.2225 531.214L13.201 526.504Z" fill="#F45B69"/>
<path d="M58.166 526.299C59.6268 526.292 60.8063 525.232 60.8003 523.932C60.7944 522.631 59.6054 521.582 58.1446 521.589C56.6838 521.595 55.5044 522.655 55.5103 523.956C55.5162 525.257 56.7052 526.306 58.166 526.299Z" fill="#2F80ED"/>
<path d="M66.0802 521.553L60.7902 521.577L60.8116 526.287L66.1017 526.263L66.0802 521.553Z" fill="#2F80ED"/>
<path d="M58.1875 531.01C59.6483 531.003 60.8277 529.943 60.8218 528.643C60.8159 527.342 59.6269 526.293 58.1661 526.3C56.7053 526.306 55.5259 527.366 55.5318 528.667C55.5377 529.967 56.7267 531.017 58.1875 531.01Z" fill="#2F80ED"/>
<path d="M66.1017 526.263L60.8117 526.287L60.8331 530.998L66.1232 530.974L66.1017 526.263Z" fill="#F45B69"/>
<path d="M108.394 521.36L113.684 521.336L108.416 526.07L108.394 521.36Z" fill="#2F80ED"/>
<path d="M118.975 521.312L118.996 526.022L113.706 526.046L118.975 521.312Z" fill="#F45B69"/>
<path d="M108.416 526.071L113.706 526.047L113.727 530.757L108.416 526.071Z" fill="#2F80ED"/>
<path d="M113.706 526.047L119.018 530.733L113.728 530.757L113.706 526.047Z" fill="#F45B69"/>
<path d="M267.105 525.349C267.1 524.099 267.652 522.899 268.64 522.011C269.628 521.123 270.971 520.621 272.374 520.614L272.395 525.325" fill="#2F80ED"/>
<path d="M272.375 520.614C273.778 520.608 275.125 521.098 276.121 521.977C277.118 522.856 277.68 524.051 277.686 525.3L272.396 525.325" fill="#F45B69"/>
<path d="M267.105 525.349C267.111 526.598 267.674 527.794 268.67 528.673C269.666 529.552 271.014 530.042 272.417 530.035L272.395 525.325" fill="#F45B69"/>
<path d="M272.417 530.035C273.82 530.029 275.164 529.527 276.152 528.639C277.14 527.751 277.692 526.55 277.686 525.301L272.396 525.325" fill="#2F80ED"/>
<path d="M425.774 519.916L431.064 519.892L425.795 524.627L425.774 519.916Z" fill="#F45B69"/>
<path d="M431.064 519.892L436.354 519.868L436.376 524.579L431.064 519.892Z" fill="#F45B69"/>
<path d="M431.085 524.603L431.107 529.314L425.817 529.338L431.085 524.603Z" fill="#F45B69"/>
<path d="M431.086 524.603L436.397 529.29L431.107 529.314L431.086 524.603Z" fill="#F45B69"/>
<path d="M478.668 519.676L483.958 519.652L478.69 524.386L478.668 519.676Z" fill="#2F80ED"/>
<path d="M483.959 519.652L489.249 519.628L489.27 524.338L483.959 519.652Z" fill="#F45B69"/>
<path d="M483.98 524.363L484.001 529.073L478.711 529.097L483.98 524.363Z" fill="#2F80ED"/>
<path d="M483.98 524.363L489.292 529.049L484.002 529.073L483.98 524.363Z" fill="#F45B69"/>
<path d="M531.59 524.146C532.285 524.142 532.972 524.017 533.613 523.778C534.254 523.538 534.835 523.189 535.324 522.749C535.814 522.309 536.201 521.788 536.464 521.216C536.728 520.643 536.862 520.03 536.859 519.411L531.569 519.435" fill="#F45B69"/>
<path d="M536.859 519.411C536.862 520.03 537.002 520.642 537.27 521.212C537.539 521.782 537.931 522.3 538.424 522.735C538.917 523.17 539.502 523.514 540.145 523.748C540.788 523.982 541.476 524.101 542.171 524.097L542.15 519.387" fill="#2F80ED"/>
<path d="M531.59 524.146C532.993 524.14 534.341 524.63 535.337 525.509C536.333 526.388 536.896 527.583 536.902 528.832L531.612 528.856" fill="#F45B69"/>
<path d="M536.902 528.832C536.897 527.583 537.449 526.383 538.437 525.495C539.425 524.607 540.768 524.104 542.171 524.098L542.193 528.808" fill="#F45B69"/>
<path d="M587.13 523.893C588.591 523.886 589.77 522.826 589.764 521.526C589.758 520.225 588.569 519.176 587.108 519.183C585.648 519.189 584.468 520.249 584.474 521.55C584.48 522.851 585.669 523.9 587.13 523.893Z" fill="#F45B69"/>
<path d="M595.044 519.147L589.754 519.171L589.776 523.881L595.066 523.857L595.044 519.147Z" fill="#2F80ED"/>
<path d="M587.151 528.604C588.612 528.597 589.792 527.537 589.786 526.237C589.78 524.936 588.591 523.887 587.13 523.894C585.669 523.9 584.49 524.96 584.496 526.261C584.501 527.561 585.69 528.611 587.151 528.604Z" fill="#2F80ED"/>
<path d="M595.065 523.857L589.775 523.882L589.797 528.592L595.087 528.568L595.065 523.857Z" fill="#F45B69"/>
<path d="M637.379 523.664C637.377 523.046 637.511 522.433 637.774 521.86C638.037 521.287 638.424 520.766 638.914 520.327C639.403 519.887 639.984 519.537 640.625 519.298C641.266 519.058 641.953 518.933 642.648 518.93L642.653 520.108C641.601 520.112 640.594 520.489 639.853 521.155C639.112 521.821 638.698 522.721 638.702 523.658" fill="#F45B69"/>
<path d="M642.649 518.93C644.052 518.924 645.4 519.414 646.396 520.293C647.392 521.171 647.955 522.367 647.96 523.616L646.638 523.622C646.634 522.685 646.211 521.789 645.464 521.13C644.717 520.47 643.707 520.103 642.654 520.108" fill="#2F80ED"/>
<path d="M637.379 523.665C637.382 524.284 637.522 524.895 637.79 525.466C638.059 526.036 638.451 526.553 638.944 526.989C639.437 527.424 640.022 527.768 640.665 528.002C641.308 528.236 641.996 528.354 642.691 528.351L642.686 527.174C641.633 527.178 640.622 526.811 639.875 526.152C639.128 525.493 638.706 524.596 638.702 523.659" fill="#2F80ED"/>
<path d="M642.692 528.351C644.095 528.345 645.438 527.842 646.426 526.955C647.414 526.067 647.966 524.866 647.96 523.617L646.638 523.623C646.642 524.56 646.228 525.46 645.487 526.126C644.746 526.792 643.738 527.169 642.686 527.174" fill="#F45B69"/>
<path d="M692.925 523.412C694.386 523.405 695.565 522.345 695.559 521.045C695.554 519.744 694.365 518.695 692.904 518.701C691.443 518.708 690.263 519.768 690.269 521.069C690.275 522.369 691.464 523.418 692.925 523.412Z" fill="#2F80ED"/>
<path d="M700.833 518.665L695.543 518.689L695.565 523.4L700.855 523.376L700.833 518.665Z" fill="#2F80ED"/>
<path d="M692.947 528.123C694.407 528.116 695.587 527.056 695.581 525.755C695.575 524.455 694.386 523.406 692.925 523.412C691.464 523.419 690.285 524.479 690.291 525.78C690.297 527.08 691.486 528.129 692.947 528.123Z" fill="#2F80ED"/>
<path d="M700.855 523.376L695.565 523.4L695.586 528.111L700.876 528.087L700.855 523.376Z" fill="#2F80ED"/>
<path d="M743.175 523.183C743.169 521.934 743.721 520.733 744.709 519.845C745.697 518.958 747.04 518.455 748.443 518.449L748.449 519.626C747.396 519.631 746.389 520.008 745.648 520.674C744.907 521.34 744.493 522.24 744.497 523.177" fill="#2F80ED"/>
<path d="M748.444 518.449C749.847 518.442 751.195 518.933 752.191 519.811C753.187 520.69 753.75 521.886 753.755 523.135L752.433 523.141C752.431 522.677 752.326 522.218 752.125 521.791C751.923 521.363 751.629 520.975 751.26 520.648C750.89 520.322 750.451 520.064 749.969 519.888C749.487 519.713 748.97 519.624 748.449 519.626" fill="#F45B69"/>
<path d="M743.175 523.184C743.18 524.433 743.743 525.629 744.739 526.507C745.735 527.386 747.083 527.876 748.486 527.87L748.481 526.692C747.429 526.697 746.418 526.33 745.671 525.67C744.924 525.011 744.501 524.115 744.497 523.178" fill="#2F80ED"/>
<path d="M748.487 527.87C749.89 527.864 751.233 527.361 752.221 526.473C753.209 525.586 753.761 524.385 753.755 523.136L752.433 523.142C752.435 523.606 752.335 524.065 752.137 524.495C751.94 524.924 751.649 525.315 751.282 525.645C750.915 525.975 750.479 526.237 749.999 526.417C749.518 526.596 749.003 526.69 748.482 526.692" fill="#2F80ED"/>
</svg>
