<svg width="500" height="503" viewBox="0 0 500 503" fill="none" xmlns="http://www.w3.org/2000/svg">
<g filter="url(#filter0_d)">
<path d="M298.889 44.7228C332.778 45.2783 380.833 59.1672 393.889 93.6117C407.923 130.637 406.264 138.556 429.167 178.889C452.038 219.166 439.816 275.833 415.371 299.907C380.747 334.006 350.646 325.543 289.167 325.278C246.111 325.093 198.001 356.315 173.611 364.445C157.222 369.908 122.222 375.834 100 353.056C75.4606 327.903 80.9261 281.389 76.6667 263.612C72.205 244.989 42.6589 179.142 74.4445 127.778C112.778 65.8339 198.322 43.0739 298.889 44.7228Z" fill="url(#paint0_linear)"/>
<path d="M349.693 419.116C361.925 416.896 407.224 407.826 409.26 426.205C410.972 441.667 374.244 440.375 356.667 439.538C334.306 438.473 288.676 443.342 286.957 434.078C285.927 428.519 299.538 425.556 313.585 424.727C325.133 424.044 331.777 422.367 349.693 419.116Z" fill="url(#paint1_linear)"/>
<path d="M144.522 433.082C133.334 431.819 86.0139 424.548 88.3333 442.871C90.185 457.501 125.094 451.778 140.926 453.057C163.287 454.862 201.463 452.486 202.212 443.123C202.662 437.504 190.169 435.608 177.468 435.871C167.027 436.087 160.909 434.932 144.522 433.082Z" fill="url(#paint2_linear)"/>
<path d="M215.44 277.386C215.44 276.807 215.909 276.337 216.488 276.337H228.281C228.86 276.337 229.329 276.807 229.329 277.386V289.178C229.329 289.757 228.86 290.227 228.281 290.227H216.488C215.909 290.227 215.44 289.757 215.44 289.178V277.386Z" fill="url(#paint3_linear)"/>
<path d="M221.898 287.344C221.726 287.344 221.563 287.264 221.457 287.126L218.054 282.682C217.868 282.438 217.914 282.09 218.158 281.903C218.401 281.717 218.75 281.762 218.937 282.007L221.852 285.814L225.802 279.482C225.964 279.221 226.307 279.143 226.567 279.304C226.828 279.467 226.907 279.809 226.744 280.07L222.369 287.084C222.273 287.238 222.107 287.336 221.924 287.345C221.916 287.344 221.907 287.344 221.898 287.344Z" fill="#FDE1A7"/>
<path d="M215.44 297.863C215.44 297.284 215.909 296.814 216.488 296.814H228.281C228.86 296.814 229.329 297.284 229.329 297.863V309.656C229.329 310.234 228.86 310.704 228.281 310.704H216.488C215.909 310.704 215.44 310.234 215.44 309.656V297.863Z" fill="url(#paint4_linear)"/>
<path d="M221.898 307.822C221.726 307.822 221.563 307.741 221.457 307.603L218.054 303.159C217.868 302.916 217.914 302.567 218.158 302.381C218.401 302.194 218.75 302.239 218.937 302.484L221.852 306.292L225.802 299.959C225.964 299.699 226.307 299.619 226.567 299.782C226.828 299.944 226.907 300.287 226.744 300.547L222.369 307.561C222.273 307.716 222.107 307.813 221.924 307.822C221.916 307.822 221.907 307.822 221.898 307.822Z" fill="#FDE1A7"/>
<path d="M215.44 318.341C215.44 317.762 215.909 317.292 216.488 317.292H228.281C228.86 317.292 229.329 317.762 229.329 318.341V330.133C229.329 330.712 228.86 331.182 228.281 331.182H216.488C215.909 331.182 215.44 330.712 215.44 330.133V318.341Z" fill="url(#paint5_linear)"/>
<path d="M221.898 328.299C221.726 328.299 221.563 328.218 221.457 328.081L218.054 323.636C217.868 323.393 217.914 323.044 218.158 322.858C218.401 322.672 218.75 322.717 218.937 322.962L221.852 326.769L225.802 320.436C225.964 320.176 226.307 320.097 226.567 320.259C226.828 320.421 226.907 320.764 226.744 321.024L222.369 328.038C222.273 328.193 222.107 328.291 221.924 328.299C221.916 328.299 221.907 328.299 221.898 328.299Z" fill="#FDE1A7"/>
<path d="M271.702 199.376H193.229V269.306H271.702V199.376Z" fill="url(#paint6_linear)"/>
<path d="M230.614 205.324H201.216V208.102H230.614V205.324Z" fill="url(#paint7_linear)"/>
<path d="M263.716 208.889C263.716 208.276 263.218 207.778 262.604 207.778H255.938C255.324 207.778 254.827 208.276 254.827 208.889V261.667H263.716V208.889Z" fill="url(#paint8_linear)"/>
<path d="M263.716 228.982V208.889C263.716 208.276 263.218 207.778 262.604 207.778H255.938C255.324 207.778 254.827 208.276 254.827 208.889V228.982H263.716Z" fill="url(#paint9_linear)"/>
<path d="M236.91 220.695C236.91 220.082 236.412 219.584 235.799 219.584H229.132C228.519 219.584 228.021 220.082 228.021 220.695V261.667H236.91V220.695Z" fill="url(#paint10_linear)"/>
<path d="M236.91 244.352V220.695C236.91 220.082 236.412 219.584 235.799 219.584H229.132C228.519 219.584 228.021 220.082 228.021 220.695V244.352H236.91Z" fill="url(#paint11_linear)"/>
<path d="M250.313 228.473C250.313 227.859 249.815 227.362 249.202 227.362H242.535C241.922 227.362 241.424 227.859 241.424 228.473V261.667H250.313V228.473Z" fill="url(#paint12_linear)"/>
<path d="M250.313 244.352V228.473C250.313 227.859 249.815 227.362 249.202 227.362H242.535C241.922 227.362 241.424 227.859 241.424 228.473V244.352H250.313Z" fill="url(#paint13_linear)"/>
<path d="M223.507 213.195C223.507 212.582 223.009 212.084 222.396 212.084H215.729C215.116 212.084 214.618 212.582 214.618 213.195V261.667H223.507V213.195Z" fill="url(#paint14_linear)"/>
<path d="M223.507 230.371V213.195C223.507 212.582 223.009 212.084 222.396 212.084H215.729C215.116 212.084 214.618 212.582 214.618 213.195V230.371H223.507Z" fill="url(#paint15_linear)"/>
<path d="M210.104 237.639C210.104 237.026 209.607 236.528 208.993 236.528H202.327C201.713 236.528 201.216 237.026 201.216 237.639V261.667H210.104V237.639Z" fill="url(#paint16_linear)"/>
<path d="M210.104 251.667V237.639C210.104 237.026 209.607 236.528 208.993 236.528H202.327C201.713 236.528 201.216 237.026 201.216 237.639V251.667H210.104Z" fill="url(#paint17_linear)"/>
<path d="M263.716 262.223H201.354C201.048 262.223 200.799 261.974 200.799 261.667C200.799 261.36 201.048 261.112 201.354 261.112H263.716C264.023 261.112 264.271 261.36 264.271 261.667C264.271 261.974 264.022 262.223 263.716 262.223Z" fill="#1AA9E8"/>
<path d="M166.806 94.445H88.0555V141.251H166.806V94.445Z" fill="url(#paint18_linear)"/>
<path d="M98.7833 134.306H121.759V105.093L98.7833 134.306Z" fill="#00E2EC"/>
<path d="M143.056 127.223V134.306H157.222V110.371L143.056 127.223Z" fill="#00E2EC"/>
<path d="M121.759 105.093V134.306H143.056V127.223L121.759 105.093Z" fill="#0090B2"/>
<path d="M164.074 119.514L157.222 110.371V134.306H164.074V119.514Z" fill="#0090B2"/>
<path d="M161.111 100.556H130.972V103.334H161.111V100.556Z" fill="url(#paint19_linear)"/>
<path d="M113.548 126.858C113.362 126.858 113.181 126.765 113.076 126.596L99.9311 105.458C99.7689 105.198 99.8489 104.855 100.109 104.693C100.37 104.531 100.712 104.611 100.874 104.872L114.019 126.009C114.181 126.269 114.101 126.612 113.841 126.774C113.749 126.831 113.648 126.858 113.548 126.858Z" fill="#1AA9E8"/>
<path d="M100.403 108.151C102.052 108.151 103.389 106.814 103.389 105.165C103.389 103.516 102.052 102.179 100.403 102.179C98.7536 102.179 97.4167 103.516 97.4167 105.165C97.4167 106.814 98.7536 108.151 100.403 108.151Z" fill="#F95FC3"/>
<path d="M113.547 128.206C114.599 128.206 115.451 127.354 115.451 126.302C115.451 125.251 114.599 124.398 113.547 124.398C112.496 124.398 111.643 125.251 111.643 126.302C111.643 127.354 112.496 128.206 113.547 128.206Z" fill="white"/>
<path d="M176.683 151.589C174.153 145.273 173.349 138.181 174.762 131.007C176.838 120.466 183.263 111.888 191.804 106.766L183.812 91.0583C170.628 98.5683 160.662 111.553 157.501 127.608C155.323 138.666 156.686 149.599 160.799 159.239L176.683 151.589Z" fill="white"/>
<path d="M196.258 104.493C202.763 101.714 210.141 100.792 217.605 102.262C228.433 104.394 237.182 111.119 242.249 120.009L258.136 112.358C250.724 98.6561 237.481 88.2456 221.004 85.0006C209.52 82.7389 198.17 84.2944 188.265 88.7861L196.258 104.493Z" fill="white"/>
<path d="M260.307 116.862L244.424 124.512C246.958 130.832 247.763 137.928 246.35 145.106C242.457 164.874 223.275 177.744 203.507 173.851C192.674 171.717 183.922 164.988 178.856 156.092L162.97 163.743C170.379 177.45 183.626 187.866 200.107 191.112C229.409 196.882 257.841 177.806 263.611 148.505C265.79 137.442 264.425 126.504 260.307 116.862Z" fill="white"/>
<path d="M179.936 157.879C176.233 152.171 174.074 145.367 174.074 138.056C174.074 127.312 178.72 117.654 186.111 110.978L175.234 97.1116C163.749 107.028 156.481 121.693 156.481 138.056C156.481 149.327 159.931 159.791 165.829 168.454L179.936 157.879Z" fill="url(#paint20_linear)"/>
<path d="M190.042 107.888C195.888 103.905 202.949 101.574 210.556 101.574C221.592 101.574 231.476 106.482 238.166 114.226L252.273 103.649C242.355 91.6372 227.349 83.9817 210.556 83.9817C198.852 83.9817 188.016 87.7011 179.166 94.0217L190.042 107.888Z" fill="url(#paint21_linear)"/>
<path d="M255.274 107.648L241.168 118.223C244.876 123.934 247.037 130.741 247.037 138.056C247.037 158.204 230.704 174.538 210.556 174.538C199.515 174.538 189.628 169.627 182.938 161.877L168.83 172.453C178.748 184.471 193.757 192.13 210.555 192.13C240.419 192.13 264.629 167.92 264.629 138.056C264.63 126.781 261.177 116.313 255.274 107.648Z" fill="url(#paint22_linear)"/>
<path d="M189.406 146.007C192.624 154.561 200.877 160.649 210.556 160.649C217.501 160.649 223.712 157.512 227.857 152.581L210.556 138.056L189.406 146.007Z" fill="url(#paint23_linear)"/>
<path d="M218.569 116.931L210.556 138.056L227.857 152.581C231.157 148.653 233.148 143.588 233.148 138.056C233.148 128.401 227.089 120.165 218.569 116.931Z" fill="url(#paint24_linear)"/>
<path d="M218.569 116.931C216.078 115.986 213.378 115.463 210.556 115.463C198.079 115.463 187.963 125.578 187.963 138.056C187.963 140.855 188.476 143.533 189.406 146.007L210.556 138.056L218.569 116.931Z" fill="url(#paint25_linear)"/>
<path d="M397.331 70.4867H276.173V146.389H397.331V70.4867Z" fill="url(#paint26_linear)"/>
<path d="M288.441 85.91C290.09 85.91 291.427 84.5731 291.427 82.9239C291.427 81.2747 290.09 79.9378 288.441 79.9378C286.791 79.9378 285.454 81.2747 285.454 82.9239C285.454 84.5731 286.791 85.91 288.441 85.91Z" fill="#FDE1A7"/>
<path d="M304.463 85.91C306.112 85.91 307.449 84.5731 307.449 82.9239C307.449 81.2747 306.112 79.9378 304.463 79.9378C302.814 79.9378 301.477 81.2747 301.477 82.9239C301.477 84.5731 302.814 85.91 304.463 85.91Z" fill="#00E2EC"/>
<path d="M320.485 85.91C322.134 85.91 323.471 84.5731 323.471 82.9239C323.471 81.2747 322.134 79.9378 320.485 79.9378C318.836 79.9378 317.499 81.2747 317.499 82.9239C317.499 84.5731 318.836 85.91 320.485 85.91Z" fill="#C7A0F6"/>
<path d="M323.472 90.9261H285.454V93.7039H323.472V90.9261Z" fill="url(#paint27_linear)"/>
<path d="M388.048 89.2244C386.207 85.6011 383.447 82.28 379.529 82.4078C371.011 82.6856 365.454 104.908 359.529 105.186C353.603 105.463 355.64 82.7783 348.048 82.9633C338.511 83.1961 338.14 127.13 326.196 128.148C314.251 129.167 311.566 104.537 306.196 104.908C300.826 105.278 298.517 124.219 297.584 128.334C296.652 132.448 291.937 133.241 291.937 133.241H388.048V89.2244Z" fill="url(#paint28_linear)"/>
<path d="M388.048 88.9817C374.899 89.5372 372.121 124.908 358.603 124.074C347.389 123.383 349.251 104.352 339.437 103.797C329.621 103.241 324.992 126.297 313.14 127.037C307.377 127.397 302.77 123.797 297.492 124.259C292.214 124.722 286.751 131.759 285.454 133.241H388.048V88.9817Z" fill="url(#paint29_linear)"/>
<path d="M259.257 60.7878H210.183V76.3433H259.257V60.7878Z" fill="url(#paint30_linear)"/>
<path d="M254.756 71.2739C252.814 71.2739 251.838 70.0161 250.977 68.9061C250.171 67.8661 249.474 66.9683 248.077 66.9683C246.679 66.9683 245.982 67.8661 245.176 68.9061C244.314 70.0161 243.339 71.2739 241.397 71.2739C239.454 71.2739 238.479 70.0161 237.618 68.9061C236.812 67.8661 236.115 66.9683 234.718 66.9683C233.321 66.9683 232.623 67.8661 231.817 68.9061C230.957 70.0161 229.981 71.2739 228.039 71.2739C226.098 71.2739 225.122 70.0161 224.262 68.9061C223.456 67.8661 222.759 66.9683 221.362 66.9683C219.965 66.9683 219.268 67.8661 218.462 68.9061C217.602 70.0161 216.626 71.2739 214.684 71.2739C214.377 71.2739 214.128 71.025 214.128 70.7183C214.128 70.4117 214.377 70.1628 214.684 70.1628C216.082 70.1628 216.778 69.265 217.584 68.225C218.445 67.115 219.421 65.8572 221.362 65.8572C223.304 65.8572 224.279 67.1156 225.14 68.225C225.946 69.265 226.642 70.1628 228.039 70.1628C229.437 70.1628 230.133 69.265 230.939 68.225C231.8 67.115 232.776 65.8572 234.718 65.8572C236.659 65.8572 237.636 67.115 238.496 68.225C239.303 69.265 239.999 70.1628 241.397 70.1628C242.794 70.1628 243.491 69.265 244.298 68.225C245.159 67.115 246.134 65.8572 248.077 65.8572C250.019 65.8572 250.994 67.115 251.855 68.225C252.662 69.265 253.358 70.1628 254.756 70.1628C255.063 70.1628 255.312 70.4117 255.312 70.7183C255.312 71.025 255.063 71.2739 254.756 71.2739Z" fill="#05C5DA"/>
<path d="M217.08 93.5089C216.934 93.5089 216.789 93.4517 216.68 93.3389C216.467 93.1178 216.473 92.7661 216.693 92.5533L233.919 75.9433C234.14 75.7306 234.492 75.7361 234.705 75.9572C234.918 76.1783 234.912 76.53 234.691 76.7428L217.465 93.3528C217.357 93.4572 217.218 93.5089 217.08 93.5089Z" fill="#1AA9E8"/>
<path d="M217.08 95.1522C218.294 95.1522 219.278 94.1677 219.278 92.9533C219.278 91.7389 218.294 90.7544 217.08 90.7544C215.865 90.7544 214.881 91.7389 214.881 92.9533C214.881 94.1677 215.865 95.1522 217.08 95.1522Z" fill="#FDE1A7"/>
<path d="M306.382 234.993C306.819 235.739 307.778 235.99 308.524 235.554L334.031 224.038C334.777 223.602 335.028 222.643 334.592 221.897L323.003 202.607C322.567 201.861 321.609 201.611 320.862 202.047L292.487 209.911C291.74 210.347 291.488 211.306 291.924 212.052L306.382 234.993Z" fill="url(#paint31_linear)"/>
<path d="M335.98 222.218L323.638 201.674C323.173 200.879 322.152 200.612 321.358 201.077L291.136 209.453C290.341 209.917 290.073 210.938 290.538 211.733L305.936 236.166C306.402 236.96 307.423 237.227 308.217 236.763L335.383 224.498C336.177 224.033 336.446 223.012 335.98 222.218ZM308.05 232.693L295 211.598L321.528 203.612L332.847 222.153L308.05 232.693Z" fill="url(#paint32_linear)"/>
<path d="M326.077 215.764L305.922 223.718L304.289 221.377L324.747 213.721L326.077 215.764Z" fill="#FDE1A7"/>
<path d="M312.314 216.025C313.552 216.025 314.554 215.022 314.554 213.785C314.554 212.548 313.552 211.545 312.314 211.545C311.077 211.545 310.074 212.548 310.074 213.785C310.074 215.022 311.077 216.025 312.314 216.025Z" fill="#F95FC3"/>
<path d="M304.683 218.958C305.92 218.958 306.923 217.955 306.923 216.718C306.923 215.481 305.92 214.478 304.683 214.478C303.446 214.478 302.443 215.481 302.443 216.718C302.443 217.955 303.446 218.958 304.683 218.958Z" fill="#FE687E"/>
<path d="M319.479 213.184C320.592 213.184 321.494 212.282 321.494 211.169C321.494 210.056 320.592 209.153 319.479 209.153C318.366 209.153 317.463 210.056 317.463 211.169C317.463 212.282 318.366 213.184 319.479 213.184Z" fill="#00E2EC"/>
<path d="M353.241 367.037C352.589 355.942 355.083 342.336 354.991 338.077L336.852 337.037C336.852 337.037 336.503 350.016 336.667 361.251C336.852 373.936 339.491 410.325 338.704 416.019C338.214 419.568 335.316 421.858 332.632 423.548C333.921 424.208 336.204 424.663 339.469 423.047C343.163 421.219 347.323 419.177 350.257 419.075C350.139 417.159 350.019 415.366 350 414.168C349.908 408.38 354.028 380.417 353.241 367.037Z" fill="url(#paint33_linear)"/>
<path d="M339.469 423.047C336.204 424.662 333.922 424.208 332.632 423.548C331.933 423.988 331.249 424.389 330.626 424.759C328.252 426.169 324.45 426.723 324.862 428.195C325.186 429.352 334.154 429.878 338.959 428.509C341.228 427.863 345.116 425.778 345.116 425.778L345.267 428.613C345.267 428.613 349.578 428.934 350.041 428.425C350.744 427.651 350.503 423.09 350.257 419.074C347.323 419.177 343.163 421.219 339.469 423.047Z" fill="url(#paint34_linear)"/>
<path d="M374.862 423.427C378.719 421.517 383.086 419.376 386.032 419.454C385.911 417.541 385.77 415.743 385.694 414.538C385.463 410.834 385.371 404.446 385.834 391.019C386.298 377.593 383.89 368.149 383.057 360.186C382.223 352.223 382.223 343.797 382.13 339.538L364.861 341.667C364.861 341.667 366.189 354.382 367.361 365.556C368.469 376.112 375.186 409.954 374.399 415.648C373.915 419.148 370.449 422.014 367.877 423.852C369.135 424.551 371.471 425.104 374.862 423.427Z" fill="url(#paint35_linear)"/>
<path d="M360.556 429.167C360.556 429.954 369.547 430.258 374.352 428.889C376.621 428.243 380.509 426.158 380.509 426.158L380.659 428.993C380.659 428.993 385.278 429.167 385.741 428.658C386.441 427.887 386.281 423.418 386.031 419.454C383.085 419.376 378.719 421.518 374.862 423.427C371.471 425.105 369.134 424.551 367.876 423.852C367.161 424.362 366.511 424.797 366.018 425.139C363.75 426.713 360.556 427.639 360.556 429.167Z" fill="url(#paint36_linear)"/>
<path d="M376.667 273.149C378.611 276.112 383.89 285.557 385.833 295.417C387.627 304.513 387.5 309.723 388.472 316.806C389.444 323.889 394.444 339.445 394.167 340.417C393.889 341.389 391.667 342.848 387.316 342.964C384.063 343.051 381.668 342.779 375.834 344.723C370.001 346.668 363.427 347.779 355.463 346.946C347.501 346.112 341.204 342.779 337.223 342.686C333.241 342.593 327.963 342.593 327.408 341.482C326.852 340.371 330.468 331.778 331.25 326.389C332.134 320.307 334.074 308.704 338.333 297.223C342.326 286.462 347.963 274.074 347.963 274.074C347.963 274.074 356.25 274.028 362.222 273.889C368.194 273.751 376.667 273.149 376.667 273.149Z" fill="url(#paint37_linear)"/>
<path d="M360.787 343.62C359.024 343.62 357.236 343.523 355.405 343.331C351.011 342.872 347.051 341.639 343.868 340.648C341.226 339.826 338.943 339.115 337.21 339.075L336.112 339.051C333.022 338.988 329.519 338.916 327.932 338.333C327.643 338.228 327.496 337.908 327.602 337.621C327.707 337.333 328.025 337.184 328.314 337.291C329.727 337.809 333.28 337.882 336.134 337.941L337.235 337.964C339.124 338.008 341.476 338.739 344.198 339.587C347.497 340.614 351.235 341.778 355.52 342.227C362.552 342.962 368.953 342.264 375.657 340.03C380.768 338.327 383.308 338.296 385.998 338.264C386.423 338.259 386.853 338.253 387.299 338.242C391.197 338.137 392.821 336.977 393.225 336.623C393.456 336.422 393.806 336.445 394.009 336.677C394.21 336.908 394.186 337.259 393.955 337.461C393.346 337.993 391.48 339.242 387.328 339.353C386.877 339.364 386.441 339.369 386.011 339.375C383.41 339.406 380.954 339.435 376.008 341.083C370.894 342.789 365.953 343.62 360.787 343.62Z" fill="#CFAEFF"/>
<path d="M362.559 339.918C360.348 339.918 358.028 339.791 355.591 339.535C350.985 339.053 346.887 337.789 343.272 336.674C340.658 335.868 338.401 335.172 336.613 334.999C335.136 334.857 333.793 334.975 332.61 335.08C331.209 335.205 329.997 335.313 328.987 334.942C328.699 334.836 328.552 334.517 328.657 334.229C328.763 333.941 329.081 333.793 329.37 333.899C330.146 334.184 331.243 334.087 332.512 333.973C333.743 333.864 335.138 333.74 336.72 333.893C338.621 334.076 340.928 334.788 343.599 335.612C347.166 336.712 351.209 337.959 355.707 338.43C363.577 339.252 370.175 338.729 375.876 336.831C380.939 335.143 382.352 335.188 384.483 335.252C384.843 335.263 385.226 335.275 385.653 335.279C389.707 335.317 391.392 334.251 392.311 333.448C392.542 333.246 392.892 333.27 393.095 333.502C393.296 333.733 393.272 334.084 393.041 334.286C392.001 335.193 390.127 336.391 385.847 336.391C385.779 336.391 385.712 336.391 385.643 336.39C385.207 336.386 384.817 336.374 384.448 336.363C382.361 336.298 381.102 336.259 376.227 337.884C372.15 339.244 367.637 339.918 362.559 339.918Z" fill="#CFAEFF"/>
<path d="M324.491 214.098C323.647 214.379 322.222 215.139 322.5 216.528C322.778 217.917 325.28 220.356 326.113 220.726C326.947 221.096 326.39 218.889 325.649 217.917C324.908 216.945 326.975 219.157 327.639 218.936C328.125 218.773 328.288 217.848 327.755 216.389C327.281 215.092 329.399 213.889 328.472 213.704C327.547 213.519 325.602 213.727 324.491 214.098Z" fill="url(#paint38_linear)"/>
<path d="M337.518 230.168C337.758 229.853 344.513 225.171 345.014 224.988C345.718 224.731 356.667 239.028 358.194 240.625C359.722 242.222 356.175 250.192 353.258 250.748C350.342 251.303 336.887 230.996 337.518 230.168Z" fill="url(#paint39_linear)"/>
<path d="M318.194 213.473C319.177 212.491 324.074 213.056 324.722 213.241C325.371 213.426 326.991 212.084 327.963 212.037C328.936 211.991 331.91 212.535 333.658 213.519C335.594 214.609 345.278 225.278 345.278 225.278C345.278 225.278 345.14 228.056 342.708 229.723C340.271 231.393 338.708 230.629 338.708 230.629C338.708 230.629 335.278 224.376 334.097 223.612C332.917 222.848 330 224.133 327.599 223.544C325.334 222.989 322.188 220.07 323.057 219.306C323.979 218.495 326.184 220.367 327.177 220.695C328.646 221.181 331.401 220.598 331.458 219.479C331.528 218.125 327.139 216.869 323.819 215.868C321.472 215.161 317.396 214.271 318.194 213.473Z" fill="url(#paint40_linear)"/>
<path d="M339.551 231.356C338.065 231.356 337.21 230.637 337.154 230.587C336.923 230.386 336.898 230.035 337.099 229.803C337.3 229.572 337.652 229.548 337.882 229.748C337.946 229.801 339.564 231.101 342.406 229.257C344.594 227.837 344.722 225.283 344.723 225.258C344.735 224.952 344.993 224.709 345.298 224.724C345.604 224.736 345.843 224.992 345.833 225.298C345.828 225.426 345.695 228.447 343.01 230.189C341.641 231.077 340.474 231.356 339.551 231.356Z" fill="#1AA9E8"/>
<path d="M372.963 217.501C374.444 220.556 380 231.204 379.63 239.445C379.26 247.686 377.037 256.204 376.759 262.593C376.481 268.982 376.667 273.149 376.667 273.149C376.667 273.149 370.557 276.945 361.297 276.667C352.319 276.398 347.963 274.074 347.963 274.074C347.963 274.074 347.697 264.274 346.574 257.593C345.694 252.362 343.542 249.306 343.519 243.427C343.488 235.903 355.069 226.181 358.519 220.927C361.354 216.607 372.963 217.501 372.963 217.501Z" fill="url(#paint41_linear)"/>
<path d="M362.279 277.237C361.95 277.237 361.618 277.232 361.28 277.223C352.276 276.953 347.885 274.662 347.702 274.564C347.432 274.421 347.33 274.085 347.473 273.814C347.617 273.543 347.954 273.44 348.225 273.584C348.267 273.607 352.601 275.851 361.315 276.112C370.283 276.388 376.315 272.714 376.374 272.677C376.635 272.515 376.978 272.596 377.139 272.856C377.301 273.117 377.221 273.459 376.961 273.621C376.714 273.774 371.033 277.237 362.279 277.237Z" fill="#1AA9E8"/>
<path d="M381.806 187.014C383.194 187.084 387.447 185.982 390.625 185.278C396.899 183.889 403.064 183.972 404.653 188.334C406.019 192.084 403.747 195.198 404.121 197.824C404.63 201.389 415.279 204.398 415.486 211.528C415.686 218.364 410.069 220.834 408.542 223.82C407.014 226.806 403.972 235.868 393.403 235.139C387.362 234.723 385.696 231.158 385.694 228.681C385.694 225.501 388.75 223.056 387.292 220.764C385.833 218.473 381.159 219.991 380.139 217.292C379.029 214.352 381.528 211.945 383.403 210.487C385.278 209.028 388.056 207.501 387.431 205.348C386.806 203.195 382.986 202.653 383.125 200.487C383.288 197.963 387.921 196.091 387.153 193.542C386.574 191.621 383.264 192.014 380.417 191.459C377.569 190.903 381.806 187.014 381.806 187.014Z" fill="url(#paint42_linear)"/>
<path d="M371.574 204.908C371.216 208.126 372.963 217.501 372.963 217.501C372.963 217.501 368.611 222.014 362.222 222.316C359.087 222.463 358.519 220.927 358.519 220.927L359.815 208.056C359.815 208.056 361.768 204.393 365.741 202.871C369.713 201.348 371.204 202.778 371.204 202.778L371.574 204.908Z" fill="url(#paint43_linear)"/>
<path d="M369.815 181.574C364.167 179.167 359.959 179.272 359.959 179.272C355.555 181.667 343.849 203.563 351.204 208.889C355.744 212.177 363.533 208.823 368.709 204.353C369.025 204.453 369.363 204.507 369.714 204.507C371.517 204.507 372.978 203.093 372.978 201.347C372.978 200.849 372.855 200.379 372.643 199.96C373.12 199.208 373.488 198.472 373.704 197.777C374.979 193.683 375.463 183.982 369.815 181.574Z" fill="url(#paint44_linear)"/>
<path d="M361.042 194.827C360.959 194.827 360.874 194.815 360.79 194.788C360.352 194.65 360.108 194.182 360.247 193.743C360.503 192.931 361.437 191.42 362.029 190.855C362.362 190.539 362.89 190.551 363.208 190.884C363.525 191.218 363.512 191.745 363.178 192.063C362.794 192.428 362.004 193.713 361.836 194.244C361.724 194.6 361.396 194.827 361.042 194.827Z" fill="#0090B2"/>
<path d="M353.161 190.429C353.092 190.429 353.021 190.418 352.952 190.396C352.586 190.281 352.383 189.891 352.498 189.525C352.746 188.742 353.497 187.528 354.074 186.979C354.351 186.715 354.792 186.725 355.056 187.003C355.321 187.281 355.309 187.721 355.032 187.986C354.629 188.368 353.997 189.393 353.823 189.943C353.729 190.239 353.456 190.429 353.161 190.429Z" fill="#0090B2"/>
<path d="M361.088 198.111C360.51 198.111 359.968 197.978 359.478 197.716C358.453 197.168 357.781 196.127 357.585 194.783C357.396 193.486 357.677 192.053 358.374 190.748C359.462 188.714 361.345 187.4 363.173 187.4C363.75 187.4 364.293 187.533 364.782 187.795C366.853 188.902 367.349 192.028 365.887 194.764C364.8 196.797 362.916 198.111 361.088 198.111ZM363.172 188.233C361.672 188.233 360.038 189.402 359.109 191.14C358.495 192.289 358.246 193.539 358.41 194.662C358.567 195.737 359.085 196.56 359.871 196.98C360.239 197.177 360.648 197.277 361.088 197.277C362.589 197.277 364.223 196.108 365.152 194.37C366.396 192.039 366.054 189.419 364.389 188.529C364.021 188.333 363.612 188.233 363.172 188.233Z" fill="#9F36AD"/>
<path d="M351.771 192.868C351.359 192.868 350.974 192.775 350.628 192.591C348.964 191.7 348.715 189.027 350.062 186.506C351.082 184.599 352.782 183.318 354.293 183.318C354.706 183.318 355.09 183.412 355.436 183.597C356.262 184.038 356.764 184.937 356.849 186.127C356.93 187.247 356.629 188.509 356.002 189.681C354.984 191.587 353.283 192.868 351.771 192.868ZM354.294 184.151C353.1 184.151 351.663 185.281 350.797 186.898C349.708 188.937 349.81 191.207 351.021 191.855C351.244 191.974 351.497 192.034 351.771 192.034C352.965 192.034 354.403 190.905 355.268 189.287C355.821 188.253 356.088 187.151 356.019 186.186C355.955 185.291 355.609 184.632 355.044 184.331C354.82 184.212 354.568 184.151 354.294 184.151Z" fill="#9F36AD"/>
<path d="M356.807 188.704C354.618 190.521 348.545 193.519 348.38 194.583C348.16 196.007 351.414 196.801 352.155 196.801C352.896 196.801 353.438 194.792 355.418 192.037C356.533 190.485 357.97 187.738 356.807 188.704Z" fill="url(#paint45_linear)"/>
<path d="M359.018 190.888C358.852 190.888 358.696 190.789 358.631 190.626C358.059 189.197 357.327 188.771 356.099 189.152C355.878 189.222 355.645 189.098 355.578 188.878C355.509 188.658 355.632 188.425 355.852 188.357C357.509 187.841 358.67 188.483 359.405 190.317C359.49 190.531 359.387 190.773 359.173 190.858C359.122 190.878 359.069 190.888 359.018 190.888Z" fill="#9F36AD"/>
<path d="M349.391 199.941C349.469 200.268 349.671 200.604 349.903 200.882C350.14 201.162 350.427 201.39 350.745 201.532C351.382 201.828 352.122 201.716 352.78 201.392C352.987 201.289 353.237 201.374 353.339 201.581C353.441 201.787 353.356 202.037 353.15 202.139C353.141 202.143 353.132 202.148 353.123 202.151C352.712 202.319 352.267 202.448 351.799 202.461C351.333 202.481 350.853 202.379 350.438 202.162C350.023 201.947 349.677 201.633 349.407 201.277C349.142 200.916 348.925 200.526 348.835 200.053C348.805 199.899 348.907 199.751 349.06 199.721C349.21 199.692 349.355 199.787 349.39 199.933L349.391 199.941Z" fill="#954374"/>
<path d="M361.813 222.881C358.687 222.881 358.026 221.194 357.998 221.119C357.892 220.832 358.038 220.512 358.327 220.406C358.614 220.301 358.934 220.446 359.04 220.734C359.055 220.768 359.571 221.884 362.197 221.761C368.294 221.473 372.522 217.159 372.564 217.115C372.777 216.894 373.128 216.887 373.349 217.101C373.57 217.314 373.577 217.666 373.363 217.887C373.179 218.077 368.783 222.563 362.248 222.871C362.098 222.877 361.953 222.881 361.813 222.881Z" fill="#1AA9E8"/>
<path d="M368.826 198.309C368.237 198.453 367.393 198.194 367.454 196.991C367.569 194.723 371.463 191.244 371.367 188.033C371.25 184.132 363.924 183.264 358.889 181.297C353.468 179.178 353.542 172.916 354.895 170.868C356.389 168.611 359.028 169.352 360.139 170.463C361.25 171.574 361.759 172.808 362.732 172.778C363.854 172.743 363.438 170.556 365.139 170.556C366.862 170.556 368.354 173.734 369.538 175.047C371.563 177.292 382.19 180.796 382.731 188.426C383.473 198.889 373.057 207.037 371.899 207.037C369.927 207.038 370.032 204.756 370.873 204.299C371.717 203.843 373.304 202.879 372.902 200.676C372.5 198.473 370.139 197.987 368.826 198.309Z" fill="url(#paint46_linear)"/>
<path d="M370.891 198.403C371.82 198.751 372.544 199.497 372.837 200.427C372.906 200.328 372.939 200.203 372.903 200.077C372.235 197.688 368.755 195.567 366.887 194.427C366.492 194.187 366.152 193.979 365.95 193.837C365.763 193.704 365.502 193.749 365.37 193.937C365.237 194.124 365.281 194.384 365.47 194.517C365.693 194.676 366.029 194.879 366.453 195.138C367.67 195.881 369.609 197.063 370.891 198.403Z" fill="#9F36AD"/>
<path d="M305.345 224.812C306.469 224.593 307.743 228.264 308.298 230.348C308.854 232.431 309.257 235.958 311.296 238.288C313.159 240.417 319.12 242.362 319.12 242.362C319.12 242.362 319.768 245.834 318.194 247.778C316.621 249.723 314.297 249.624 314.297 249.624C314.297 249.624 307.454 242.824 304.583 240.834C301.713 238.843 299.954 236.158 299.513 234.237C299.042 232.181 298.704 231.158 298.935 228.889C299.06 227.658 299.544 226.023 299.544 226.023C299.544 226.023 303.806 232.787 304.907 234.538C306.065 234.306 305.509 231.112 305.371 229.816C305.232 228.519 304.202 225.035 305.345 224.812Z" fill="url(#paint47_linear)"/>
<path d="M365.557 226.537C370.417 225.695 373.271 227.884 374.792 231.181C376.458 234.792 376.111 239.26 373.519 241.852C370.927 244.444 354.233 264.283 345.439 264.031C335.625 263.75 313.923 251.362 313.704 250.093C313.484 248.823 317.535 241.798 318.103 242.003C318.671 242.207 341.11 250.684 344.444 249.787C347.778 248.889 362.179 227.123 365.557 226.537Z" fill="url(#paint48_linear)"/>
<path d="M313.698 250.637C313.434 250.637 313.203 250.456 313.157 250.188C312.901 248.714 316.497 242.542 317.531 241.673C317.789 241.456 318.044 241.391 318.291 241.48C318.58 241.584 318.729 241.902 318.626 242.191C318.558 242.379 318.398 242.509 318.214 242.547C317.357 243.267 314.129 249.032 314.252 249.999C314.29 250.299 314.083 250.586 313.785 250.631C313.756 250.636 313.727 250.637 313.698 250.637Z" fill="#1AA9E8"/>
<path d="M154.777 349.768C154.777 350.629 155.474 351.326 156.335 351.326H190.871C191.732 351.326 192.429 350.629 192.429 349.768V326.917C192.429 326.056 191.732 325.359 190.871 325.359H156.335C155.474 325.359 154.777 326.056 154.777 326.917V349.768Z" fill="url(#paint49_linear)"/>
<path d="M192.075 324.454H155.131C154.21 324.454 153.464 325.2 153.464 326.121V350.565C153.464 351.486 154.21 352.232 155.131 352.232H192.075C192.996 352.232 193.742 351.486 193.742 350.565V326.121C193.742 325.199 192.996 324.454 192.075 324.454ZM190.964 349.454H156.242V327.232H190.964V349.454Z" fill="url(#paint50_linear)"/>
<path d="M184.503 340.047H155.104V342.825H184.503V340.047Z" fill="#FDE1A7"/>
<path d="M180.687 333.484L184.503 337.943L176.894 337.964L180.687 333.484Z" fill="#00E2EC"/>
<path d="M170.556 337.964C171.793 337.964 172.796 336.961 172.796 335.724C172.796 334.487 171.793 333.484 170.556 333.484C169.318 333.484 168.316 334.487 168.316 335.724C168.316 336.961 169.318 337.964 170.556 337.964Z" fill="#F95FC3"/>
<path d="M122.264 433.132C123.288 435.695 127.668 436.769 131.343 437.639C135.303 438.577 138.124 439.118 137.963 440.695C137.778 442.501 129.167 443.102 122.917 442.917C116.667 442.732 112.139 441.996 111.214 441.301C110.236 440.568 110.279 433.936 110.51 432.454C110.741 430.973 122.264 433.132 122.264 433.132Z" fill="url(#paint51_linear)"/>
<path d="M115.741 282.593C114.908 285.649 112.778 292.686 112.037 306.019C111.296 319.353 112.222 360.279 112.222 370.279C112.222 380.279 109.815 398.056 109.629 410.093C109.444 422.131 109.206 433.449 109.907 433.889C111.458 434.862 120.347 435.556 123.333 433.889C123.854 433.599 128.704 391.575 132.037 373.982C134.236 362.376 142.778 299.352 143.333 290.093C143.889 280.834 115.741 282.593 115.741 282.593Z" fill="url(#paint52_linear)"/>
<path d="M117.678 431.074C113.557 431.074 110.373 430.251 109.209 429.663C108.936 429.525 108.826 429.191 108.964 428.917C109.102 428.643 109.436 428.533 109.71 428.672C111.322 429.485 117.137 430.773 123.914 429.299C124.215 429.234 124.51 429.425 124.575 429.725C124.64 430.024 124.45 430.321 124.15 430.386C121.857 430.884 119.659 431.074 117.678 431.074Z" fill="#CD218F"/>
<path d="M167.361 436.343C168.241 437.918 172.158 439.872 175.833 440.742C179.794 441.679 182.615 442.221 182.454 443.797C182.269 445.603 173.658 446.205 167.408 446.02C161.158 445.835 156.945 445.603 156.019 444.908C155.041 444.175 154.537 438.936 154.769 437.454C155.001 435.973 167.361 436.343 167.361 436.343Z" fill="url(#paint53_linear)"/>
<path d="M159.861 289.167C160.278 294.723 164.028 362.084 164.861 373.195C165.694 384.306 169.351 435.595 168.889 436.575C168.125 438.195 156.319 440.001 154.514 438.403C153.359 437.382 149.629 411.39 146.667 394.353C143.704 377.316 137.222 347.131 133.889 335.279C130.556 323.427 124.444 304.028 127.917 286.806C131.111 283.195 138.197 283.276 145.972 284.723C153.978 286.212 159.861 289.167 159.861 289.167Z" fill="url(#paint54_linear)"/>
<path d="M136.448 346.486C135.804 343.873 135.144 341.265 134.447 338.668C133.757 336.071 132.974 333.5 132.22 330.912C130.704 325.742 129.278 320.53 128.192 315.23C128.131 314.929 128.324 314.636 128.625 314.574C128.926 314.512 129.219 314.706 129.281 315.006C129.281 315.008 129.282 315.014 129.283 315.016C130.266 320.288 131.593 325.498 133.016 330.687C133.722 333.281 134.463 335.877 135.109 338.496C135.763 341.112 136.377 343.735 136.976 346.361C137.009 346.507 136.918 346.652 136.772 346.686C136.628 346.719 136.484 346.629 136.448 346.486Z" fill="#CD218F"/>
<path d="M128.731 315.643C128.659 315.643 128.586 315.629 128.515 315.599C126.89 314.914 123.207 312.257 122.302 310.749C122.144 310.486 122.229 310.145 122.492 309.987C122.755 309.829 123.096 309.914 123.254 310.178C123.982 311.391 127.369 313.91 128.948 314.577C129.231 314.696 129.363 315.022 129.243 315.304C129.153 315.516 128.948 315.643 128.731 315.643Z" fill="#CD218F"/>
<path d="M157.849 435.155C155.668 435.155 153.903 434.918 153.148 434.635C152.861 434.528 152.715 434.207 152.823 433.92C152.93 433.633 153.251 433.489 153.538 433.594C155.318 434.26 163.691 434.617 168.503 431.604C168.764 431.441 169.106 431.52 169.269 431.78C169.432 432.04 169.353 432.383 169.093 432.546C165.895 434.548 161.338 435.155 157.849 435.155Z" fill="#CD218F"/>
<path d="M139.421 191.422C142.754 184.755 156.204 155.927 157.593 154.167C158.982 152.408 160.072 152.062 160.463 149.399C160.788 147.188 160.613 145.661 161.019 143.936C161.574 141.575 164.926 135.271 164.074 133.427C163.519 132.223 161.297 135.418 160.463 136.436C159.63 137.454 157.155 141.432 156.564 141.064C156.407 139.515 156.61 134.307 156.61 134.307C155.556 135.557 154.098 138.751 153.264 142.084C152.431 145.418 152.686 146.575 150.834 150.372C148.982 154.168 133.751 170.834 125.973 188.196C125.523 189.199 125.086 190.224 124.659 191.265C127.946 193.57 132.339 195.895 137.632 196.818C138.186 194.574 138.789 192.684 139.421 191.422Z" fill="url(#paint55_linear)"/>
<path d="M144.954 225.417C135.084 222.647 136.057 224.147 134.979 223.666C133.798 222.483 135.26 206.414 137.631 196.818C132.339 195.894 127.946 193.57 124.658 191.264C117.681 208.268 113.734 229.931 113.472 246.945C113.194 265.001 113.889 283.056 114.028 283.889C114.167 284.723 126.8 292.5 140.833 292.639C154.815 292.778 159.861 289.167 159.861 289.167C159.861 289.167 162.663 239.668 162.211 238.283C161.759 236.898 154.823 228.187 144.954 225.417Z" fill="url(#paint56_linear)"/>
<path d="M142.801 289.274C142.372 289.274 141.935 289.27 141.487 289.262C124.904 288.976 114.62 281.663 113.418 280.33C113.212 280.102 113.231 279.751 113.458 279.545C113.686 279.34 114.037 279.358 114.243 279.586C115.215 280.664 125.357 287.873 141.506 288.151C155.134 288.387 159.688 284.856 159.732 284.821C159.971 284.629 160.322 284.667 160.513 284.906C160.706 285.146 160.667 285.496 160.428 285.687C160.24 285.839 155.802 289.274 142.801 289.274Z" fill="#05C5DA"/>
<path d="M153.367 236.347C153.167 236.347 152.973 236.239 152.874 236.049C151.138 232.742 145.202 228.125 142.537 227.088C142.251 226.977 142.109 226.654 142.22 226.369C142.331 226.083 142.653 225.941 142.939 226.052C145.819 227.172 151.984 231.966 153.858 235.533C154.001 235.804 153.896 236.14 153.624 236.283C153.542 236.327 153.453 236.347 153.367 236.347Z" fill="#05C5DA"/>
<path d="M125.773 219.468C125.507 219.468 125.273 219.278 125.226 219.007C124.091 212.482 127.727 202.017 129.475 196.988C129.853 195.9 130.152 195.041 130.269 194.597C130.348 194.301 130.652 194.124 130.949 194.203C131.246 194.282 131.422 194.586 131.343 194.883C131.214 195.367 130.925 196.2 130.524 197.353C128.807 202.294 125.234 212.576 126.32 218.817C126.373 219.119 126.17 219.407 125.868 219.46C125.836 219.465 125.804 219.468 125.773 219.468Z" fill="#05C5DA"/>
<path d="M119.028 221.806C118.874 221.806 118.72 221.742 118.61 221.617C118.408 221.386 118.431 221.035 118.662 220.833C119.775 219.859 125.775 216.559 132.716 219.489C132.999 219.608 133.132 219.934 133.012 220.217C132.893 220.499 132.568 220.632 132.284 220.513C125.836 217.792 120.231 220.937 119.394 221.669C119.288 221.761 119.158 221.806 119.028 221.806Z" fill="#05C5DA"/>
<path d="M149.648 186.737C151.763 190.24 155.972 190.903 156.319 192.084C156.667 193.264 154.375 195.626 153.681 196.042C152.986 196.459 149.653 189.653 149.375 188.889C149.097 188.126 149.648 186.737 149.648 186.737Z" fill="url(#paint57_linear)"/>
<path d="M143.785 179.411C143.785 179.411 134.167 182.223 129.444 188.797C126.837 192.427 130.074 198.821 133.496 203.822C132.349 204.801 131.759 205.927 131.759 205.927L131.319 207.153C131.065 209.954 128.017 219.598 126.906 222.469C126.492 223.537 129.387 227.463 135.694 227.778C141.25 228.056 144.954 225.417 144.954 225.417L145.486 213.229C145.486 213.229 145.673 212.467 145.874 211.428C148.561 211.086 151.616 210.033 154.167 207.408C160.556 200.834 147.361 182.292 143.785 179.411Z" fill="url(#paint58_linear)"/>
<path d="M141.852 196.297C142.556 195.821 142.362 194.352 140.695 192.686C139.028 191.019 137.269 189.537 137.593 187.778C137.915 186.033 143.661 184.173 146.358 182.174C150.788 178.889 152.223 170.926 149.538 170.417C145.854 169.719 144.678 174.769 143.704 174.769C142.547 174.769 143.139 172.069 141.479 172.264C139.074 172.547 138.148 175.973 136.76 177.037C134.679 178.633 123.612 182.037 122.917 190.278C122.352 196.986 126.553 200.801 128.403 203.194C130.371 205.741 130.978 207.05 131.32 207.153C131.933 207.337 134.634 206.935 136.945 205.972C139.445 204.931 140.973 203.611 140.487 202.986C140.001 202.361 136.366 201.663 136.112 198.611C135.927 196.389 137.431 195.417 138.612 195.625C139.792 195.833 141.065 196.829 141.852 196.297Z" fill="url(#paint59_linear)"/>
<path d="M143.542 198.542C143.977 198.556 144.306 201.505 146.007 201.911C147.141 202.18 150.787 199.653 152.431 198.924C153.429 198.482 155.209 198.178 155.324 198.635C155.438 199.092 155.695 200.765 156.32 202.258C156.848 203.518 158.056 204.677 157.466 207.258C156.599 211.048 150.001 213.89 145.487 213.23C145.382 212.153 145.232 210.484 144.479 207.466C143.611 203.982 142.259 200.811 142.292 200.174C142.338 199.26 142.801 198.519 143.542 198.542Z" fill="url(#paint60_linear)"/>
<path d="M148.379 192.316C148.014 192.316 147.679 192.074 147.577 191.705C147.386 191.016 146.512 189.499 146.337 189.267C146.063 188.903 146.127 188.379 146.487 188.1C146.846 187.822 147.358 187.874 147.642 188.23C147.866 188.509 148.914 190.288 149.183 191.259C149.307 191.703 149.047 192.162 148.603 192.286C148.528 192.306 148.453 192.316 148.379 192.316Z" fill="#0090B2"/>
<path d="M152.726 201.389C152.824 201.554 153.126 201.756 153.396 201.864C153.677 201.979 153.98 202.036 154.271 202.003C154.862 201.951 155.358 201.472 155.665 200.876C155.721 200.766 155.854 200.723 155.963 200.778C156.067 200.831 156.111 200.957 156.067 201.063C155.92 201.408 155.728 201.749 155.447 202.038C155.171 202.328 154.789 202.548 154.377 202.632C153.964 202.718 153.54 202.678 153.152 202.558C152.761 202.422 152.4 202.282 152.056 201.884L152.05 201.877C151.899 201.703 151.918 201.438 152.092 201.287C152.267 201.136 152.532 201.154 152.683 201.329C152.698 201.347 152.713 201.369 152.726 201.389Z" fill="#F1D2F8"/>
<path d="M135.694 227.778C141.25 228.056 144.954 225.417 144.954 225.417L145.148 220.977C143.749 221.729 140.729 223.023 136.751 222.824C131.922 222.582 129.101 220.228 128.226 218.657C127.701 220.269 127.224 221.647 126.906 222.469C126.493 223.537 129.387 227.463 135.694 227.778Z" fill="url(#paint61_linear)"/>
<path d="M136.523 228.354C136.242 228.354 135.957 228.348 135.667 228.333C131.005 228.1 127.997 225.931 126.837 224.144C126.362 223.412 126.202 222.746 126.387 222.268C126.498 221.982 126.82 221.839 127.106 221.95C127.391 222.061 127.533 222.38 127.424 222.666C127.408 222.734 127.443 223.107 127.908 223.741C129.047 225.292 131.698 227.022 135.722 227.223C141.023 227.483 144.595 224.989 144.631 224.964C144.881 224.786 145.227 224.844 145.406 225.094C145.584 225.344 145.526 225.691 145.276 225.869C145.127 225.976 141.725 228.354 136.523 228.354Z" fill="#05C5DA"/>
<path d="M172.743 316.285C171.169 311.468 169.51 280.181 166.697 258.422C158.891 258.629 152.54 260.585 149.172 262.195C149.965 265.856 151.107 270.647 152.917 276.945C157.871 294.179 164.514 313.82 164.63 318.056C164.698 320.555 162.571 323.488 162.3 327.179C162.118 329.653 163.125 333.681 164.074 333.612C165.278 333.524 165.178 329.858 165.66 328.126C166.424 325.382 168.056 324.445 168.056 324.445C168.056 324.445 171.528 324.454 177.383 324.454C176.561 321.502 173.429 318.386 172.743 316.285Z" fill="url(#paint62_linear)"/>
<path d="M161.759 237.686C156.204 231.759 145.556 237.963 144.537 245.741C144.319 247.404 145.833 249.353 146.944 252.223C147.603 253.924 148.017 256.86 149.172 262.195C152.539 260.585 158.89 258.629 166.697 258.422C165.353 248.028 163.747 239.805 161.759 237.686Z" fill="url(#paint63_linear)"/>
<path d="M149.172 262.751C148.965 262.751 148.766 262.634 148.671 262.435C148.538 262.158 148.656 261.826 148.932 261.694C150.676 260.861 157.109 258.121 166.682 257.867C166.99 257.868 167.244 258.101 167.252 258.408C167.261 258.714 167.018 258.97 166.712 258.978C159.279 259.174 152.902 261.027 149.412 262.696C149.334 262.733 149.253 262.751 149.172 262.751Z" fill="#05C5DA"/>
<path d="M144.538 246.297C144.514 246.297 144.489 246.295 144.465 246.292C144.161 246.252 143.946 245.973 143.986 245.669C144.576 241.165 148.401 236.803 153.081 235.296C156.596 234.164 159.907 234.897 162.165 237.306C162.375 237.53 162.363 237.882 162.14 238.092C161.917 238.302 161.564 238.291 161.354 238.067C158.681 235.215 155.237 235.769 153.422 236.354C149.129 237.736 145.625 241.714 145.088 245.814C145.052 246.093 144.813 246.297 144.538 246.297Z" fill="#05C5DA"/>
<path d="M329.367 182.213L323.52 181.704L328.937 176.359L329.367 182.213Z" fill="#F95FC3"/>
<path d="M308.704 200.093C308.471 200.093 308.253 199.944 308.177 199.711C305.326 190.999 310.954 185.601 320.279 176.656C322.205 174.809 324.388 172.716 326.643 170.442C339.921 157.059 337.328 143.468 336.217 139.622C336.132 139.327 336.302 139.019 336.597 138.934C336.893 138.85 337.2 139.019 337.285 139.314C338.438 143.307 341.136 157.412 327.432 171.224C325.167 173.508 322.979 175.607 321.049 177.458C312.038 186.101 306.599 191.317 309.232 199.364C309.328 199.656 309.169 199.97 308.877 200.065C308.82 200.084 308.762 200.093 308.704 200.093Z" fill="#1AA9E8"/>
<path d="M335.072 174.098L333.1 172.142C338.146 167.056 341.384 161.392 342.728 155.307L345.441 155.906C343.982 162.512 340.494 168.633 335.072 174.098Z" fill="#00E2EC"/>
<path d="M336.752 141.667C337.966 141.667 338.951 140.683 338.951 139.468C338.951 138.254 337.966 137.269 336.752 137.269C335.537 137.269 334.553 138.254 334.553 139.468C334.553 140.683 335.537 141.667 336.752 141.667Z" fill="#FDE1A7"/>
<path d="M303.703 202.316C303.617 202.316 303.528 202.295 303.446 202.252C303.283 202.166 299.467 200.083 300.377 193.718C300.892 190.112 303.242 187.078 305.731 183.866C308.967 179.689 312.314 175.371 311.854 169.395C311.676 167.08 310.488 165.046 308.322 163.347C296.723 154.25 260.913 156.699 251.815 158.203C251.508 158.251 251.226 158.048 251.177 157.746C251.126 157.443 251.331 157.157 251.634 157.107C260.839 155.586 297.116 153.146 309.008 162.473C311.428 164.371 312.759 166.672 312.962 169.31C313.454 175.713 309.818 180.406 306.609 184.547C304.213 187.639 301.949 190.56 301.477 193.876C300.683 199.428 303.831 201.197 303.965 201.27C304.234 201.416 304.337 201.751 304.193 202.021C304.093 202.208 303.901 202.316 303.703 202.316Z" fill="#1AA9E8"/>
<path d="M294.022 164.693C288.709 163.82 282.372 163.372 275.183 163.362L275.188 160.584C282.525 160.594 289.013 161.054 294.473 161.952L294.022 164.693Z" fill="#C7A0F6"/>
<path d="M251.724 159.854C252.938 159.854 253.923 158.869 253.923 157.655C253.923 156.441 252.938 155.456 251.724 155.456C250.509 155.456 249.525 156.441 249.525 157.655C249.525 158.869 250.509 159.854 251.724 159.854Z" fill="#FDE1A7"/>
<path d="M92.61 208.872L90.5989 214.386L86.845 207.768L92.61 208.872Z" fill="#F95FC3"/>
<path d="M150.164 254.967C149.725 254.967 149.287 254.963 148.848 254.957C126.647 254.621 106.886 245.986 93.205 230.64C77.1133 212.591 69.475 189.714 72.7716 169.445C75.2472 154.227 83.6439 141.817 96.4155 134.502C96.6817 134.349 97.0211 134.441 97.1739 134.708C97.3266 134.974 97.2339 135.313 96.9678 135.466C84.4922 142.612 76.2889 154.743 73.8683 169.624C70.6244 189.566 78.1628 212.099 94.0344 229.901C122.622 261.966 174.622 262.028 212.419 230.04C218.957 224.507 224.532 218.8 229.923 213.281C242.747 200.154 253.822 188.816 270.624 188.394C286.321 188.001 294.116 196.106 297.894 202.974C298.042 203.243 297.944 203.581 297.675 203.728C297.406 203.877 297.068 203.778 296.921 203.509C293.291 196.911 285.795 189.128 270.653 189.505C254.301 189.916 243.373 201.103 230.718 214.057C225.308 219.594 219.715 225.32 213.137 230.887C194.755 246.445 172.441 254.966 150.164 254.967Z" fill="#1AA9E8"/>
<path d="M84.7561 202.736C82.1528 195.332 80.7672 187.848 80.6383 180.492L83.4155 180.443C83.5394 187.502 84.8722 194.692 87.3766 201.814L84.7561 202.736Z" fill="#C7A0F6"/>
<path d="M170.036 248.306L169.429 245.596C175.923 244.142 182.349 241.956 188.528 239.097L189.694 241.618C183.337 244.56 176.723 246.81 170.036 248.306Z" fill="#00E2EC"/>
<path d="M96.6922 137.183C97.9067 137.183 98.8911 136.199 98.8911 134.984C98.8911 133.77 97.9067 132.786 96.6922 132.786C95.4778 132.786 94.4933 133.77 94.4933 134.984C94.4933 136.199 95.4778 137.183 96.6922 137.183Z" fill="#FDE1A7"/>
<path d="M282.018 291.528L276.25 292.617L280.022 286.007L282.018 291.528Z" fill="#00E2EC"/>
<path d="M239.567 304.372C238.8 304.372 238.061 304.352 237.354 304.312C237.048 304.295 236.814 304.032 236.831 303.726C236.849 303.419 237.118 303.188 237.417 303.203C248.131 303.811 266.554 299.906 273.397 286.689C276.459 280.774 277.318 272.293 278.226 263.313C279.733 248.432 281.291 233.044 292.858 225.917C293.119 225.755 293.461 225.837 293.623 226.098C293.783 226.359 293.703 226.702 293.441 226.863C282.341 233.702 280.811 248.813 279.332 263.426C278.412 272.513 277.543 281.098 274.383 287.201C267.753 300.007 250.741 304.372 239.567 304.372Z" fill="#1AA9E8"/>
<path d="M283.909 280.776L281.207 280.135C282.341 275.359 282.894 269.887 283.481 264.092C283.646 262.462 283.812 260.821 283.993 259.18L286.755 259.485C286.575 261.117 286.409 262.751 286.245 264.372C285.649 270.261 285.086 275.822 283.909 280.776Z" fill="#F95FC3"/>
<path d="M237.385 305.956C238.599 305.956 239.584 304.972 239.584 303.757C239.584 302.543 238.599 301.558 237.385 301.558C236.171 301.558 235.186 302.543 235.186 303.757C235.186 304.972 236.171 305.956 237.385 305.956Z" fill="#C7A0F6"/>
</g>
<defs>
<filter id="filter0_d" x="-45" y="-41" width="590" height="590" filterUnits="userSpaceOnUse" color-interpolation-filters="sRGB">
<feFlood flood-opacity="0" result="BackgroundImageFix"/>
<feColorMatrix in="SourceAlpha" type="matrix" values="0 0 0 0 0 0 0 0 0 0 0 0 0 0 0 0 0 0 127 0"/>
<feOffset dy="4"/>
<feGaussianBlur stdDeviation="22.5"/>
<feColorMatrix type="matrix" values="0 0 0 0 0.184314 0 0 0 0 0.501961 0 0 0 0 0.929412 0 0 0 1 0"/>
<feBlend mode="normal" in2="BackgroundImageFix" result="effect1_dropShadow"/>
<feBlend mode="normal" in="SourceGraphic" in2="effect1_dropShadow" result="shape"/>
</filter>
<linearGradient id="paint0_linear" x1="112.095" y1="85.1614" x2="371.107" y2="344.173" gradientUnits="userSpaceOnUse">
<stop stop-color="#DBEFFF"/>
<stop offset="1" stop-color="#F7EBFF"/>
</linearGradient>
<linearGradient id="paint1_linear" x1="348.11" y1="439.982" x2="348.11" y2="414.918" gradientUnits="userSpaceOnUse">
<stop stop-color="#F7EBFF"/>
<stop offset="1" stop-color="#DBEFFF"/>
</linearGradient>
<linearGradient id="paint2_linear" x1="145.238" y1="453.616" x2="145.238" y2="430.6" gradientUnits="userSpaceOnUse">
<stop stop-color="#F7EBFF"/>
<stop offset="1" stop-color="#DBEFFF"/>
</linearGradient>
<linearGradient id="paint3_linear" x1="215.748" y1="276.645" x2="229.022" y2="289.919" gradientUnits="userSpaceOnUse">
<stop stop-color="#FF57BD"/>
<stop offset="1" stop-color="#FE6A77"/>
</linearGradient>
<linearGradient id="paint4_linear" x1="215.747" y1="297.122" x2="229.022" y2="310.397" gradientUnits="userSpaceOnUse">
<stop stop-color="#FF57BD"/>
<stop offset="1" stop-color="#FE6A77"/>
</linearGradient>
<linearGradient id="paint5_linear" x1="215.748" y1="317.6" x2="229.022" y2="330.874" gradientUnits="userSpaceOnUse">
<stop stop-color="#FF57BD"/>
<stop offset="1" stop-color="#FE6A77"/>
</linearGradient>
<linearGradient id="paint6_linear" x1="195.365" y1="197.241" x2="269.566" y2="271.442" gradientUnits="userSpaceOnUse">
<stop stop-color="#706AED"/>
<stop offset="1" stop-color="#271068"/>
</linearGradient>
<linearGradient id="paint7_linear" x1="201.216" y1="206.714" x2="230.614" y2="206.714" gradientUnits="userSpaceOnUse">
<stop stop-color="white"/>
<stop offset="1" stop-color="#F1D1F8"/>
</linearGradient>
<linearGradient id="paint8_linear" x1="259.271" y1="261.667" x2="259.271" y2="207.779" gradientUnits="userSpaceOnUse">
<stop stop-color="#FDE1A7"/>
<stop offset="1" stop-color="#F9A144"/>
</linearGradient>
<linearGradient id="paint9_linear" x1="254.826" y1="218.38" x2="263.715" y2="218.38" gradientUnits="userSpaceOnUse">
<stop stop-color="#00E2EC"/>
<stop offset="1" stop-color="#0090B2"/>
</linearGradient>
<linearGradient id="paint10_linear" x1="232.466" y1="261.667" x2="232.466" y2="219.584" gradientUnits="userSpaceOnUse">
<stop stop-color="#1AA9E8"/>
<stop offset="0.4223" stop-color="#3D80EF"/>
<stop offset="0.7909" stop-color="#5662F4"/>
<stop offset="1" stop-color="#5F57F6"/>
</linearGradient>
<linearGradient id="paint11_linear" x1="228.021" y1="231.968" x2="236.91" y2="231.968" gradientUnits="userSpaceOnUse">
<stop stop-color="#00E2EC"/>
<stop offset="1" stop-color="#0090B2"/>
</linearGradient>
<linearGradient id="paint12_linear" x1="245.868" y1="261.667" x2="245.868" y2="227.362" gradientUnits="userSpaceOnUse">
<stop stop-color="#FF57BD"/>
<stop offset="1" stop-color="#FE6A77"/>
</linearGradient>
<linearGradient id="paint13_linear" x1="241.424" y1="235.857" x2="250.313" y2="235.857" gradientUnits="userSpaceOnUse">
<stop stop-color="#00E2EC"/>
<stop offset="1" stop-color="#0090B2"/>
</linearGradient>
<linearGradient id="paint14_linear" x1="219.063" y1="261.667" x2="219.063" y2="212.084" gradientUnits="userSpaceOnUse">
<stop stop-color="#C7A0F6"/>
<stop offset="1" stop-color="#FF57BD"/>
</linearGradient>
<linearGradient id="paint15_linear" x1="214.618" y1="221.228" x2="223.507" y2="221.228" gradientUnits="userSpaceOnUse">
<stop stop-color="#00E2EC"/>
<stop offset="1" stop-color="#0090B2"/>
</linearGradient>
<linearGradient id="paint16_linear" x1="205.66" y1="261.667" x2="205.66" y2="236.529" gradientUnits="userSpaceOnUse">
<stop stop-color="#FDE1A7"/>
<stop offset="1" stop-color="#F9A144"/>
</linearGradient>
<linearGradient id="paint17_linear" x1="201.216" y1="244.098" x2="210.104" y2="244.098" gradientUnits="userSpaceOnUse">
<stop stop-color="#00E2EC"/>
<stop offset="1" stop-color="#0090B2"/>
</linearGradient>
<linearGradient id="paint18_linear" x1="96.0422" y1="86.4592" x2="158.82" y2="149.237" gradientUnits="userSpaceOnUse">
<stop stop-color="#00E2EC"/>
<stop offset="1" stop-color="#0090B2"/>
</linearGradient>
<linearGradient id="paint19_linear" x1="130.973" y1="101.945" x2="161.111" y2="101.945" gradientUnits="userSpaceOnUse">
<stop stop-color="white"/>
<stop offset="1" stop-color="#F1D1F8"/>
</linearGradient>
<linearGradient id="paint20_linear" x1="156.481" y1="132.783" x2="186.112" y2="132.783" gradientUnits="userSpaceOnUse">
<stop stop-color="#FDE1A7"/>
<stop offset="1" stop-color="#F9A144"/>
</linearGradient>
<linearGradient id="paint21_linear" x1="179.166" y1="99.1037" x2="252.273" y2="99.1037" gradientUnits="userSpaceOnUse">
<stop stop-color="#5A55F8"/>
<stop offset="1" stop-color="#8C6AE2"/>
</linearGradient>
<linearGradient id="paint22_linear" x1="168.831" y1="149.889" x2="264.63" y2="149.889" gradientUnits="userSpaceOnUse">
<stop stop-color="#FF57BD"/>
<stop offset="1" stop-color="#FE6A77"/>
</linearGradient>
<linearGradient id="paint23_linear" x1="189.406" y1="149.352" x2="227.857" y2="149.352" gradientUnits="userSpaceOnUse">
<stop stop-color="#C7A0F6"/>
<stop offset="1" stop-color="#FF57BD"/>
</linearGradient>
<linearGradient id="paint24_linear" x1="210.556" y1="134.756" x2="233.148" y2="134.756" gradientUnits="userSpaceOnUse">
<stop stop-color="#994574"/>
<stop offset="1" stop-color="#43256F"/>
</linearGradient>
<linearGradient id="paint25_linear" x1="194.59" y1="122.072" x2="210.566" y2="138.047" gradientUnits="userSpaceOnUse">
<stop stop-color="#1AA9E8"/>
<stop offset="0.4223" stop-color="#3D80EF"/>
<stop offset="0.7909" stop-color="#5662F4"/>
<stop offset="1" stop-color="#5F57F6"/>
</linearGradient>
<linearGradient id="paint26_linear" x1="287.487" y1="59.1729" x2="386.017" y2="157.703" gradientUnits="userSpaceOnUse">
<stop stop-color="#C91C91"/>
<stop offset="1" stop-color="#FE6A77"/>
</linearGradient>
<linearGradient id="paint27_linear" x1="285.455" y1="92.3153" x2="323.472" y2="92.3153" gradientUnits="userSpaceOnUse">
<stop stop-color="white"/>
<stop offset="1" stop-color="#F1D1F8"/>
</linearGradient>
<linearGradient id="paint28_linear" x1="339.992" y1="133.241" x2="339.992" y2="82.4045" gradientUnits="userSpaceOnUse">
<stop stop-color="#994574"/>
<stop offset="1" stop-color="#9F36AD"/>
</linearGradient>
<linearGradient id="paint29_linear" x1="285.455" y1="111.112" x2="388.048" y2="111.112" gradientUnits="userSpaceOnUse">
<stop stop-color="#FE6A77"/>
<stop offset="1" stop-color="#FF57BD"/>
</linearGradient>
<linearGradient id="paint30_linear" x1="210.183" y1="68.5656" x2="259.257" y2="68.5656" gradientUnits="userSpaceOnUse">
<stop stop-color="#FDE1A7"/>
<stop offset="1" stop-color="#F9A144"/>
</linearGradient>
<linearGradient id="paint31_linear" x1="291.711" y1="218.801" x2="334.806" y2="218.801" gradientUnits="userSpaceOnUse">
<stop stop-color="#00E2EC"/>
<stop offset="1" stop-color="#0090B2"/>
</linearGradient>
<linearGradient id="paint32_linear" x1="298.189" y1="202.321" x2="327.913" y2="232.046" gradientUnits="userSpaceOnUse">
<stop stop-color="#994574"/>
<stop offset="1" stop-color="#43256F"/>
</linearGradient>
<linearGradient id="paint33_linear" x1="332.632" y1="380.594" x2="354.994" y2="380.594" gradientUnits="userSpaceOnUse">
<stop stop-color="#F4BEA3"/>
<stop offset="1" stop-color="#E8878E"/>
</linearGradient>
<linearGradient id="paint34_linear" x1="324.831" y1="424.2" x2="350.505" y2="424.2" gradientUnits="userSpaceOnUse">
<stop stop-color="#706AED"/>
<stop offset="1" stop-color="#271068"/>
</linearGradient>
<linearGradient id="paint35_linear" x1="364.861" y1="382.034" x2="386.032" y2="382.034" gradientUnits="userSpaceOnUse">
<stop stop-color="#F4BEA3"/>
<stop offset="1" stop-color="#E8878E"/>
</linearGradient>
<linearGradient id="paint36_linear" x1="360.556" y1="424.644" x2="386.244" y2="424.644" gradientUnits="userSpaceOnUse">
<stop stop-color="#706AED"/>
<stop offset="1" stop-color="#271068"/>
</linearGradient>
<linearGradient id="paint37_linear" x1="333.37" y1="288.668" x2="389.756" y2="345.054" gradientUnits="userSpaceOnUse">
<stop stop-color="#FF57BD"/>
<stop offset="1" stop-color="#FE6A77"/>
</linearGradient>
<linearGradient id="paint38_linear" x1="322.465" y1="217.202" x2="328.71" y2="217.202" gradientUnits="userSpaceOnUse">
<stop stop-color="#C16846"/>
<stop offset="0.2653" stop-color="#D27565"/>
<stop offset="0.5308" stop-color="#DE7F7B"/>
<stop offset="0.7814" stop-color="#E58589"/>
<stop offset="1" stop-color="#E8878E"/>
</linearGradient>
<linearGradient id="paint39_linear" x1="337.497" y1="237.872" x2="358.562" y2="237.872" gradientUnits="userSpaceOnUse">
<stop stop-color="#FDE1A7"/>
<stop offset="1" stop-color="#F9A144"/>
</linearGradient>
<linearGradient id="paint40_linear" x1="318.092" y1="221.419" x2="345.278" y2="221.419" gradientUnits="userSpaceOnUse">
<stop stop-color="#F4BEA3"/>
<stop offset="1" stop-color="#E8878E"/>
</linearGradient>
<linearGradient id="paint41_linear" x1="343.519" y1="247.053" x2="379.648" y2="247.053" gradientUnits="userSpaceOnUse">
<stop stop-color="#FDE1A7"/>
<stop offset="1" stop-color="#F9A144"/>
</linearGradient>
<linearGradient id="paint42_linear" x1="377.305" y1="191.506" x2="410.534" y2="224.736" gradientUnits="userSpaceOnUse">
<stop stop-color="#5A55F8"/>
<stop offset="1" stop-color="#8C6AE2"/>
</linearGradient>
<linearGradient id="paint43_linear" x1="358.519" y1="212.247" x2="372.963" y2="212.247" gradientUnits="userSpaceOnUse">
<stop stop-color="#F4BEA3"/>
<stop offset="1" stop-color="#E8878E"/>
</linearGradient>
<linearGradient id="paint44_linear" x1="348.833" y1="194.741" x2="374.525" y2="194.741" gradientUnits="userSpaceOnUse">
<stop stop-color="#F4BEA3"/>
<stop offset="1" stop-color="#E8878E"/>
</linearGradient>
<linearGradient id="paint45_linear" x1="348.369" y1="192.652" x2="357.238" y2="192.652" gradientUnits="userSpaceOnUse">
<stop stop-color="#FF57BD"/>
<stop offset="1" stop-color="#EC9895"/>
</linearGradient>
<linearGradient id="paint46_linear" x1="354.124" y1="188.219" x2="382.769" y2="188.219" gradientUnits="userSpaceOnUse">
<stop stop-color="#5A55F8"/>
<stop offset="1" stop-color="#8C6AE2"/>
</linearGradient>
<linearGradient id="paint47_linear" x1="298.861" y1="237.214" x2="319.253" y2="237.214" gradientUnits="userSpaceOnUse">
<stop stop-color="#F4BEA3"/>
<stop offset="1" stop-color="#E8878E"/>
</linearGradient>
<linearGradient id="paint48_linear" x1="313.696" y1="245.195" x2="375.811" y2="245.195" gradientUnits="userSpaceOnUse">
<stop stop-color="#FDE1A7"/>
<stop offset="1" stop-color="#F9A144"/>
</linearGradient>
<linearGradient id="paint49_linear" x1="158.154" y1="322.894" x2="189.051" y2="353.792" gradientUnits="userSpaceOnUse">
<stop stop-color="#00E2EC"/>
<stop offset="1" stop-color="#0090B2"/>
</linearGradient>
<linearGradient id="paint50_linear" x1="157.077" y1="321.817" x2="190.129" y2="354.869" gradientUnits="userSpaceOnUse">
<stop stop-color="#706AED"/>
<stop offset="1" stop-color="#271068"/>
</linearGradient>
<linearGradient id="paint51_linear" x1="113.386" y1="429.498" x2="131.379" y2="447.491" gradientUnits="userSpaceOnUse">
<stop stop-color="#706AED"/>
<stop offset="1" stop-color="#271068"/>
</linearGradient>
<linearGradient id="paint52_linear" x1="81.9754" y1="316.359" x2="161.42" y2="395.804" gradientUnits="userSpaceOnUse">
<stop stop-color="#994574"/>
<stop offset="1" stop-color="#43256F"/>
</linearGradient>
<linearGradient id="paint53_linear" x1="158.659" y1="433.478" x2="175.822" y2="450.641" gradientUnits="userSpaceOnUse">
<stop stop-color="#706AED"/>
<stop offset="1" stop-color="#271068"/>
</linearGradient>
<linearGradient id="paint54_linear" x1="104.054" y1="310.652" x2="199.459" y2="406.057" gradientUnits="userSpaceOnUse">
<stop stop-color="#994574"/>
<stop offset="1" stop-color="#43256F"/>
</linearGradient>
<linearGradient id="paint55_linear" x1="124.659" y1="164.989" x2="164.212" y2="164.989" gradientUnits="userSpaceOnUse">
<stop stop-color="#F4BEA3"/>
<stop offset="1" stop-color="#E8878E"/>
</linearGradient>
<linearGradient id="paint56_linear" x1="100.684" y1="215.24" x2="167.237" y2="281.793" gradientUnits="userSpaceOnUse">
<stop stop-color="#1AA9E8"/>
<stop offset="0.4223" stop-color="#3D80EF"/>
<stop offset="0.7909" stop-color="#5662F4"/>
<stop offset="1" stop-color="#5F57F6"/>
</linearGradient>
<linearGradient id="paint57_linear" x1="149.297" y1="191.399" x2="156.355" y2="191.399" gradientUnits="userSpaceOnUse">
<stop stop-color="#EC9895"/>
<stop offset="1" stop-color="#FF57BD"/>
</linearGradient>
<linearGradient id="paint58_linear" x1="125.894" y1="192.029" x2="152.118" y2="218.253" gradientUnits="userSpaceOnUse">
<stop stop-color="#F4BEA3"/>
<stop offset="1" stop-color="#E8878E"/>
</linearGradient>
<linearGradient id="paint59_linear" x1="122.865" y1="188.774" x2="150.892" y2="188.774" gradientUnits="userSpaceOnUse">
<stop stop-color="#CB2090"/>
<stop offset="1" stop-color="#43256F"/>
</linearGradient>
<linearGradient id="paint60_linear" x1="143.065" y1="198.574" x2="155.119" y2="210.628" gradientUnits="userSpaceOnUse">
<stop stop-color="#CB2090"/>
<stop offset="1" stop-color="#43256F"/>
</linearGradient>
<linearGradient id="paint61_linear" x1="126.867" y1="223.228" x2="145.148" y2="223.228" gradientUnits="userSpaceOnUse">
<stop stop-color="#1AA9E8"/>
<stop offset="0.4223" stop-color="#3D80EF"/>
<stop offset="0.7909" stop-color="#5662F4"/>
<stop offset="1" stop-color="#5F57F6"/>
</linearGradient>
<linearGradient id="paint62_linear" x1="149.172" y1="296.018" x2="177.382" y2="296.018" gradientUnits="userSpaceOnUse">
<stop stop-color="#F4BEA3"/>
<stop offset="1" stop-color="#E8878E"/>
</linearGradient>
<linearGradient id="paint63_linear" x1="144.516" y1="248.762" x2="166.697" y2="248.762" gradientUnits="userSpaceOnUse">
<stop stop-color="#1AA9E8"/>
<stop offset="0.4223" stop-color="#3D80EF"/>
<stop offset="0.7909" stop-color="#5662F4"/>
<stop offset="1" stop-color="#5F57F6"/>
</linearGradient>
</defs>
</svg>
