<svg width="40" height="40" viewBox="0 0 40 40" fill="none" xmlns="http://www.w3.org/2000/svg">
<g clip-path="url(#clip0)">
<path d="M9.9326 21.7688L14.3202 28.9235C14.5894 29.3607 14.2798 29.9172 13.7549 29.9172L5.22197 30.0762C4.97971 30.0762 4.76436 29.9569 4.64323 29.7582L0.269075 22.6035C-0.000103704 22.153 0.322911 21.5833 0.84781 21.57L9.35387 21.4508C9.59613 21.4376 9.81147 21.57 9.9326 21.7688Z" stroke="white" stroke-miterlimit="10"/>
<path d="M13.9569 11.792L9.86542 19.1454C9.74429 19.3574 9.51549 19.4899 9.27323 19.5031L0.780632 19.6224C0.242274 19.6356 -0.107658 19.0659 0.161521 18.6022L4.25304 11.3017C4.37417 11.0898 4.58952 10.9573 4.84524 10.9573L13.3378 10.7983C13.8627 10.785 14.1992 11.3415 13.9569 11.792Z" stroke="white" stroke-miterlimit="10"/>
<path d="M16.9582 12.4809L21.3458 19.6621C21.4669 19.8609 21.4804 20.1126 21.3592 20.3246L17.2408 27.6648C16.9851 28.1153 16.3391 28.1285 16.0699 27.6913L11.7092 20.5366C11.5881 20.3378 11.5746 20.0861 11.6957 19.8741L15.8007 12.5074C16.043 12.057 16.689 12.0437 16.9582 12.4809Z" fill="#F2F2F2"/>
<path d="M30.1615 30.2219L34.2665 22.9082C34.5088 22.471 35.1548 22.4578 35.424 22.8817L39.8251 30.0762C39.9462 30.2749 39.9597 30.5267 39.8385 30.7387L35.7336 38.0523C35.4778 38.5161 34.8049 38.5293 34.5357 38.0656L30.175 30.8711C30.0539 30.6724 30.0539 30.4207 30.1615 30.2219Z" stroke="white" stroke-miterlimit="10"/>
<path d="M18.9771 31.4144L27.4966 31.2289C27.7389 31.2289 27.9811 31.3481 28.1022 31.5601L32.4495 38.7413C32.7321 39.1918 32.3957 39.7748 31.8573 39.788L23.3916 39.947C23.1494 39.947 22.9206 39.8278 22.786 39.6158L18.3983 32.4478C18.1292 31.9973 18.4522 31.4276 18.9771 31.4144Z" stroke="white" stroke-miterlimit="10"/>
<path d="M18.6676 28.7512L22.7861 21.4111C22.9072 21.1991 23.1225 21.0666 23.3648 21.0666L31.8843 20.9076C32.4092 20.8943 32.7322 21.4508 32.49 21.888L28.385 29.1885C28.2639 29.4005 28.0485 29.5197 27.8063 29.533L19.2733 29.7184C18.7484 29.7449 18.4119 29.2017 18.6676 28.7512Z" fill="#F2F2F2"/>
<path d="M27.3486 8.73136L18.856 8.89036C18.3446 8.90361 18.0081 8.36038 18.2639 7.9099L22.3957 0.55647C22.5169 0.344479 22.7322 0.225234 22.9745 0.211985L31.4671 0.0529918C32.0054 0.0397424 32.3419 0.609467 32.0862 1.05995L27.9408 8.37363C27.8062 8.59887 27.5909 8.73136 27.3486 8.73136Z" stroke="white" stroke-miterlimit="10"/>
<path d="M34.1184 17.1315L29.825 9.88407C29.7038 9.67208 29.7038 9.42034 29.825 9.20835L34.1049 1.98742C34.3741 1.52369 35.047 1.52369 35.3162 1.98742L39.5558 9.20835C39.6769 9.42034 39.6769 9.67208 39.5558 9.88407L35.3028 17.1315C35.0336 17.582 34.3741 17.582 34.1184 17.1315Z" stroke="white" stroke-miterlimit="10"/>
<path d="M32.0862 19.0924L23.5801 19.2514C23.3379 19.2514 23.1091 19.1322 22.9879 18.9334L18.5869 11.7522C18.3177 11.315 18.6272 10.7585 19.1521 10.7453L27.6313 10.5863C27.8735 10.5863 28.1023 10.7055 28.2235 10.9043L32.6649 18.0855C32.9206 18.5227 32.6111 19.0924 32.0862 19.0924Z" fill="#F2F2F2"/>
</g>
<defs>
<clipPath id="clip0">
<rect width="40" height="40" fill="white"/>
</clipPath>
</defs>
</svg>
