<svg width="82" height="19" viewBox="0 0 82 19" fill="none" xmlns="http://www.w3.org/2000/svg">
<path d="M6.928 15.264L9.136 6.048C9.488 5.968 9.968 5.928 10.576 5.928C11.2 5.928 11.768 6.016 12.28 6.192L12.4 6.36C10.832 11.928 9.704 15.808 9.016 18C8.216 18.096 7.392 18.144 6.544 18.144C5.696 18.144 5.088 18.032 4.72 17.808C4.352 17.568 4.064 17.104 3.856 16.416L0.928 6.312C1.712 5.992 2.376 5.832 2.92 5.832C3.48 5.832 3.92 5.96 4.24 6.216C4.576 6.472 4.816 6.896 4.96 7.488L6.112 12.072C6.224 12.472 6.344 13.04 6.472 13.776C6.6 14.496 6.68 14.928 6.712 15.072C6.728 15.2 6.8 15.264 6.928 15.264ZM14.8141 13.992V8.976C14.8141 7.968 14.6221 7.184 14.2381 6.624C14.8301 6.112 15.5181 5.856 16.3021 5.856C17.1021 5.856 17.6461 6.04 17.9341 6.408C18.2381 6.776 18.3901 7.328 18.3901 8.064V13.32C18.3901 13.912 18.4701 14.344 18.6301 14.616C18.7901 14.872 19.0701 15 19.4701 15C20.1581 15 20.8061 14.704 21.4141 14.112V6.048C21.9101 5.952 22.5021 5.904 23.1901 5.904C23.8781 5.904 24.4861 5.952 25.0141 6.048V14.592C25.0141 15.472 25.2381 16.072 25.6861 16.392C25.6221 16.712 25.4781 17.048 25.2541 17.4C25.0301 17.736 24.7981 18 24.5581 18.192C23.2781 18.144 22.3661 17.584 21.8221 16.512C20.6061 17.648 19.4221 18.216 18.2701 18.216C17.1181 18.216 16.2541 17.832 15.6781 17.064C15.1021 16.28 14.8141 15.256 14.8141 13.992ZM38.2579 13.176H31.8979C31.9459 13.944 32.1379 14.544 32.4739 14.976C32.8099 15.392 33.4019 15.6 34.2499 15.6C35.0979 15.6 36.1059 15.352 37.2739 14.856C37.7699 15.336 38.0979 16.048 38.2579 16.992C36.9619 17.904 35.3939 18.36 33.5539 18.36C32.5619 18.36 31.7059 18.192 30.9859 17.856C30.2659 17.504 29.7139 17.024 29.3299 16.416C28.6259 15.248 28.2739 13.752 28.2739 11.928C28.2739 10.104 28.7139 8.608 29.5939 7.44C30.4739 6.272 31.7459 5.688 33.4099 5.688C35.0739 5.688 36.3459 6.168 37.2259 7.128C38.1219 8.072 38.5699 9.288 38.5699 10.776C38.5699 11.608 38.4659 12.408 38.2579 13.176ZM35.2579 10.416C35.2579 9.776 35.1219 9.256 34.8499 8.856C34.5779 8.44 34.1539 8.232 33.5779 8.232C33.0179 8.232 32.6019 8.432 32.3299 8.832C32.0739 9.232 31.9219 9.856 31.8739 10.704H35.2579V10.416ZM45.9876 8.712V18C45.5076 18.096 44.9236 18.144 44.2356 18.144C43.5476 18.144 42.9396 18.096 42.4116 18V9.936C42.4116 9.024 42.0356 8.568 41.2836 8.568H40.9476C40.8516 8.168 40.8036 7.752 40.8036 7.32C40.8036 6.888 40.8516 6.472 40.9476 6.072C41.7476 5.992 42.4276 5.952 42.9876 5.952H43.4676C44.2516 5.952 44.8676 6.2 45.3156 6.696C45.7636 7.192 45.9876 7.864 45.9876 8.712ZM41.9556 3.96C41.7796 3.528 41.6916 3.08 41.6916 2.616C41.6916 2.152 41.7796 1.704 41.9556 1.272C42.4036 1.032 42.9876 0.912 43.7076 0.912C44.4436 0.912 45.0116 1.032 45.4116 1.272C45.5876 1.704 45.6756 2.152 45.6756 2.616C45.6756 3.08 45.5876 3.528 45.4116 3.96C45.0116 4.2 44.4276 4.32 43.6596 4.32C42.8916 4.32 42.3236 4.2 41.9556 3.96ZM56.2103 5.808C57.5863 5.808 58.6343 6.36 59.3543 7.464C60.0903 8.568 60.4583 10.072 60.4583 11.976C60.4583 13.864 59.9223 15.376 58.8503 16.512C57.7943 17.648 56.3863 18.216 54.6263 18.216C52.8663 18.216 51.2903 17.944 49.8983 17.4V0.503999L50.0663 0.335999H51.4103C52.1303 0.335999 52.6423 0.503999 52.9463 0.839999C53.2503 1.16 53.4023 1.712 53.4023 2.496V6.672C54.2823 6.096 55.2183 5.808 56.2103 5.808ZM55.1783 8.688C54.5063 8.688 53.9143 8.968 53.4023 9.528V15.528C53.8343 15.608 54.2423 15.648 54.6263 15.648C56.0823 15.648 56.8103 14.4 56.8103 11.904C56.8103 9.792 56.2663 8.72 55.1783 8.688ZM68.1666 15.384H68.8626C69.0546 15.896 69.1506 16.392 69.1506 16.872C69.1506 17.336 69.1266 17.672 69.0786 17.88C68.1186 18.04 67.1986 18.12 66.3186 18.12C65.4386 18.12 64.7746 17.864 64.3266 17.352C63.8786 16.84 63.6546 16.024 63.6546 14.904V0.503999L63.8226 0.335999H65.2146C65.9186 0.335999 66.4146 0.503999 66.7026 0.839999C67.0066 1.16 67.1586 1.712 67.1586 2.496V14.256C67.1586 15.008 67.4946 15.384 68.1666 15.384ZM81.3558 13.176H74.9958C75.0438 13.944 75.2358 14.544 75.5718 14.976C75.9078 15.392 76.4998 15.6 77.3478 15.6C78.1958 15.6 79.2038 15.352 80.3718 14.856C80.8678 15.336 81.1958 16.048 81.3558 16.992C80.0598 17.904 78.4918 18.36 76.6518 18.36C75.6598 18.36 74.8038 18.192 74.0838 17.856C73.3638 17.504 72.8118 17.024 72.4278 16.416C71.7238 15.248 71.3718 13.752 71.3718 11.928C71.3718 10.104 71.8118 8.608 72.6918 7.44C73.5718 6.272 74.8438 5.688 76.5078 5.688C78.1718 5.688 79.4438 6.168 80.3238 7.128C81.2198 8.072 81.6678 9.288 81.6678 10.776C81.6678 11.608 81.5638 12.408 81.3558 13.176ZM78.3558 10.416C78.3558 9.776 78.2198 9.256 77.9478 8.856C77.6758 8.44 77.2518 8.232 76.6758 8.232C76.1158 8.232 75.6998 8.432 75.4278 8.832C75.1718 9.232 75.0198 9.856 74.9718 10.704H78.3558V10.416Z" fill="white"/>
</svg>
